<svg width="163" height="5" viewBox="0 0 163 5" fill="none" xmlns="http://www.w3.org/2000/svg">
<path d="M144.88 0.167278C146.803 0.313779 148.825 0.400789 150.589 1.04295C151.253 1.26238 151.913 1.86973 151.366 2.39223C150.53 2.96163 149.263 3.01194 148.204 3.20718C144.611 3.72446 140.932 3.62747 137.288 3.60112C135.974 3.58301 134.919 2.70877 134.967 1.74246C134.992 0.770566 136.17 -0.0408139 137.462 0.00159033C139.076 0.0128791 140.694 0.0192904 142.306 0.062869C143.163 0.086051 144.02 0.119168 144.876 0.169672L144.88 0.167278Z" fill="#4B0082" stroke="#D8BFD8" stroke-width="0.5"/>
<path d="M117.567 0.703078C119.312 0.81492 121.113 0.86362 122.758 1.35333C123.508 1.52782 124.583 2.09664 123.936 2.73832C122.893 3.45882 121.224 3.61518 119.922 3.81131C116.88 4.18426 113.809 4.34005 110.729 4.35132C109.371 4.35689 108.283 3.41459 108.331 2.4309C108.355 1.42414 109.574 0.593967 110.91 0.632571C112.592 0.618335 114.277 0.591769 115.959 0.637235C116.494 0.651701 117.029 0.673619 117.563 0.705472L117.567 0.703078Z" fill="#4B0082" stroke="#D8BFD8" stroke-width="0.5"/>
<path d="M90.5521 1.30679C92.1239 1.35674 93.7098 1.39215 95.2625 1.61321C95.8204 1.70043 96.4903 1.81057 96.924 2.10586C98.2842 3.32414 95.2618 4.01353 94.0645 4.18264C91.8492 4.53069 89.5849 4.54659 87.3331 4.57775C86.3169 4.59505 85.2899 4.62947 84.2762 4.59958C82.4828 4.58593 81.4584 2.87427 82.6697 1.87475C83.4584 1.18716 84.7277 1.22894 85.9372 1.26909C86.4126 1.28194 86.8776 1.29949 87.3019 1.27116C88.3403 1.27436 89.3821 1.27516 90.4225 1.30328C90.4657 1.30445 90.5122 1.30571 90.5554 1.30688L90.5521 1.30679Z" fill="#4B0082" stroke="#D8BFD8" stroke-width="0.5"/>
<path d="M67.2947 1.21558C68.4508 1.38364 69.8515 1.39663 70.729 2.04966C71.4315 2.61091 71.1412 3.50349 70.3142 3.90897C68.3996 4.73775 66.0629 4.80144 63.9024 4.92959C61.6751 5.00121 59.4414 5.0055 57.2159 4.91549C55.8162 4.88512 54.6237 3.95742 54.703 2.90242C54.9772 0.554273 58.1625 1.06075 60.4082 1.01947C61.6801 1.01157 62.952 1.00615 64.225 1.04057C65.2521 1.06833 66.2745 1.12084 67.2946 1.21807L67.2947 1.21558Z" fill="#4B0082" stroke="#D8BFD8" stroke-width="0.5"/>
<path d="M41.9522 2.16707C42.7242 2.35957 44.0816 2.81165 43.4958 3.56442C43.2341 3.85583 42.7489 3.96709 42.3205 4.07242C41.0883 4.33511 39.815 4.4947 38.5531 4.62724C35.4325 4.84635 32.2796 4.73376 29.1521 4.64424C25.8429 4.46524 26.0084 0.902789 29.331 0.890625C30.0294 0.902043 30.731 0.916034 31.4323 0.934993C34.9989 1.03141 38.568 1.26718 41.9522 2.16707Z" fill="#4B0082" stroke="#D8BFD8" stroke-width="0.5"/>
<path d="M15.6569 3.21661C14.1482 4.55135 10.8377 4.21063 8.70251 4.36434C7.5191 4.39702 6.33915 4.42731 5.15878 4.40287C3.0667 4.309 0.137147 4.44124 0.103027 2.32106C0.152084 1.3324 1.3155 0.483314 2.66075 0.537091C3.18221 0.558649 3.70113 0.565215 4.21966 0.579232C4.59193 0.589295 4.96779 0.594481 5.34007 0.604545C7.26243 0.823166 17.4374 0.648003 15.6568 3.21909L15.6569 3.21661Z" fill="#4B0082" stroke="#D8BFD8" stroke-width="0.5"/>
</svg>
