<svg width="165" height="266" viewBox="0 0 165 266" fill="none" xmlns="http://www.w3.org/2000/svg">
<path d="M99.8633 65.1869C101.225 63.9456 104.268 61.0375 106.41 57.64C108.878 53.7247 109.942 46.199 104.942 42.6667C101.232 40.0494 97.0262 40.78 94.9692 41.3687H94.9337C89.7275 39.4891 85.4646 41.9929 84.578 42.5461H84.5496C84.0815 41.4042 83.2871 40.6665 82.4076 40.6665C81.528 40.6665 80.6982 41.4325 80.2584 42.5461H80.23C79.3434 41.9929 75.0805 39.4607 69.8743 41.3687H69.8388C67.7819 40.7516 63.5757 40.0494 59.8661 42.6667C54.8656 46.199 55.9295 53.7247 58.3979 57.64C60.547 61.0446 63.5686 63.9598 64.9518 65.194C70.541 63.7612 76.3856 63.0022 82.4076 62.9952C88.4295 62.9952 94.2812 63.7541 99.8633 65.1869ZM98.7923 58.2854C100.353 56.0795 103.53 48.8092 99.2321 44.135V44.1066C100.466 44.1633 101.793 44.4896 103.027 45.3408C106.353 47.6956 105.204 53.37 103.616 55.9022C102.027 58.4628 99.7924 60.7538 98.3809 62.0802C97.6149 61.9028 96.8772 61.7539 96.1466 61.612C96.8843 60.8176 97.7922 59.7324 98.7923 58.2854ZM87.2592 44.7875C88.7912 44.0782 91.9334 43.1419 95.4657 45.2557C97.0829 46.199 98.1752 48.3482 98.0546 50.7882C97.9341 53.143 96.7283 55.4624 96.0828 56.4058C95.0259 57.9379 94.0542 59.0515 93.4088 59.704C92.9406 60.2076 92.1107 60.9666 92.1462 61.002C90.7631 60.8247 89.3799 60.6758 87.9684 60.5623H87.9401C89.2948 59.094 92.9974 54.6184 92.3803 50.0008C91.9121 46.5608 88.848 45.2627 87.2308 44.823L87.2592 44.7946V44.7875ZM66.4342 62.0802C65.0227 60.7538 62.7884 58.4628 61.1996 55.9022C59.6108 53.37 58.4617 47.6956 61.7883 45.3408C63.0225 44.4896 64.3489 44.1633 65.583 44.1066V44.135C61.2847 48.8092 64.4624 56.0795 66.0228 58.2854C67.0229 59.7253 67.9379 60.8176 68.6685 61.612C67.9308 61.761 67.2002 61.9028 66.4342 62.0802ZM76.8467 60.5552H76.8183C75.4068 60.6758 74.0237 60.8176 72.6406 60.9949C72.6689 60.9666 71.8461 60.2005 71.378 59.6969C70.7325 59.0515 69.7608 57.9308 68.704 56.3987C68.0585 55.4553 66.8527 53.1359 66.7321 50.7811C66.6115 48.3411 67.7038 46.1919 69.321 45.2486C72.8533 43.1278 76.0026 44.0711 77.5276 44.7804L77.556 44.8088C75.9388 45.2486 72.8817 46.5466 72.4065 49.9867C71.7894 54.6042 75.499 59.0798 76.8467 60.5481V60.5552ZM79.081 49.8732C79.081 48.0361 80.5705 46.5466 82.4076 46.5466C84.2446 46.5466 85.7342 48.0361 85.7342 49.8732C85.7342 51.7102 84.2446 53.1998 82.4076 53.1998C80.5705 53.1998 79.081 51.7102 79.081 49.8732ZM80.5847 56.6966C80.5847 55.6894 81.4004 54.8737 82.4076 54.8737C83.4148 54.8737 84.2305 55.6894 84.2305 56.6966C84.2305 57.7038 83.4148 58.5195 82.4076 58.5195C81.4004 58.5195 80.5847 57.7038 80.5847 56.6966Z" fill="white"/>
<path d="M63.6398 185.263L62.8454 185.001L61.668 188.299L62.434 188.562C63.0795 188.796 63.6398 188.796 64.1434 188.59C64.6115 188.384 64.9378 188.03 65.1435 187.505C65.3208 187.037 65.2641 186.59 65.0229 186.178C64.8172 185.795 64.3491 185.505 63.6398 185.263Z" fill="white"/>
<path d="M86.6132 76.6135C86.0812 76.5851 85.8472 77.0816 85.7904 77.7341C85.7337 78.5002 85.9394 78.94 86.4359 78.9683C87.0813 79.0251 87.2303 78.4647 87.287 77.8193C87.3438 77.1738 87.1381 76.6702 86.6132 76.6135Z" fill="white"/>
<path d="M78.6692 78.2375C79.2295 78.2091 79.3147 77.7977 79.2863 77.358C79.2579 76.9182 79.0806 76.5636 78.5486 76.5919C77.9883 76.6203 77.9032 77.0317 77.9315 77.4431C77.9599 77.9112 78.1372 78.2942 78.6692 78.2375Z" fill="white"/>
<path d="M82.4079 90.1821C58.5755 90.1821 39.1905 109.567 39.1905 133.4C39.1621 157.232 58.5755 176.617 82.4079 176.617C106.24 176.617 125.625 157.232 125.625 133.4C125.625 109.567 106.24 90.1821 82.4079 90.1821ZM42.1908 143.308C41.3964 140.131 40.985 136.804 40.985 133.364C40.985 129.924 41.4247 126.335 42.283 123.037H42.3114L72.0238 93.3243L72.0522 93.2959C75.3504 92.4448 78.8188 91.9979 82.4079 91.9979C85.9969 91.9979 89.1746 92.4093 92.3522 93.2037L92.3238 93.2321L42.2192 143.273L42.1908 143.301V143.308ZM58.611 167.261C54.6957 164.495 51.284 161.083 48.5177 157.168L48.5461 157.14L106.148 99.5377L106.176 99.481C110.092 102.247 113.503 105.659 116.27 109.574L116.241 109.603L58.6394 167.233L58.611 167.261ZM122.476 143.755L92.7636 173.468L92.7352 173.496C89.437 174.347 85.9686 174.794 82.4079 174.794C78.8472 174.794 75.6412 174.383 72.4636 173.588L72.4919 173.56L122.561 123.491L122.59 123.462C123.384 126.64 123.795 129.967 123.795 133.407C123.795 136.847 123.356 140.436 122.497 143.734L122.469 143.762L122.476 143.755Z" fill="white"/>
<path d="M78.7336 78.855C78.1165 78.8834 77.9959 79.3586 78.0243 79.9403C78.0527 80.5006 78.23 80.9687 78.8471 80.912C79.4642 80.8836 79.5848 80.4084 79.5564 79.8268C79.528 79.2381 79.3223 78.7983 78.7336 78.855Z" fill="white"/>
<path d="M75.4075 188.179C75.1451 188.094 74.8188 188.03 74.4642 188.001L73.6698 187.881L73.0811 191.881L73.8755 192.002C74.4926 192.087 74.9039 192.087 75.2018 192.03C75.8757 191.853 76.2871 191.293 76.436 190.292C76.5211 189.555 76.436 189.03 76.1097 188.647C75.9324 188.413 75.6984 188.264 75.4005 188.179H75.4075Z" fill="white"/>
<path d="M61.7819 190.385L61.0158 190.122L59.6895 193.974L60.7179 194.328C61.4272 194.562 61.9805 194.591 62.4557 194.385C62.9309 194.179 63.2501 193.825 63.4274 193.3C63.6331 192.711 63.6048 192.151 63.3423 191.626C63.0799 191.065 62.5479 190.654 61.7819 190.392V190.385Z" fill="white"/>
<path d="M149.571 86.7635C144.982 80.1458 139.45 74.2657 133.123 69.2581C128.214 65.3783 122.916 62.08 117.298 59.406C119.476 55.1076 120.27 49.6106 119.299 44.7874C118.299 39.7514 115.561 35.6658 111.383 32.9279C108.028 30.7504 104.176 29.6297 99.8497 29.6297C97.7927 29.6297 95.8777 29.8992 94.2605 30.2184C93.5866 28.8708 92.7 27.6295 91.5864 26.5726C89.111 24.1894 85.8482 22.8701 82.4081 22.8701C78.968 22.8701 75.6698 24.1894 73.1944 26.601C72.0808 27.665 71.1941 28.9275 70.5203 30.2539C68.9031 29.8992 66.988 29.6652 64.931 29.6652C60.6327 29.6652 56.7529 30.7788 53.3979 32.9563C49.2201 35.6942 46.4822 39.7797 45.4821 44.8158C44.5104 49.639 45.3048 55.1431 47.4824 59.4344C41.8647 62.08 36.5379 65.4066 31.658 69.2936C25.331 74.2941 19.834 80.1742 15.2094 86.799C5.67642 100.474 0.619141 116.597 0.619141 133.364C0.619141 144.401 2.79668 155.111 7.03118 165.198C11.1522 174.936 17.0323 183.675 24.565 191.179C32.0977 198.676 40.8079 204.592 50.5465 208.713C60.6327 212.976 71.3431 215.125 82.3797 215.125C93.4164 215.125 104.12 212.947 114.206 208.713C123.945 204.592 132.683 198.705 140.187 191.179C147.692 183.675 153.6 174.936 157.721 165.198C161.984 155.111 164.133 144.401 164.133 133.364C164.133 116.597 159.104 100.474 149.571 86.7635ZM82.4081 210.685C39.7156 210.685 5.08771 176.085 5.08771 133.364C5.08771 100.623 25.4516 72.6131 54.2207 61.3495L54.1923 61.3211C53.5468 60.5267 52.8943 59.6968 52.3056 58.8173C48.5747 53.2848 47.6029 42.0495 55.8379 36.6376C63.3139 31.7221 72.3148 35.2544 73.6057 35.8148V35.7509C73.7831 31.0483 77.6416 27.2819 82.3726 27.2819C87.1037 27.2819 90.9977 31.0483 91.1396 35.7509V35.8148C92.4659 35.2544 101.439 31.7505 108.915 36.6376C117.149 42.0495 116.178 53.2848 112.44 58.8173C111.851 59.6968 111.206 60.5267 110.56 61.3211L110.532 61.3495C139.301 72.6131 159.658 100.595 159.658 133.364C159.693 176.085 125.094 210.685 82.4081 210.685Z" fill="white"/>
<path d="M99.8634 65.1865L99.8492 65.2007L99.8209 65.2291L99.6436 67.4066C94.1394 65.8745 88.3799 65.0518 82.4076 65.0518C76.4354 65.0518 70.6688 65.8745 65.1647 67.4066L64.9873 65.2291L64.9519 65.1936C34.5656 72.9888 12.0312 100.588 12.0312 133.364C12.0312 172.17 43.602 203.74 82.4076 203.74C121.213 203.74 152.777 172.17 152.777 133.364C152.777 100.588 130.25 72.9746 99.8634 65.1865ZM148.252 133.69C148.223 134.13 148.018 136.159 146.429 137.925C144.868 139.663 143.514 139.953 143.194 139.982C143.138 139.982 143.138 139.953 143.138 139.897C143.138 139.159 143.138 137.811 144.812 135.896C146.166 134.307 147.755 133.747 148.167 133.634C148.223 133.605 148.252 133.634 148.252 133.69ZM147.748 126.307C147.805 126.746 148.039 128.718 146.869 130.747C145.719 132.719 144.485 133.279 144.159 133.392C144.102 133.421 144.074 133.392 144.074 133.307C143.925 132.598 143.634 131.307 144.868 129.13C145.868 127.307 147.308 126.42 147.663 126.25C147.72 126.221 147.748 126.25 147.748 126.307ZM146.422 119.419C146.478 119.391 146.507 119.391 146.507 119.448C146.627 119.887 147.01 121.831 146.003 123.952C145.031 126.037 143.854 126.69 143.563 126.803C143.506 126.831 143.478 126.803 143.478 126.746C143.272 126.073 142.889 124.803 143.889 122.512C144.741 120.632 146.095 119.632 146.422 119.419ZM144.187 113.064C144.187 113.064 144.272 113.036 144.272 113.092C144.421 113.504 145.067 115.327 144.358 117.533C143.684 119.682 142.62 120.448 142.329 120.625C142.272 120.654 142.244 120.625 142.208 120.568C141.918 119.923 141.386 118.746 142.088 116.391C142.677 114.476 143.854 113.334 144.173 113.064H144.187ZM115.39 88.7635C115.773 88.5862 117.305 87.884 119.39 88.1464C121.242 88.3805 122.859 89.6502 123.242 89.941C123.27 89.9693 123.299 90.0261 123.242 90.0616C122.951 90.2672 121.802 90.9411 119.504 90.7354C117.177 90.5297 115.709 89.2033 115.383 88.8841C115.326 88.8274 115.326 88.799 115.383 88.7635H115.39ZM112.063 85.0043C112.007 84.9475 112.007 84.9191 112.063 84.8837C112.418 84.7064 113.978 84.0325 116.064 84.295C117.915 84.529 119.532 85.7987 119.915 86.0895C119.944 86.1179 119.972 86.1746 119.915 86.2101C119.624 86.4158 118.475 87.1251 116.177 86.8839C113.851 86.6498 112.383 85.3234 112.056 85.0043H112.063ZM119.596 92.7072C119.979 92.5583 121.596 91.9696 123.625 92.3809C125.505 92.764 127.037 94.1471 127.391 94.4663C127.448 94.4947 127.448 94.5514 127.391 94.5869C127.1 94.7642 125.888 95.3813 123.596 94.9983C121.242 94.5869 119.859 93.147 119.568 92.8207C119.539 92.764 119.539 92.7356 119.596 92.7001V92.7072ZM123.745 96.885C124.157 96.7644 125.831 96.2963 127.838 96.885C129.689 97.417 131.136 98.9136 131.456 99.2682C131.512 99.325 131.512 99.3533 131.456 99.3888C131.165 99.5661 129.867 100.063 127.604 99.5094C125.278 98.9207 123.987 97.3602 123.724 97.0056C123.696 96.9488 123.696 96.9204 123.753 96.885H123.745ZM126.654 101.829C127.037 101.68 128.682 101.24 130.711 101.857C132.534 102.389 133.974 103.886 134.3 104.24C134.357 104.297 134.357 104.325 134.3 104.361C133.974 104.51 132.711 105.006 130.477 104.446C128.15 103.857 126.888 102.297 126.625 101.942C126.597 101.886 126.597 101.857 126.654 101.822V101.829ZM129.718 106.503C130.129 106.418 131.803 106.148 133.775 106.886C135.541 107.595 136.804 109.241 137.102 109.624C137.13 109.681 137.13 109.709 137.073 109.745C136.747 109.865 135.428 110.248 133.25 109.454C131.016 108.659 129.923 106.985 129.689 106.602C129.661 106.574 129.661 106.517 129.718 106.517V106.503ZM132.186 110.83C132.569 110.773 134.243 110.652 136.101 111.596C137.747 112.447 138.868 114.128 139.102 114.539C139.13 114.596 139.13 114.624 139.073 114.66C138.747 114.745 137.428 115.015 135.364 114.043C133.243 113.043 132.335 111.305 132.129 110.922C132.101 110.865 132.129 110.837 132.186 110.837V110.83ZM134.832 115.922C135.215 115.951 136.86 116.128 138.541 117.362C140.01 118.483 140.804 120.334 140.981 120.774C140.981 120.831 140.981 120.895 140.925 120.895C140.57 120.923 139.279 120.923 137.421 119.632C135.541 118.277 134.888 116.426 134.775 116.015C134.747 115.958 134.775 115.93 134.832 115.93V115.922ZM136.747 121.185C137.158 121.271 138.775 121.625 140.279 123.037C141.634 124.335 142.194 126.243 142.308 126.711C142.336 126.796 142.308 126.831 142.251 126.831C141.896 126.831 140.577 126.683 138.868 125.186C137.13 123.625 136.718 121.717 136.662 121.271C136.662 121.214 136.69 121.185 136.747 121.185ZM137.13 138.606C137.13 138.549 137.158 138.521 137.215 138.549C137.598 138.726 139.158 139.606 140.215 141.521C141.187 143.259 141.159 145.401 141.13 145.904C141.13 145.99 141.102 146.025 141.045 145.99C140.691 145.869 139.371 145.316 138.13 143.252C136.867 141.131 137.073 139.074 137.13 138.606ZM138.981 137.485C137.513 135.542 137.477 133.513 137.513 133.045C137.513 132.988 137.541 132.96 137.598 132.988C137.981 133.137 139.57 133.811 140.861 135.577C141.981 137.166 142.159 139.251 142.187 139.755C142.187 139.812 142.159 139.84 142.102 139.84C141.747 139.783 140.393 139.372 138.981 137.485ZM139.421 131.101C137.889 129.307 137.747 127.335 137.711 126.895C137.711 126.839 137.74 126.81 137.797 126.839C138.18 126.959 139.797 127.548 141.123 129.165C142.301 130.605 142.627 132.634 142.684 133.109C142.684 133.165 142.655 133.194 142.599 133.194C142.244 133.137 140.925 132.839 139.421 131.109V131.101ZM139.868 110.241C140.279 108.212 141.371 106.978 141.662 106.709C141.691 106.68 141.747 106.68 141.747 106.737C141.925 107.149 142.691 108.971 142.187 111.241C141.684 113.475 140.683 114.334 140.421 114.539C140.364 114.568 140.336 114.539 140.3 114.483C139.974 113.866 139.329 112.688 139.861 110.248L139.868 110.241ZM137.073 104.921C137.222 102.893 138.102 101.51 138.336 101.183C138.364 101.127 138.392 101.155 138.456 101.183C138.69 101.566 139.719 103.24 139.541 105.567C139.364 107.829 138.513 108.83 138.279 109.071C138.251 109.099 138.222 109.099 138.158 109.042C137.747 108.454 136.924 107.425 137.073 104.921ZM134.981 95.7714C135.009 95.7146 135.037 95.7146 135.101 95.7714C135.364 96.126 136.456 97.7716 136.399 100.126C136.343 102.389 135.52 103.453 135.279 103.687C135.25 103.716 135.222 103.716 135.158 103.659C134.718 103.098 133.86 102.098 133.895 99.6016C133.952 97.5446 134.775 96.0977 134.981 95.7785V95.7714ZM131.448 90.4446C131.477 90.3878 131.505 90.3878 131.569 90.4446C131.831 90.7992 133.009 92.4164 133.009 94.7429C133.009 97.0694 132.243 98.0979 132.009 98.3319C131.98 98.3603 131.952 98.3603 131.888 98.3036C131.42 97.7716 130.533 96.7715 130.505 94.2748C130.477 92.2462 131.243 90.7708 131.448 90.4517V90.4446ZM127.157 85.6214C127.186 85.5646 127.214 85.5646 127.278 85.6214C127.569 85.9476 128.895 87.4726 129.101 89.8275C129.306 92.1256 128.633 93.2676 128.427 93.5371C128.398 93.5938 128.37 93.5655 128.306 93.5087C127.774 93.0051 126.803 92.0972 126.54 89.5934C126.306 87.4726 126.98 85.976 127.157 85.6214ZM122.916 81.3798C122.944 81.323 122.972 81.323 123.036 81.3798C123.362 81.706 124.682 83.2027 124.916 85.5575C125.15 87.8556 124.476 88.9976 124.299 89.2955C124.27 89.3523 124.242 89.3239 124.178 89.2955C123.646 88.7919 122.674 87.9124 122.355 85.4157C122.121 83.2665 122.738 81.7415 122.916 81.3869V81.3798ZM117.653 77.968C117.653 77.9113 117.709 77.9113 117.738 77.9397C118.121 78.2021 119.71 79.4079 120.412 81.6493C121.086 83.8552 120.674 85.1178 120.532 85.4157C120.504 85.4724 120.476 85.4724 120.412 85.4157C119.795 85.0326 118.646 84.3588 117.88 81.9472C117.234 80.0037 117.525 78.3582 117.646 77.9751L117.653 77.968ZM110.418 78.7908C110.921 78.7625 112.858 78.6702 114.652 79.9683C116.362 81.2308 116.83 82.6423 116.915 83.1175C116.943 83.2381 116.887 83.2949 116.794 83.2665C116.262 83.2381 114.588 83.0892 112.879 81.9401C111.113 80.7627 110.467 79.2944 110.318 78.9114C110.29 78.8547 110.318 78.8263 110.404 78.7908H110.418ZM96.1751 67.7329C96.8702 67.7329 97.4376 68.3003 97.4376 68.9954C97.4376 69.6906 96.8702 70.258 96.1751 70.258C95.48 70.258 94.9125 69.6906 94.9125 68.9954C94.9125 68.3003 95.48 67.7329 96.1751 67.7329ZM93.1464 78.3511L93.267 77.7907L93.3521 77.8191C93.8557 77.9397 94.5012 77.9397 94.792 77.2871L94.8203 77.1665L95.4374 77.3155L94.26 82.6423L93.4088 82.465L94.26 78.5851L93.1393 78.3511H93.1464ZM82.4076 73.0881C77.4355 73.0881 72.6974 72.7618 68.3423 72.1447C67.0797 71.9674 67.2854 71.6411 68.4274 71.4354C72.9314 70.641 77.6057 70.2296 82.4006 70.2296C87.1954 70.2296 91.8413 70.641 96.3737 71.4354C97.5228 71.6411 97.7568 71.9674 96.4588 72.1447C92.1037 72.7618 87.3656 73.0881 82.3935 73.0881H82.4076ZM87.2309 79.1171C86.9968 79.5001 86.6138 79.6491 86.1102 79.6207C85.3725 79.564 84.8122 78.9752 84.876 77.8829C84.9611 76.6204 85.5498 75.9111 86.6989 76.0033C88.082 76.0884 88.2593 77.1807 88.1388 78.7412C88.0182 80.3584 87.6068 81.6564 86.1669 81.5642C85.2236 81.5074 84.7271 81.0322 84.7838 80.1243L85.7272 80.2094C85.6988 80.5357 85.8123 80.9187 86.2591 80.9755C87.0819 81.0322 87.2025 79.947 87.2592 79.1526L87.2309 79.1242V79.1171ZM77.173 77.4715C77.1163 76.6204 77.6412 76.06 78.5562 76.0033C79.4712 75.9466 80.0599 76.4147 80.1166 77.2658C80.145 77.9113 79.9109 78.2943 79.4428 78.5V78.5284C80.0031 78.5851 80.4145 79.032 80.4713 79.8264C80.528 80.8833 80.0599 81.5003 78.9392 81.5642C77.7901 81.6209 77.2014 81.096 77.1447 80.0321C77.0879 79.2377 77.4355 78.7341 77.9958 78.6206V78.5922C77.5277 78.4716 77.2014 78.1241 77.173 77.4715ZM70.378 77.0885L70.9951 76.9396L72.1441 82.2948L71.293 82.5004L70.4702 78.6206L69.3495 78.8547L69.2289 78.2943L69.314 78.2659C69.8176 78.1454 70.3993 77.9113 70.3993 77.2091L70.3709 77.0885H70.378ZM88.997 66.9385C89.5644 66.9385 90.0255 67.3995 90.0255 67.967C90.0255 68.5344 89.5644 68.9954 88.997 68.9954C88.4296 68.9954 87.9685 68.5344 87.9685 67.967C87.9685 67.3995 88.4296 66.9385 88.997 66.9385ZM82.4076 66.3781C83.1028 66.3781 83.6702 66.9456 83.6702 67.6407C83.6702 68.3358 83.1028 68.9032 82.4076 68.9032C81.7125 68.9032 81.1451 68.3358 81.1451 67.6407C81.1451 66.9456 81.7125 66.3781 82.4076 66.3781ZM75.7899 66.9385C76.3573 66.9385 76.8184 67.3995 76.8184 67.967C76.8184 68.5344 76.3573 68.9954 75.7899 68.9954C75.2225 68.9954 74.7614 68.5344 74.7614 67.967C74.7614 67.3995 75.2225 66.9385 75.7899 66.9385ZM68.6118 67.7329C69.314 67.7329 69.8744 68.3003 69.8744 68.9954C69.8744 69.6906 69.3069 70.258 68.6118 70.258C67.9167 70.258 67.3493 69.6906 67.3493 68.9954C67.3493 68.3003 67.9167 67.7329 68.6118 67.7329ZM50.1347 79.9683C51.9292 78.6702 53.8726 78.7625 54.3692 78.7908C54.4543 78.8192 54.4897 78.8476 54.4543 78.9114C54.3053 79.2944 53.6599 80.7627 51.8937 81.9401C50.1843 83.0892 48.5104 83.2381 47.9784 83.2665C47.8933 83.2949 47.8294 83.2381 47.8578 83.1175C47.9784 82.6494 48.4182 81.2379 50.1205 79.9683H50.1347ZM23.9474 135.57C25.21 133.804 26.8272 133.13 27.2102 132.981C27.2669 132.953 27.2953 132.981 27.2953 133.038C27.3237 133.506 27.2953 135.542 25.8271 137.478C24.4156 139.358 23.0608 139.776 22.7062 139.833C22.6494 139.833 22.621 139.805 22.621 139.748C22.6494 139.244 22.8267 137.159 23.9474 135.57ZM22.1884 133.187C22.1316 133.187 22.1033 133.158 22.1033 133.102C22.16 132.634 22.4863 130.598 23.6637 129.158C25.0185 127.541 26.6073 126.952 26.9903 126.831C27.0471 126.803 27.0754 126.831 27.0754 126.888C27.0471 127.328 26.8981 129.3 25.366 131.094C23.8623 132.832 22.543 133.123 22.1884 133.18V133.187ZM24.5716 141.514C25.6568 139.599 27.2173 138.719 27.5719 138.542C27.6287 138.514 27.6571 138.542 27.6571 138.599C27.7138 139.067 27.9195 141.131 26.6569 143.245C25.4228 145.302 24.0964 145.862 23.7417 145.982C23.685 146.011 23.6566 145.982 23.6566 145.897C23.6282 145.394 23.5999 143.252 24.5716 141.514ZM25.9193 125.186C24.2099 126.69 22.8906 126.831 22.5359 126.831C22.4792 126.831 22.4508 126.803 22.4792 126.711C22.5998 126.243 23.153 124.328 24.5078 123.037C26.0115 121.625 27.6571 121.271 28.0401 121.185C28.0968 121.185 28.1252 121.214 28.1252 121.271C28.0684 121.71 27.6571 123.625 25.9193 125.186ZM27.3662 119.625C25.515 120.923 24.217 120.923 23.8623 120.888C23.8056 120.888 23.8056 120.831 23.8056 120.767C23.9829 120.327 24.7773 118.469 26.2456 117.355C27.9195 116.121 29.5722 115.944 29.9552 115.915C30.0119 115.915 30.0403 115.944 30.0119 116.001C29.8913 116.412 29.2459 118.263 27.3662 119.618V119.625ZM29.4516 114.036C27.3946 115.008 26.0682 114.745 25.7419 114.653C25.6852 114.624 25.6852 114.596 25.7136 114.532C25.9476 114.121 27.0683 112.447 28.7139 111.589C30.5368 110.645 32.2178 110.766 32.6292 110.823C32.686 110.823 32.7143 110.851 32.686 110.908C32.4803 111.291 31.5653 113.029 29.4516 114.029V114.036ZM31.544 109.447C29.3665 110.241 28.0401 109.858 27.7209 109.737C27.6641 109.709 27.6641 109.681 27.6925 109.617C27.9833 109.234 29.253 107.588 31.0191 106.879C32.991 106.141 34.6933 106.411 35.0763 106.496C35.133 106.496 35.133 106.553 35.1047 106.581C34.8706 106.964 33.7783 108.638 31.544 109.432V109.447ZM34.3032 104.446C32.0689 105.006 30.7992 104.503 30.4801 104.361C30.4233 104.333 30.4233 104.304 30.4801 104.24C30.8063 103.886 32.2462 102.389 34.0691 101.857C36.0977 101.24 37.7432 101.68 38.1263 101.829C38.183 101.857 38.183 101.886 38.1546 101.949C37.8922 102.304 36.6226 103.864 34.3032 104.453V104.446ZM37.19 99.5023C34.9273 100.063 33.6293 99.559 33.3385 99.3817C33.2818 99.3533 33.2818 99.325 33.3385 99.2611C33.6648 98.9065 35.1047 97.4099 36.9559 96.8779C38.9845 96.2892 40.6655 96.7573 41.0486 96.8779C41.1053 96.9063 41.1053 96.9346 41.0769 96.9985C40.8145 97.3531 39.5165 98.9136 37.1971 99.5023H37.19ZM37.3957 94.5939C37.3389 94.5656 37.3389 94.5088 37.3957 94.4734C37.7503 94.1471 39.2753 92.764 41.1621 92.388C43.219 91.9766 44.8362 92.5654 45.1909 92.7143C45.2476 92.7427 45.2476 92.7711 45.2192 92.8349C44.9284 93.1612 43.5453 94.6011 41.1904 95.0124C38.8923 95.3955 37.6865 94.7784 37.3957 94.601V94.5939ZM41.5451 90.0616C41.4883 90.0332 41.5167 89.9764 41.5451 89.941C41.9281 89.6502 43.5453 88.3805 45.3966 88.1464C47.4819 87.884 49.0423 88.5862 49.397 88.7635C49.4537 88.7919 49.4537 88.8203 49.397 88.8841C49.0707 89.2104 47.6025 90.5297 45.276 90.7354C42.9779 90.9411 41.8359 90.2672 41.538 90.0616H41.5451ZM48.6026 86.8839C46.3045 87.118 45.1625 86.4158 44.8646 86.2101C44.8078 86.1817 44.8362 86.125 44.8646 86.0895C45.2476 85.7987 46.8648 84.529 48.7161 84.295C50.8014 84.0325 52.3618 84.7064 52.7165 84.8837C52.7732 84.9121 52.7732 84.9404 52.7165 85.0043C52.3902 85.3305 50.922 86.6498 48.5955 86.8839H48.6026ZM44.3681 81.6493C45.0774 79.415 46.6662 78.2092 47.0421 77.9397C47.0705 77.9113 47.1272 77.9113 47.1272 77.968C47.2478 78.3511 47.567 79.9966 46.8932 81.9401C46.1271 84.3517 44.9781 85.0326 44.361 85.4086C44.3042 85.4653 44.2759 85.4653 44.2404 85.4086C44.0915 85.1178 43.6801 83.8481 44.361 81.6422L44.3681 81.6493ZM39.864 85.5575C40.0981 83.2027 41.4245 81.706 41.7437 81.3798C41.8004 81.323 41.8288 81.323 41.8643 81.3798C42.0416 81.7344 42.687 83.2594 42.4246 85.4086C42.0983 87.9124 41.1337 88.7919 40.6017 89.2955C40.545 89.3239 40.5166 89.3523 40.4811 89.2955C40.3038 89.0047 39.63 87.8556 39.864 85.5575ZM35.7218 89.8275C35.9274 87.4726 37.2538 85.9405 37.5446 85.6214C37.6014 85.5646 37.6298 85.5646 37.6652 85.6214C37.8425 85.976 38.488 87.4726 38.2823 89.5934C38.0199 92.0972 37.0481 93.0051 36.5162 93.5087C36.4594 93.5655 36.431 93.5938 36.3956 93.5371C36.1899 93.2747 35.5161 92.1256 35.7218 89.8275ZM33.2179 90.4446C33.2747 90.3878 33.3031 90.3878 33.3385 90.4446C33.5442 90.7708 34.3386 92.2391 34.2819 94.2677C34.2535 96.7715 33.3669 97.7716 32.8988 98.2965C32.842 98.3532 32.8136 98.3532 32.7782 98.3249C32.5441 98.0908 31.7781 96.9985 31.7781 94.7358C31.7781 92.4732 32.9555 90.7921 33.2179 90.4375V90.4446ZM29.6856 95.7714C29.7424 95.7146 29.7708 95.7146 29.8062 95.7714C30.0403 96.0977 30.8631 97.5375 30.8914 99.5945C30.9198 102.098 30.0687 103.098 29.6289 103.652C29.5722 103.708 29.5438 103.708 29.5083 103.68C29.2742 103.446 28.4515 102.389 28.3876 100.119C28.3309 97.7645 29.4161 96.1189 29.6856 95.7643V95.7714ZM26.3661 101.183C26.4229 101.155 26.4512 101.127 26.4867 101.183C26.6924 101.51 27.6074 102.893 27.7493 104.921C27.8982 107.425 27.0754 108.454 26.664 109.042C26.6073 109.099 26.5789 109.099 26.5435 109.071C26.3094 108.837 25.4582 107.837 25.2809 105.567C25.1036 103.24 26.1321 101.566 26.3661 101.183ZM23.0679 106.744C23.0679 106.687 23.1246 106.687 23.153 106.716C23.4155 106.978 24.5078 108.22 24.9475 110.248C25.4795 112.688 24.827 113.866 24.5078 114.483C24.4794 114.539 24.451 114.568 24.3872 114.539C24.1248 114.334 23.1246 113.483 22.621 111.241C22.1174 108.978 22.8835 107.149 23.0608 106.737L23.0679 106.744ZM20.5357 113.1C20.5357 113.043 20.5925 113.043 20.6208 113.071C20.9116 113.334 22.0891 114.483 22.7062 116.398C23.4155 118.753 22.8835 119.93 22.5856 120.575C22.5572 120.632 22.5288 120.661 22.465 120.632C22.1742 120.455 21.1102 119.689 20.4364 117.54C19.7271 115.334 20.3797 113.511 20.5215 113.1H20.5357ZM18.3014 119.455C18.3014 119.398 18.3298 119.398 18.3865 119.426C18.7128 119.632 20.0605 120.632 20.9187 122.519C21.9188 124.817 21.5358 126.08 21.3301 126.753C21.3301 126.81 21.3018 126.839 21.245 126.81C20.9542 126.69 19.7768 126.044 18.805 123.959C17.8049 121.838 18.1879 119.902 18.3014 119.455ZM17.0673 126.307C17.0673 126.25 17.0956 126.221 17.1524 126.25C17.507 126.427 18.9185 127.307 19.947 129.13C21.1812 131.307 20.8904 132.598 20.7414 133.307C20.7414 133.392 20.713 133.428 20.6563 133.392C20.33 133.272 19.0958 132.719 17.9468 130.747C16.7694 128.718 17.0034 126.746 17.0673 126.307ZM16.6559 133.634C17.0389 133.754 18.6561 134.307 20.0108 135.896C21.6848 137.811 21.6848 139.159 21.6848 139.897C21.7131 139.953 21.6848 139.982 21.628 139.982C21.3018 139.953 19.9541 139.656 18.3936 137.925C16.8048 136.159 16.5991 134.13 16.5707 133.69C16.5707 133.634 16.5991 133.605 16.6559 133.634ZM17.0673 140.429C17.0673 140.372 17.0956 140.344 17.1524 140.344C17.5638 140.429 19.2377 140.876 20.7698 142.372C22.6494 144.195 22.7416 145.578 22.7984 146.316C22.7984 146.401 22.7984 146.436 22.7416 146.436C22.387 146.436 21.0038 146.259 19.2732 144.614C17.507 142.94 17.124 140.904 17.0673 140.436V140.429ZM22.8338 160.757C21.777 160.495 20.9826 159.7 20.4506 158.431C19.8903 157.076 19.947 155.898 20.6563 154.927C21.0109 154.423 21.4507 154.012 22.0111 153.721C22.4792 153.487 23.0395 153.217 23.7205 152.926L27.1605 151.543C28.338 151.075 29.2175 150.806 29.7211 150.777C30.6645 150.721 31.4589 151.011 32.1043 151.6C32.5441 152.012 32.9271 152.543 33.1896 153.217C33.6293 154.338 33.6577 155.338 33.2747 156.218C32.8633 157.133 32.0405 157.835 30.8063 158.338C30.7496 158.367 30.6006 158.424 30.4233 158.487L29.6005 156.459C29.7211 156.43 29.8062 156.402 29.863 156.374C31.3028 155.785 31.8348 154.991 31.4234 153.962C31.1893 153.402 30.8347 153.083 30.3382 152.99C30.0119 152.934 29.7211 152.962 29.3948 153.047C29.104 153.132 28.7777 153.253 28.3947 153.402L24.2737 155.076C23.3942 155.43 22.8055 155.749 22.5076 156.047C22.0678 156.487 21.9756 157.019 22.2451 157.693C22.6565 158.75 23.685 158.927 25.3022 158.282C25.3589 158.253 25.4795 158.225 25.6285 158.161L26.4512 160.19C26.2456 160.275 26.0966 160.339 25.9831 160.367C24.7773 160.835 23.7205 160.984 22.8338 160.75V160.757ZM28.2458 172.29L24.7135 166.758L35.9842 159.551L37.1616 161.403L27.5152 167.581L29.8701 171.255L28.2529 172.283L28.2458 172.29ZM37.4524 179.965C36.0693 180.525 34.7784 180.171 33.5726 178.88C32.6931 177.908 32.31 176.936 32.4519 175.908C32.537 175.319 32.7427 174.787 33.1257 174.347C33.452 173.936 33.835 173.496 34.3032 173.049L40.9209 166.871L42.4246 168.46L35.5373 174.929C34.977 175.461 34.6578 175.901 34.5372 176.284C34.4166 176.752 34.5372 177.163 34.9486 177.61C35.3316 178.021 35.7714 178.199 36.2466 178.114C36.6297 178.057 37.0978 177.731 37.6581 177.234L44.5454 170.794L46.0491 172.382L39.4314 178.56C38.637 179.298 37.9915 179.766 37.4595 179.972L37.4524 179.965ZM52.7803 181.795C52.2767 182.533 51.6313 182.944 50.9007 183.093C50.3971 183.178 49.8438 183.121 49.1629 182.887C49.6665 183.476 49.9573 184.008 50.0779 184.476C50.2836 185.327 50.1063 186.185 49.4892 187.037C48.8154 188.008 47.9287 188.54 46.9003 188.654C45.9285 188.739 44.9284 188.448 43.8716 187.682L40.9918 185.653L48.7019 174.737L51.3759 176.617C52.4044 177.326 53.0499 178.121 53.3194 178.972C53.6102 179.915 53.4684 180.851 52.7874 181.795H52.7803ZM67.3138 188.115C67.023 188.937 66.5194 189.526 65.8456 189.881C65.4058 190.115 64.8171 190.207 64.1362 190.143C64.7816 190.583 65.2214 190.994 65.4626 191.406C65.9023 192.144 65.9661 193.023 65.6115 194.051C65.2285 195.172 64.5547 195.931 63.5545 196.314C62.675 196.669 61.6111 196.64 60.3769 196.229L56.9936 195.052L61.4054 182.433L64.4979 183.518C65.6753 183.93 66.4981 184.519 67.0301 185.256C67.5904 186.079 67.6756 187.051 67.3209 188.108L67.3138 188.115ZM78.6413 190.47C78.4072 192.143 77.6128 193.236 76.258 193.676L77.5206 199.939L75.2225 199.648L74.1018 193.966L72.8038 193.789L72.0661 199.201L69.8886 198.91L71.6831 185.639L75.0948 186.107C76.3006 186.285 77.1801 186.668 77.7688 187.285C78.5065 188.079 78.7973 189.136 78.62 190.462L78.6413 190.47ZM82.4076 182.554C55.2558 182.554 33.1896 160.544 33.1896 133.364C33.1896 106.184 55.2274 84.1744 82.3793 84.1744C109.531 84.1744 131.597 106.212 131.597 133.364C131.597 160.516 109.56 182.554 82.4076 182.554ZM90.678 197.619C90.2383 199.059 89.146 199.854 87.3798 199.974C86.0818 200.059 85.0817 199.74 84.3795 199.002C83.9681 198.563 83.7057 198.059 83.5851 197.499C83.4645 196.995 83.3794 196.413 83.3226 195.761L82.6488 186.732L84.8264 186.554L85.5356 195.938C85.5924 196.704 85.7413 197.236 85.9754 197.555C86.2378 197.938 86.6847 198.116 87.2734 198.059C87.8621 198.031 88.2452 197.797 88.4792 197.385C88.6565 197.031 88.7133 196.506 88.6565 195.74L87.9473 186.356L90.1248 186.178L90.7986 195.208C90.8837 196.293 90.827 197.087 90.678 197.619ZM103.651 196.591L102.977 195.619C102.8 196.059 102.594 196.413 102.36 196.676C101.977 197.116 101.445 197.442 100.771 197.648C99.9202 197.882 99.1541 197.853 98.4448 197.563C97.7072 197.272 97.1185 196.648 96.6787 195.768C96.473 195.328 96.2106 194.647 95.941 193.739L94.9125 190.179C94.5579 188.945 94.3806 188.058 94.4089 187.533C94.4373 186.59 94.792 185.824 95.4658 185.235C95.9339 184.824 96.4943 184.526 97.2036 184.32C98.7073 183.88 99.9415 184.143 100.913 185.114C101.417 185.618 101.857 186.469 102.176 187.647L100.055 188.264C99.8209 187.498 99.5868 186.966 99.3173 186.675C98.8775 186.171 98.3455 186.029 97.7001 186.207C97.1114 186.384 96.7567 186.739 96.6432 187.235C96.5865 187.526 96.5865 187.852 96.6432 188.179C96.7 188.469 96.7922 188.796 96.9057 189.207L98.0547 193.151C98.3172 194.094 98.6151 194.768 98.8775 195.151C99.2889 195.74 99.8776 195.917 100.587 195.711C101.204 195.534 101.559 195.151 101.644 194.562C101.701 194.122 101.644 193.505 101.41 192.711L101.261 192.179L99.523 192.683L99.0194 191.037L102.871 189.916L104.722 196.272L103.637 196.598L103.651 196.591ZM115.596 191.207L114.744 190.384C114.659 190.853 114.539 191.236 114.361 191.534C114.071 192.065 113.595 192.477 113.007 192.768C112.241 193.179 111.446 193.3 110.709 193.151C109.914 193.002 109.24 192.534 108.623 191.739C108.332 191.356 107.949 190.739 107.503 189.888L105.793 186.625C105.204 185.476 104.85 184.653 104.793 184.121C104.644 183.206 104.85 182.384 105.382 181.681C105.765 181.178 106.261 180.766 106.885 180.447C108.269 179.71 109.531 179.738 110.68 180.476C111.269 180.887 111.858 181.625 112.418 182.681L110.475 183.71C110.091 183.001 109.765 182.533 109.446 182.298C108.914 181.915 108.361 181.859 107.772 182.15C107.212 182.44 106.949 182.859 106.921 183.355C106.921 183.682 106.978 183.972 107.098 184.27C107.219 184.533 107.361 184.859 107.538 185.214L109.418 188.831C109.886 189.711 110.269 190.335 110.623 190.654C111.155 191.158 111.744 191.214 112.418 190.86C112.978 190.569 113.241 190.122 113.241 189.533C113.212 189.094 113.035 188.505 112.652 187.767L112.418 187.299L110.829 188.122L109.978 186.654L113.539 184.802L116.596 190.689L115.596 191.221V191.207ZM121.327 187.498L113.056 176.993L118.029 173.049L119.234 174.553L115.908 177.17L118.085 179.937L120.525 178.021L121.731 179.525L119.291 181.44L121.823 184.646L125.15 182.029L126.356 183.533L121.327 187.505V187.498ZM138.804 168.964L131.271 168.375L131.98 170.701L135.747 173.347L134.718 174.787L123.653 167.02L124.682 165.58L130.037 169.347L130.065 169.318L127.561 161.495L128.682 159.878L130.803 166.673L139.924 167.346L138.804 168.964ZM143.336 160.402L129.512 158.374L130.25 156.664L142.017 158.608L142.045 158.58L132.484 151.458L133.222 149.749L144.223 158.338L143.343 160.395L143.336 160.402ZM145.514 144.606C143.776 146.252 142.393 146.429 142.045 146.429C141.989 146.429 141.989 146.401 141.989 146.309C142.045 145.571 142.138 144.188 144.017 142.365C145.549 140.861 147.223 140.422 147.635 140.336C147.691 140.336 147.72 140.365 147.72 140.422C147.663 140.89 147.28 142.925 145.514 144.599V144.606Z" fill="white"/>
<path d="M46.8998 182.44L46.2543 181.972L43.8711 185.327L44.7861 185.973C45.3748 186.384 45.9351 186.561 46.4317 186.505C46.9282 186.448 47.3466 186.178 47.6658 185.71C48.0205 185.207 48.134 184.653 48.0489 184.065C47.9283 183.448 47.5807 182.916 46.8998 182.447V182.44Z" fill="white"/>
<path d="M50.0785 178.085L49.4046 177.582L47.3477 180.433L47.9931 180.901C48.5535 181.284 49.0783 181.461 49.6103 181.405C50.1139 181.348 50.5537 181.078 50.8729 180.639C51.1637 180.227 51.2559 179.787 51.1353 179.341C51.0502 178.929 50.6672 178.489 50.0785 178.078V178.085Z" fill="white"/>
<path d="M79.8192 37.7229H81.4364V39.3401C81.4364 39.4606 81.5215 39.5457 81.6421 39.5457H83.1387C83.2593 39.5457 83.3444 39.4606 83.3444 39.3401V37.7512H84.9616C85.0822 37.7512 85.1673 37.6661 85.1673 37.5455V36.0489C85.1673 35.9283 85.0822 35.8432 84.9616 35.8432H83.3444V34.1906C83.3444 34.0771 83.2593 33.9849 83.1387 33.9849H81.6421C81.5215 33.9849 81.4364 34.0771 81.4364 34.1906V35.8148H79.8192C79.6987 35.8148 79.6064 35.9 79.6064 36.0205V37.5172C79.6064 37.6377 79.6987 37.7229 79.8192 37.7229Z" fill="white"/>
<path d="M82.3936 0.86084L84.7768 8.50706L93.0118 8.59217L86.8054 13.77L88.9546 21.0971L82.3936 16.742L75.8042 21.0971L77.9534 13.77L71.7471 8.59217L79.982 8.50706L82.3936 0.86084Z" fill="white"/>
</svg>
