<svg width="163" height="163" viewBox="0 0 163 163" fill="none" xmlns="http://www.w3.org/2000/svg">
<path d="M81.6411 0.436035C36.9144 0.436035 0.657227 36.6932 0.657227 81.4146C0.657227 126.136 36.9144 162.393 81.6411 162.393C126.368 162.393 162.62 126.141 162.62 81.4146C162.62 36.6879 126.362 0.436035 81.6411 0.436035ZM81.6411 160.146C38.1567 160.146 2.91014 124.899 2.91014 81.4146C2.91014 37.9302 38.1567 2.68895 81.6411 2.68895C125.125 2.68895 160.367 37.9355 160.367 81.4146C160.367 124.894 125.12 160.146 81.6411 160.146Z" fill="white"/>
<path d="M37.9931 96.3375V66.4917C36.3929 71.1712 35.5244 76.1929 35.5244 81.4146C35.5244 86.6363 36.3929 91.658 37.9931 96.3375Z" fill="white"/>
<path d="M125.125 66.0439V96.7846C126.825 91.9788 127.752 86.8044 127.752 81.4143C127.752 76.0241 126.825 70.8498 125.125 66.0439Z" fill="white"/>
<path d="M9.55273 77.9772H11.2845V87.1942H13.4532V76.1401H9.55273V77.9772Z" fill="white"/>
<path d="M24.1766 79.8354C24.1766 77.3983 22.2553 75.9771 19.9655 75.9771C17.6757 75.9771 15.7334 77.4351 15.7334 79.8775C15.7334 82.1094 17.4652 83.6096 19.6128 83.6096C19.8023 83.6096 20.1129 83.5675 20.3024 83.4833L17.6968 87.1943H20.076L22.6606 83.4622C23.6397 82.041 24.1818 80.9777 24.1818 79.8302L24.1766 79.8354ZM19.9813 81.9199C18.7285 81.9199 17.96 81.0198 17.96 79.8775C17.96 78.7353 18.7127 77.8773 19.9655 77.8773C21.2183 77.8773 21.9658 78.7353 21.9658 79.8775C21.9658 81.0198 21.3183 81.9199 19.9866 81.9199H19.9813Z" fill="white"/>
<path d="M142.765 79.5932L145.718 75.9085V75.8032H137.975V77.635H142.16L139.454 80.967L139.623 81.2776C140.017 81.1513 140.538 81.0302 141.328 81.0302C142.576 81.0302 143.66 81.6776 143.66 83.0515C143.66 84.4254 142.828 85.157 141.518 85.157C140.207 85.157 139.417 84.4254 138.938 83.3673L137.106 84.3043C137.649 85.5518 139.128 87.0309 141.518 87.0309C144.455 87.0309 145.886 85.2834 145.886 83.0989C145.886 81.0618 144.428 79.7669 142.765 79.6037V79.5932Z" fill="white"/>
<path d="M147.076 75.8086V77.6404H152.361L147.992 86.8415H150.277L155.44 75.9086V75.8086H147.076Z" fill="white"/>
<path d="M33.4987 33.0664L40.6207 40.5147L42.4736 38.7461L35.3516 31.2978L38.3888 28.3922L36.7886 26.7183L28.8613 34.2929L30.4615 35.9721L33.4987 33.0664Z" fill="white"/>
<path d="M46.5631 33.1033C48.3317 33.5033 50.0004 33.2349 51.59 32.2611C53.1797 31.2873 54.1798 29.9292 54.6167 28.1816C55.0589 26.413 54.7904 24.7444 53.8377 23.1863C52.8744 21.6124 51.5111 20.6123 49.7372 20.1964C47.9738 19.77 46.3104 20.0385 44.7155 21.0123C43.1258 21.9861 42.1257 23.3442 41.6835 25.1181C41.2572 26.8815 41.5256 28.5448 42.4889 30.124C43.4416 31.6821 44.805 32.6822 46.5631 33.1086V33.1033ZM44.1259 25.6076C44.3786 24.5022 44.9945 23.6653 45.9735 23.0652C46.9526 22.4651 47.9791 22.3019 49.0634 22.5914C50.1583 22.8704 51.0163 23.5179 51.6374 24.5285C52.2585 25.5392 52.4375 26.5972 52.1743 27.6868C51.9269 28.7659 51.3163 29.6029 50.3372 30.2029C49.3582 30.803 48.3317 30.9662 47.2421 30.703C46.1683 30.4293 45.3103 29.7871 44.6944 28.7712C44.0733 27.7605 43.8943 26.7025 44.1312 25.6076H44.1259Z" fill="white"/>
<path d="M59.6955 26.2285C61.0009 26.9549 62.4379 27.0602 64.0381 26.5443C65.5962 26.039 66.6648 25.1178 67.2754 23.7703C67.886 22.4228 67.9123 20.912 67.3649 19.2276L65.2172 12.5952L62.7801 13.3848L64.9277 20.0172C65.5804 22.0227 64.9119 23.6861 63.2801 24.2177C61.5589 24.7757 60.0061 23.8335 59.3533 21.8279L57.2057 15.1955L54.7686 15.9851L56.9215 22.6175C57.4689 24.3019 58.3901 25.5074 59.6955 26.2338V26.2285Z" fill="white"/>
<path d="M80.5359 23.2602L80.2938 20.9546L73.8088 21.6442L72.7244 11.3955L70.1768 11.6692L71.5085 24.2182L80.5359 23.2602Z" fill="white"/>
<path d="M88.1105 24.0494C89.9633 24.2495 91.5899 23.7757 92.9953 22.6598C94.4271 21.5228 95.2272 20.0384 95.4219 18.2224C95.6167 16.3853 95.1482 14.7641 93.9902 13.3533C92.8532 11.9426 91.3635 11.1425 89.5106 10.9425C87.6578 10.7425 86.0365 11.2162 84.6048 12.3532C83.1941 13.4902 82.394 14.9799 82.1939 16.8117C81.9992 18.6277 82.4729 20.2542 83.6099 21.6597C84.7679 23.0546 86.2576 23.8547 88.1105 24.0547V24.0494ZM84.7627 17.0801C84.889 15.901 85.3891 14.9483 86.2418 14.2271C87.1156 13.506 88.1105 13.2165 89.2527 13.3376C90.395 13.4586 91.3109 13.9534 91.9899 14.843C92.69 15.7326 92.9795 16.7696 92.8532 17.9487C92.7268 19.1278 92.2268 20.0805 91.3582 20.7806C90.5055 21.4859 89.5107 21.7755 88.3684 21.6544C87.2262 21.5333 86.3102 21.0385 85.6102 20.1647C84.9259 19.2962 84.6364 18.2592 84.7627 17.0801Z" fill="white"/>
<path d="M101.454 27.108C102.996 27.6554 104.407 27.5765 105.712 26.8816C107.018 26.1868 107.96 25.0025 108.555 23.3338L110.892 16.7698L108.481 15.9118L106.144 22.4811C105.439 24.4655 103.896 25.3762 102.28 24.8024C100.575 24.1971 99.9221 22.5021 100.627 20.5177L102.965 13.9537L100.554 13.0957L98.2166 19.6597C97.6218 21.3283 97.6218 22.8443 98.2166 24.2181C98.8114 25.5867 99.8852 26.55 101.464 27.1132L101.454 27.108Z" fill="white"/>
<path d="M110.192 26.5656C109.686 27.671 109.676 28.7501 110.16 29.8292C110.671 30.903 111.508 31.7979 112.692 32.5348C113.971 33.3296 115.187 33.6665 116.345 33.5455C117.508 33.4244 118.398 32.8454 119.045 31.8084C120.072 30.1608 119.677 28.4764 118.14 26.9867L116.124 25.0918C115.492 24.5022 115.361 23.9285 115.729 23.3389C116.198 22.5862 117.261 22.4493 118.298 23.0968C119.388 23.7706 119.856 24.976 119.377 26.0708L121.83 26.9762C122.209 25.9024 122.199 24.8549 121.777 23.8179C121.356 22.781 120.598 21.9335 119.514 21.2544C118.266 20.4754 117.087 20.1648 115.971 20.3175C114.866 20.4491 114.013 21.0071 113.403 21.9809C112.376 23.6284 112.687 25.2392 114.308 26.8025L116.308 28.6501C117.098 29.4081 117.229 29.9555 116.829 30.5925C116.34 31.3768 115.298 31.5242 114.082 30.7662C112.755 29.9397 112.313 28.8659 112.766 27.5289L110.192 26.5709V26.5656Z" fill="white"/>
<path d="M125.747 42.9256L127.342 41.2465L122.252 36.4037L124.226 34.3298L128.895 38.7725L130.469 37.1196L125.8 32.6822L127.758 30.6188L132.822 35.4352L134.417 33.756L127.5 27.1763L118.799 36.3195L125.747 42.9256Z" fill="white"/>
<path d="M27.1921 113.661L29.4555 112.208L32.677 117.23L34.3772 116.135L29.945 109.245L20.707 115.182L21.9124 117.056L25.4971 114.756L28.3817 119.235L30.0766 118.146L27.1921 113.661Z" fill="white"/>
<path d="M38.7624 120.714C37.6517 119.53 36.32 118.919 34.7303 118.851C33.1564 118.798 31.7826 119.324 30.6087 120.419C29.4507 121.504 28.8348 122.841 28.7822 124.415C28.7559 125.988 29.277 127.362 30.3824 128.547C31.4931 129.731 32.8248 130.342 34.3882 130.405C35.9726 130.468 37.3464 129.947 38.5097 128.857C39.6836 127.762 40.2942 126.425 40.3363 124.836C40.3889 123.262 39.8678 121.888 38.7571 120.704L38.7624 120.714ZM38.1781 124.694C38.136 125.678 37.736 126.52 36.9832 127.231C36.2305 127.936 35.362 128.278 34.3882 128.247C33.4249 128.226 32.6037 127.852 31.9194 127.125C31.2351 126.399 30.914 125.552 30.9509 124.578C30.993 123.62 31.3931 122.772 32.1458 122.067C32.8985 121.362 33.767 121.019 34.7408 121.03C35.7252 121.051 36.5463 121.425 37.2306 122.156C37.9149 122.888 38.236 123.73 38.1781 124.704V124.694Z" fill="white"/>
<path d="M48.0842 128.805C46.7524 127.878 45.3207 127.552 43.7573 127.82C42.2045 128.094 40.9727 128.889 40.0516 130.205C39.1409 131.505 38.8198 132.942 39.0936 134.49C39.3936 136.037 40.1832 137.274 41.5149 138.201C42.8467 139.132 44.2784 139.453 45.8207 139.19C47.3841 138.927 48.6211 138.132 49.5317 136.827C50.4529 135.511 50.774 134.079 50.4845 132.521C50.2107 130.968 49.4159 129.736 48.0894 128.805H48.0842ZM47.6894 135.542C47.0998 136.39 46.3155 136.9 45.3628 137.074C44.4205 137.253 43.5362 137.058 42.7203 136.485C41.9044 135.911 41.4149 135.153 41.2465 134.195C41.0885 133.247 41.3044 132.337 41.8992 131.494C42.4887 130.652 43.2678 130.136 44.2258 129.942C45.1943 129.757 46.0734 129.957 46.8945 130.526C47.7157 131.1 48.2 131.858 48.3473 132.821C48.5053 133.789 48.2947 134.7 47.6999 135.548L47.6894 135.542Z" fill="white"/>
<path d="M61.3695 136.243L52.7263 132.237L51.8788 134.063L55.1898 135.6L51.4209 143.728L53.4422 144.665L57.2111 136.537L60.522 138.069L61.3695 136.243Z" fill="white"/>
<path d="M67.4916 137.948L62.2805 136.527L59.3906 147.112L64.6176 148.539C66.8916 149.16 68.3444 148.318 68.8339 146.533C69.2182 145.128 68.5865 143.954 67.6601 143.565L67.6759 143.501C68.0707 143.544 68.4812 143.417 68.9181 143.112C69.3603 142.807 69.6498 142.359 69.8182 141.743C70.3025 139.975 69.3866 138.469 67.4916 137.953V137.948ZM66.6915 145.723C66.4705 146.528 65.8283 146.897 64.8808 146.639L62.0383 145.865L62.7542 143.243L65.6756 144.044C66.4968 144.27 66.9126 144.923 66.6915 145.728V145.723ZM67.6969 141.296C67.4706 142.117 66.7758 142.501 65.902 142.264L63.2174 141.533L63.9228 138.943L66.7494 139.717C67.4601 139.911 67.8864 140.585 67.6917 141.296H67.6969Z" fill="white"/>
<path d="M75.8558 139.427L70.1709 149.95L72.5712 150.16L73.7398 147.913L78.572 148.334L79.3141 150.75L81.7145 150.96L77.935 139.611L75.8611 139.427H75.8558ZM74.7241 145.97L76.6664 142.207L77.9087 146.244L74.7241 145.965V145.97Z" fill="white"/>
<path d="M86.2415 148.591L85.5045 139.664L83.2832 139.848L84.1886 150.781L92.0527 150.134L91.8843 148.123L86.2415 148.591Z" fill="white"/>
<path d="M96.653 147.154L94.558 138.443L92.3945 138.964L94.958 149.628L102.627 147.786L102.159 145.828L96.653 147.154Z" fill="white"/>
<path d="M114.867 137.501C115.346 139.317 114.662 140.69 113.214 141.422C112.335 141.864 111.435 141.933 110.503 141.617C109.587 141.291 108.887 140.669 108.424 139.748C107.961 138.827 107.877 137.895 108.166 136.979C108.445 136.048 109.04 135.363 109.929 134.911C111.345 134.195 112.888 134.442 114.056 135.89L115.709 134.374C114.877 133.342 113.856 132.705 112.625 132.484C111.388 132.247 110.177 132.437 108.977 133.042C107.529 133.774 106.566 134.884 106.076 136.379C105.576 137.859 105.692 139.327 106.419 140.759C107.15 142.206 108.261 143.17 109.751 143.649C111.24 144.128 112.704 144.012 114.151 143.28C115.362 142.67 116.225 141.791 116.767 140.654C117.315 139.517 117.378 138.269 116.994 136.922L114.862 137.501H114.867Z" fill="white"/>
<path d="M122.104 135.811L116.719 128.657L114.939 129.994L121.535 138.758L127.841 134.016L126.63 132.405L122.104 135.811Z" fill="white"/>
<path d="M132.995 121.836L128.594 117.672L127.062 119.288L131.463 123.452C132.795 124.715 132.979 126.262 131.953 127.342C130.873 128.484 129.294 128.41 127.963 127.152L123.562 122.988L122.03 124.604L126.431 128.768C127.552 129.826 128.757 130.358 130.058 130.373C131.358 130.384 132.5 129.868 133.5 128.805C134.479 127.768 134.911 126.62 134.816 125.336C134.721 124.052 134.111 122.888 132.995 121.83V121.836Z" fill="white"/>
<path d="M141.164 113.113C139.943 112.318 138.632 112.555 137.974 113.323L137.921 113.287C138.079 112.918 138.085 112.492 137.932 111.981C137.774 111.471 137.442 111.055 136.905 110.707C135.368 109.707 133.658 110.113 132.584 111.76L129.631 116.287L138.827 122.283L141.79 117.74C143.08 115.766 142.722 114.124 141.169 113.113H141.164ZM132.436 115.461L134.037 113.002C134.437 112.387 135.216 112.187 135.832 112.587C136.548 113.05 136.7 113.839 136.205 114.592L134.684 116.924L132.431 115.455L132.436 115.461ZM140.058 116.908L138.448 119.377L136.169 117.892L137.821 115.355C138.285 114.639 139.037 114.445 139.737 114.903C140.437 115.361 140.59 116.087 140.053 116.908H140.058Z" fill="white"/>
<path d="M82.852 80.2618C82.852 80.2618 82.8099 80.2671 82.7888 80.2723C82.8099 80.1671 82.8309 80.0618 82.852 79.946C83.0836 78.8353 83.531 77.3404 84.1153 76.4666L84.3311 76.1402C84.4364 76.2087 84.5627 76.2613 84.6996 76.2613C85.0733 76.2613 85.3734 75.956 85.3734 75.5823C85.3734 75.2085 85.0733 74.9085 84.6996 74.9085C84.3996 74.9085 84.1522 75.1033 84.0627 75.3717L83.6942 75.2507C83.5363 75.198 83.1731 75.0401 82.8573 74.819C82.6467 74.6716 82.4572 74.4979 82.3625 74.3084L81.9414 73.461C82.1624 73.3504 82.3151 73.1293 82.3151 72.8662C82.3151 72.4924 82.0098 72.1924 81.6361 72.1924C81.2623 72.1924 80.9623 72.4924 80.9623 72.8662C80.9623 73.1293 81.1149 73.3557 81.336 73.4662L80.9149 74.3084C80.8254 74.4821 80.6622 74.6401 80.4728 74.7769C80.1464 75.0243 79.7516 75.1928 79.5832 75.2507L79.22 75.3717C79.1305 75.1085 78.8831 74.9138 78.5883 74.9138C78.2146 74.9138 77.9093 75.2138 77.9093 75.5875C77.9093 75.9613 78.2146 76.2666 78.5883 76.2666C78.7252 76.2666 78.8462 76.2139 78.9515 76.1455L79.1673 76.4666C79.7832 77.3983 80.2517 79.0353 80.4728 80.1618C80.478 80.1986 80.4885 80.2355 80.4938 80.2723C80.4938 80.2723 80.478 80.2723 80.4728 80.2723C79.3358 80.0618 77.6356 79.5828 76.6933 78.9511L76.3617 78.73C76.4301 78.6195 76.4828 78.4984 76.4828 78.3563C76.4828 77.9826 76.1827 77.6825 75.809 77.6825C75.4353 77.6825 75.13 77.9826 75.13 78.3563C75.13 78.6563 75.33 78.9037 75.5985 78.9932L75.4721 79.367C75.3826 79.6354 75.0089 80.4566 74.5299 80.6987L73.6772 81.1251C73.5666 80.8987 73.3455 80.7461 73.0771 80.7461C72.7034 80.7461 72.4033 81.0514 72.4033 81.4251C72.4033 81.7988 72.7034 82.0989 73.0771 82.0989C73.3455 82.0989 73.5666 81.941 73.6772 81.7199L74.5299 82.1463C74.7668 82.2673 74.9826 82.5305 75.1458 82.8042C75.3142 83.0727 75.43 83.3411 75.4721 83.478L75.5985 83.8465C75.3616 83.9254 75.1826 84.1255 75.1458 84.3729C75.1405 84.4097 75.1352 84.4465 75.1352 84.4834C75.1352 84.515 75.1352 84.5466 75.1458 84.5729C75.1879 84.9045 75.4721 85.1572 75.8143 85.1572C75.9353 85.1572 76.0511 85.1256 76.1459 85.0677C76.3512 84.9571 76.488 84.7361 76.488 84.4834C76.488 84.3413 76.4354 84.2202 76.367 84.1097L76.6933 83.8938C77.6356 83.2622 79.3358 82.7832 80.4728 82.5726C80.478 82.5674 80.4885 82.5674 80.4938 82.5674C80.4938 82.6042 80.478 82.6411 80.4728 82.6832C80.2517 83.8149 79.7832 85.4414 79.1673 86.3731L78.9462 86.6995C78.841 86.631 78.7199 86.5784 78.583 86.5784C78.2093 86.5784 77.904 86.8837 77.904 87.2574C77.904 87.6312 78.2093 87.9312 78.583 87.9312C78.8778 87.9312 79.1252 87.7364 79.2147 87.468L79.5832 87.589C79.7516 87.6469 80.1411 87.8154 80.4675 88.0575C80.657 88.1944 80.8254 88.3523 80.9149 88.5313L81.3413 89.3787C81.1202 89.4945 80.9623 89.7156 80.9623 89.9788C80.9623 90.3525 81.2676 90.6578 81.6413 90.6578C82.0151 90.6578 82.3151 90.3525 82.3151 89.9788C82.3151 89.7156 82.1624 89.4893 81.9414 89.3787L82.3625 88.5313C82.4519 88.3418 82.6414 88.1733 82.852 88.0207C83.152 87.8101 83.4942 87.6522 83.6942 87.589L84.0679 87.468C84.1522 87.7364 84.3996 87.9312 84.6996 87.9312C85.0733 87.9312 85.3734 87.6259 85.3734 87.2574C85.3734 86.889 85.0733 86.5784 84.6996 86.5784C84.5627 86.5784 84.4364 86.631 84.3311 86.6995L84.1153 86.3731C83.531 85.4993 83.0836 84.0044 82.852 82.8885C82.8309 82.7779 82.8099 82.6674 82.7888 82.5674C82.8099 82.5726 82.8309 82.5726 82.852 82.5779C83.9837 82.7937 85.6523 83.2675 86.584 83.8938L86.9157 84.1149C86.8472 84.2255 86.7946 84.3465 86.7946 84.4887C86.7946 84.8624 87.0946 85.1624 87.4684 85.1624C87.8421 85.1624 88.1474 84.8624 88.1474 84.4887C88.1474 84.1886 87.9474 83.9412 87.6842 83.8517L87.8052 83.478C87.9 83.2095 88.2685 82.3884 88.7527 82.1463L89.6002 81.7199C89.6265 81.7725 89.6581 81.8199 89.695 81.862C89.7581 81.941 89.8371 81.9989 89.9266 82.041C90.0108 82.0778 90.1003 82.0989 90.2003 82.0989C90.574 82.0989 90.8741 81.7988 90.8741 81.4251C90.8741 81.0514 90.574 80.7461 90.2003 80.7461C90.1055 80.7461 90.0161 80.7671 89.9318 80.804C89.8055 80.8619 89.695 80.9619 89.6265 81.083C89.616 81.0935 89.6055 81.1093 89.6002 81.1251L89.516 81.083L89.237 80.9408L88.7527 80.6987C88.2948 80.4724 87.921 79.7038 87.8052 79.367L87.6842 78.9932C87.9474 78.9037 88.1474 78.6563 88.1474 78.3563C88.1474 77.9826 87.8421 77.6825 87.4684 77.6825C87.0946 77.6825 86.7946 77.9826 86.7946 78.3563C86.7946 78.4984 86.8472 78.6195 86.9157 78.73L86.584 78.9511C85.6523 79.5775 83.9837 80.0513 82.852 80.2671V80.2618ZM87.0367 79.6196C87.0367 79.6196 87.4842 80.9672 88.3843 81.4199C87.4842 81.8673 87.0367 83.2201 87.0367 83.2201C85.6102 82.2621 82.7625 81.6462 81.8624 81.6462C81.8624 82.5463 82.4835 85.3835 83.4363 86.8205C83.4363 86.8205 82.0835 87.2679 81.6361 88.1681C81.1886 87.2679 79.8358 86.8205 79.8358 86.8205C80.7886 85.3835 81.4097 82.5463 81.4097 81.6462C80.5096 81.6462 77.6619 82.2621 76.2354 83.2201C76.2354 83.2201 75.788 81.8725 74.8878 81.4199C75.788 80.9724 76.2354 79.6196 76.2354 79.6196C77.6619 80.5776 80.5096 81.1935 81.4097 81.1935C81.4097 80.2934 80.7886 77.4562 79.8358 76.0192C79.8358 76.0192 81.1834 75.5717 81.6361 74.6716C82.0835 75.5717 83.4363 76.0192 83.4363 76.0192C82.4835 77.4562 81.8624 80.2934 81.8624 81.1935C82.7625 81.1935 85.6102 80.5776 87.0367 79.6196Z" fill="white"/>
<path d="M85.6409 116.624C86.1989 116.893 86.4989 116.251 86.7147 115.929C86.6832 115.014 87.2622 114.192 87.8096 113.445C87.4833 113.277 87.5885 112.703 86.9516 112.903C87.2727 112.624 87.199 112.54 86.7358 112.445C86.5568 112.613 87.2569 113.013 86.5726 112.871C86.3779 113.092 86.6463 113.587 86.4989 113.956C86.5726 114.84 86.1831 115.808 85.4198 116.414C85.2146 116.803 85.841 116.161 85.6357 116.63L85.6409 116.624Z" fill="white"/>
<path d="M78.1779 113.098C78.1779 113.098 78.1253 113.103 78.0884 113.113H78.0674C78.1358 113.261 78.3358 113.087 78.1779 113.098Z" fill="white"/>
<path d="M86.4154 112.487C86.3786 112.387 86.9839 112.208 86.647 112.213C86.3259 112.397 85.6995 112.624 86.4154 112.487Z" fill="white"/>
<path d="M77.3978 104.128C77.4242 104.154 77.4715 104.181 77.4979 104.175C77.5294 104.175 77.5821 104.149 77.6084 104.133C77.6979 104.049 77.8032 103.865 77.9084 103.844C77.9084 103.844 78.0927 103.812 78.0874 103.738C78.0874 103.707 78.0874 103.707 78.0716 103.696C77.9874 103.691 77.8505 103.649 77.8189 103.649C77.6663 103.665 77.5294 103.907 77.5031 104.028C77.4926 104.075 77.4294 104.112 77.3926 104.128H77.3978Z" fill="white"/>
<path d="M78.3618 113.687C78.4986 113.666 78.6039 113.687 78.6671 113.729C78.6671 113.724 78.6671 113.713 78.6671 113.708C78.6671 113.65 78.6934 113.592 78.746 113.582C78.8039 113.576 78.846 113.687 78.846 113.703C78.846 113.761 78.8092 113.855 78.7355 113.876C78.7355 113.876 78.7302 113.866 78.725 113.861C78.6986 113.934 78.5986 114.013 78.4039 114.071C78.6092 114.708 78.7934 115.361 78.6986 116.05C78.9039 116.503 77.8512 117.119 78.2723 117.256C78.5039 116.766 78.3565 117.698 78.9039 117.408C79.4987 117.456 79.1198 116.777 79.5988 116.656C79.704 115.834 79.3145 114.998 79.5619 114.213C79.8356 113.85 80.0199 113.055 79.4882 113.055C79.4356 113.055 79.3724 113.066 79.2987 113.081C78.9987 113.092 78.6934 113.097 78.3933 113.108C78.5776 113.46 78.3302 113.582 78.3618 113.687Z" fill="white"/>
<path d="M77.4304 104.654C77.4094 104.686 77.4094 104.744 77.3936 104.775C77.3673 104.823 77.3199 104.886 77.2988 104.944C77.3251 104.954 77.3567 104.965 77.383 104.96C77.4146 104.96 77.4304 104.944 77.4409 104.944C77.5146 104.849 77.5725 104.738 77.6568 104.644C77.6147 104.633 77.5567 104.581 77.5304 104.581C77.4988 104.581 77.4462 104.633 77.4357 104.649L77.4304 104.654Z" fill="white"/>
<path d="M78.3516 113.098C78.3516 113.098 78.3095 113.098 78.2832 113.113C78.4148 113.14 78.4043 113.103 78.3516 113.098Z" fill="white"/>
<path d="M45.758 39.783V45.6942C36.6411 54.848 31.0088 67.4759 31.0088 81.4145C31.0088 109.376 53.6748 132.047 81.6414 132.047C109.608 132.047 132.269 109.376 132.269 81.4145C132.269 67.4759 126.631 54.848 117.52 45.6942V39.783C117.52 39.783 114.256 39.3882 109.187 38.9302C101.26 33.7822 91.8006 30.7871 81.6414 30.7871C71.4823 30.7871 61.9548 33.8033 54.0117 38.9829C49.0479 39.4198 45.758 39.783 45.758 39.783ZM48.1372 69.9394H77.1251C72.5456 71.7449 69.3031 76.2086 69.3031 81.4198C69.3031 81.783 69.3188 82.1462 69.3504 82.4988H69.1399V92.0685H68.1398V75.2032H67.3028V78.0246H66.4711V75.2032H65.6342V78.0246H64.8025V75.2032H63.9655V78.0246H63.1339V75.2032H62.3022V78.0246H61.4652V75.2032H60.6283V92.0685H59.6282V82.4988H58.628V84.7518H57.6279V82.4988H56.6278V84.7518H55.6277V82.4988H54.6223V84.7518H53.6221V82.4988H52.622V105.028H61.7705L61.76 99.9747C61.76 99.8168 61.7758 99.6536 61.8074 99.4852C61.9127 98.9325 62.1758 98.3377 62.5443 97.8481C63.0812 97.1375 63.7339 96.7427 64.3919 96.7427C65.1289 96.7427 65.7763 97.2323 66.2343 97.8797C66.6922 98.5272 66.9712 99.3378 66.9712 99.9747V105.028H74.9195C74.9932 106.102 75.3249 107.16 75.8828 108.07C76.2197 108.618 76.6356 109.113 77.1093 109.534C77.1198 109.586 77.1514 109.618 77.2146 109.623C77.2725 109.676 77.3356 109.723 77.3935 109.771C77.3567 109.987 77.2725 110.244 77.5041 110.234C77.5567 110.229 77.6304 110.208 77.7252 110.176C77.741 110.123 77.741 110.076 77.741 110.034C77.7673 110.05 77.7936 110.065 77.8146 110.081C77.8252 110.123 77.8304 110.165 77.8515 110.202C78.0831 110.666 77.3146 110.329 77.7725 110.813C78.0778 110.792 78.141 110.529 78.1357 110.292C78.241 110.355 78.3516 110.408 78.4568 110.466C78.5516 110.797 78.5621 111.16 79.0201 110.95C79.1569 111.234 78.6779 111.681 78.7937 111.155C78.5779 111.308 77.8883 110.766 78.2937 111.245C78.6463 111.55 78.6674 111.671 78.1831 111.739C77.8883 111.776 77.6883 111.866 77.5041 111.981C77.2988 112.108 77.1093 112.26 76.8145 112.387C76.2513 112.482 75.5512 112.803 75.6512 113.434C75.646 114.192 75.467 114.95 75.2564 115.687C75.2617 116.129 75.3512 116.808 75.6933 116.645C76.1671 116.719 76.4408 115.666 76.1408 115.24C76.1671 114.519 76.3671 113.682 76.7408 113.087C76.9672 112.924 77.2304 112.861 77.5041 112.829C78.0884 112.761 78.7148 112.839 79.1517 112.45C79.5517 112.497 80.1255 112.787 80.1939 112.124C80.5413 112.213 80.3097 112.561 80.4571 112.761L80.4518 122.13C79.5412 121.267 78.5516 120.509 77.5041 119.846C73.193 117.093 67.8871 115.84 62.9917 114.698C62.5864 114.603 62.1916 114.508 61.8074 114.419C58.5543 113.645 55.833 112.913 53.6958 111.945C50.0691 110.313 48.1215 108.002 48.1372 103.659V69.9394ZM80.4676 106.439C80.4623 106.381 80.5624 106.354 80.5676 106.354C80.6255 106.349 80.6676 106.391 80.6676 106.433C80.6676 106.491 80.5782 106.66 80.5308 106.665C80.5045 106.67 80.4887 106.655 80.4729 106.628V106.439H80.4676ZM81.194 105.981C80.7308 105.954 80.815 105.491 80.2465 105.575C79.7991 105.449 79.9833 104.833 80.2571 105.375C80.7203 105.439 81.1572 105.428 81.6257 105.249C81.9467 105.36 83.0258 105.339 82.1783 105.154C81.8783 104.717 83.3522 105.602 82.8469 104.891C82.2942 104.749 82.6679 104.365 82.9679 104.812C83.0206 104.059 82.2047 103.359 81.7573 102.975C81.2572 102.696 82.3573 102.928 81.8941 102.422C81.5098 101.907 80.9729 101.575 80.2834 101.596C80.236 101.596 80.1886 101.596 80.1413 101.601C79.6991 101.701 78.8516 101.88 78.7727 102.186C79.1464 102.207 79.9096 103.07 79.178 102.633C78.9832 102.364 77.7883 102.049 78.5253 102.575C78.7674 102.87 79.9307 103.317 78.9095 103.117C78.4516 102.986 77.9778 102.154 77.5672 102.349C77.7199 103.059 78.4989 103.475 79.2569 103.417C79.3254 103.823 78.5358 103.538 78.4568 103.965C78.4095 104.102 78.4674 104.56 78.041 104.365C77.862 104.591 78.6674 104.844 78.0673 104.854C77.8883 105.112 78.1305 105.444 77.662 105.36C77.7831 105.56 77.6515 105.57 77.5041 105.565C77.3251 105.565 77.1304 105.544 77.3567 105.839C77.741 106.112 76.7829 106.739 77.4041 106.612C77.4409 106.591 77.4778 106.549 77.5041 106.502C77.6988 106.165 77.6725 105.339 77.7936 106.033C78.1252 106.386 77.4883 106.66 77.7936 107.039C77.7515 107.165 77.7094 107.223 77.6778 107.249C77.7462 107.249 77.7199 107.276 77.7831 107.297V107.46C77.7831 107.46 77.7515 107.491 77.7567 107.523C77.7567 107.565 77.862 107.555 77.8673 107.639C77.8673 107.681 77.8041 107.807 77.8041 107.839C77.8041 107.897 77.8989 107.87 77.9041 107.97C77.9041 108.002 77.8357 108.139 77.841 108.17C77.841 108.213 77.8673 108.239 77.8673 108.27V108.355C77.8673 108.355 77.8568 108.371 77.8252 108.376C77.7936 108.376 77.762 108.371 77.7357 108.349C77.7304 108.381 77.7252 108.413 77.7199 108.449C78.1252 108.765 77.8252 109.281 77.7883 109.765C77.6883 109.686 77.5936 109.602 77.5041 109.513C77.4778 109.492 77.4567 109.465 77.4304 109.444C77.3199 109.286 77.2672 109.118 77.5041 108.855C77.5093 108.85 77.5146 108.839 77.5199 108.834L77.5041 108.818C77.3567 108.671 77.4093 108.428 77.5041 108.265C77.5357 108.202 77.5778 108.155 77.6146 108.123C77.5883 108.018 77.5778 107.923 77.5778 107.918C77.562 107.902 77.5304 107.907 77.5041 107.902C77.5041 107.902 77.5006 107.9 77.4936 107.897C77.4936 107.897 77.4409 107.828 77.4409 107.797C77.4357 107.728 77.4672 107.655 77.5041 107.581C77.5357 107.518 77.5725 107.449 77.5988 107.376C77.6041 107.36 77.5936 107.312 77.6041 107.286C77.6146 107.27 77.6199 107.265 77.6304 107.26C77.5725 107.244 77.5357 107.128 77.5041 107.102C77.4988 107.097 77.4936 107.097 77.4883 107.097C77.4725 107.102 77.4567 107.144 77.4462 107.244C77.0935 107.381 77.6567 107.691 77.1725 107.655C77.2462 108.028 77.5304 108.228 76.9409 108.149C76.6408 108.555 77.4567 108.002 77.1777 108.471C77.3251 108.639 77.2409 108.928 77.1672 109.176C76.7987 108.781 76.4776 108.344 76.225 107.87C75.7512 106.991 75.5091 106.007 75.4986 105.028C75.488 104.396 75.5723 103.77 75.7512 103.17C75.8512 102.828 75.9881 102.491 76.146 102.17C76.4829 101.485 76.9461 100.864 77.5041 100.348C77.8462 100.033 78.2252 99.7536 78.6305 99.522C79.199 99.1904 79.8202 98.9641 80.4623 98.8325C81.2467 98.6693 82.0573 98.6588 82.8469 98.8009C82.9732 98.8272 83.1048 98.8483 83.2311 98.8798C84.0944 99.0851 84.9155 99.4904 85.6156 100.043C86.1788 100.491 86.6737 101.033 87.0526 101.659C87.0895 101.712 87.1158 101.775 87.1474 101.833C87.6685 102.738 87.9528 103.775 87.9738 104.828C87.9738 105.291 87.9422 105.754 87.8475 106.207C87.3053 106.128 86.7631 106.618 86.2578 106.36C86.0315 106.365 85.8209 106.433 85.6156 106.518C85.2524 106.649 84.8997 106.823 84.4839 106.744C83.7996 107.165 82.9995 106.518 82.2731 106.633C81.773 106.707 80.8361 106.676 81.194 105.981ZM80.2623 106.107C80.2571 106.075 80.236 106.039 80.2097 106.007C80.2097 106.007 80.2044 106.007 80.2044 105.965C80.2044 105.939 80.2465 105.86 80.2834 105.854C80.3308 105.854 80.3992 106.033 80.3992 106.033C80.4044 106.107 80.3834 106.197 80.3255 106.202C80.2939 106.207 80.2781 106.191 80.2623 106.181C80.2623 106.149 80.2728 106.133 80.2623 106.107ZM80.9256 103.57C80.9835 103.596 81.0624 103.601 81.1309 103.623C81.1782 103.649 81.5046 103.849 81.5099 103.954C81.5099 104.012 81.4625 104.017 81.4519 104.017C81.4256 104.017 81.3414 103.97 81.2888 103.959C81.2045 103.938 81.1098 103.975 81.0308 103.944C80.9308 103.891 80.8466 103.77 80.8571 103.68C80.8203 103.654 80.6887 103.591 80.6887 103.549C80.6834 103.523 80.7097 103.491 80.7413 103.486C80.7729 103.486 80.8677 103.549 80.9256 103.57ZM80.815 102.833C80.815 102.775 80.9624 102.743 80.9677 102.743C80.9887 102.743 81.0045 102.747 81.0151 102.754C81.0519 102.765 81.1782 102.87 81.1782 102.917C81.1835 102.975 81.1361 102.996 81.1151 102.996C81.0466 103.001 81.0098 102.917 80.9887 102.875C80.9414 102.865 80.8992 102.886 80.8466 102.891C80.8361 102.875 80.815 102.865 80.815 102.833ZM78.3989 105.57C78.3989 105.596 78.3884 105.612 78.3726 105.628C78.3042 105.649 78.1831 105.691 78.1094 105.712C78.0357 105.691 78.0831 105.644 78.062 105.602C78.041 105.575 78.0199 105.575 77.9936 105.565C77.962 105.565 77.9305 105.47 77.9305 105.47C77.9305 105.423 77.9357 105.339 78.0199 105.328C78.0463 105.323 78.0936 105.381 78.1252 105.375C78.1515 105.375 78.2042 105.312 78.2305 105.307C78.2831 105.307 78.2937 105.36 78.2937 105.36C78.2989 105.402 78.2726 105.423 78.2779 105.449C78.2779 105.507 78.3937 105.496 78.3989 105.57ZM78.1147 106.576C78.0147 106.586 77.9568 106.507 77.9515 106.449C77.9515 106.386 78.0515 106.191 78.1568 106.181C78.1831 106.175 78.1779 106.175 78.1936 106.186C78.2463 106.212 78.2252 106.276 78.241 106.318C78.2989 106.37 78.4253 106.254 78.4305 106.37C78.4305 106.47 78.1252 106.576 78.1147 106.576ZM78.4516 107.365C78.4884 107.376 78.5253 107.344 78.5621 107.339C78.599 107.349 78.6358 107.376 78.6674 107.37C78.699 107.37 78.7621 107.318 78.8042 107.318C78.8411 107.297 78.9095 107.276 78.9411 107.286H79.0306C79.0306 107.286 79.0201 107.339 79.0043 107.381C78.8464 107.46 78.8516 107.544 78.7306 107.56C78.699 107.56 78.6779 107.549 78.6516 107.549C78.5832 107.555 78.5621 107.691 78.4463 107.702C78.42 107.702 78.3674 107.665 78.3358 107.665C78.3042 107.67 78.2779 107.702 78.2515 107.707C78.1726 107.707 78.0936 107.649 78.0936 107.56C78.0884 107.428 78.1673 107.334 78.3042 107.318C78.3726 107.318 78.3463 107.334 78.4516 107.365ZM77.9778 109.46C78.0568 109.45 78.0884 109.507 78.141 109.502C78.2147 109.492 78.1726 109.365 78.3042 109.355C78.3147 109.355 78.3252 109.355 78.3305 109.355C78.3621 109.355 78.3884 109.355 78.4253 109.392C78.4305 109.434 78.4252 109.492 78.4516 109.518C78.4779 109.56 78.5253 109.618 78.5253 109.644C78.5253 109.702 78.4831 109.708 78.4516 109.713C78.42 109.713 78.4095 109.697 78.3831 109.702C78.3516 109.702 78.2779 109.786 78.2515 109.786C78.1515 109.797 78.1463 109.665 78.0831 109.613C78.0305 109.586 77.9462 109.581 77.8726 109.55V109.502C77.9041 109.486 77.9462 109.465 77.9778 109.465V109.46ZM78.6095 109.823H78.62C78.72 109.823 78.6937 109.944 78.7885 109.939C78.82 109.934 78.9043 109.865 78.9358 109.86C79.0359 109.855 79.0885 110.039 79.0938 110.097C79.0938 110.139 79.0622 110.218 79.0253 110.218C78.9516 110.229 78.8832 110.16 78.8569 110.118H78.8253C78.7253 110.25 78.7621 110.292 78.6569 110.302C78.5568 110.302 78.5042 110.108 78.5042 110.05C78.5042 110.023 78.5042 109.834 78.6095 109.823ZM78.6148 109.176C78.6148 109.118 78.6253 109.013 78.7095 109.007C78.7832 108.997 78.7621 109.134 78.8306 109.128C78.8569 109.123 78.9043 109.076 78.9358 109.076C78.9937 109.071 79.0569 109.092 79.0569 109.15C79.0569 109.165 79.0359 109.255 78.9885 109.286C78.9569 109.286 78.9095 109.281 78.8779 109.297C78.8516 109.313 78.8253 109.334 78.7937 109.334C78.699 109.344 78.62 109.25 78.6148 109.176ZM78.9095 108.344C78.9095 108.344 78.8516 108.392 78.8306 108.392C78.7937 108.413 78.7253 108.434 78.699 108.439C78.6674 108.444 78.5884 108.434 78.5568 108.439C78.4779 108.444 78.4621 108.576 78.3516 108.586C78.2515 108.597 78.1884 108.528 78.1831 108.455C78.1831 108.371 78.3305 108.123 78.4095 108.113C78.5147 108.102 78.52 108.249 78.52 108.292C78.5516 108.307 78.5937 108.302 78.62 108.297C78.6569 108.297 78.7253 108.17 78.8306 108.16C78.8621 108.16 78.9411 108.197 78.9937 108.192L79.278 108.06C79.278 108.06 79.3096 108.07 79.3254 108.07C79.3254 108.081 79.3412 108.07 79.3412 108.097C79.3412 108.155 79.2043 108.213 79.1938 108.228C79.1832 108.228 79.1674 108.276 79.1359 108.292C79.0674 108.313 78.9832 108.307 78.9095 108.344ZM79.3517 108.844C79.3938 108.844 79.5517 108.897 79.5833 108.892C79.6149 108.892 79.6465 108.871 79.6833 108.855C79.6991 108.865 79.7149 108.881 79.7149 108.907C79.7202 108.981 79.5728 109.013 79.557 109.013C79.5254 109.013 79.4727 109.007 79.4464 109.013C79.4148 109.013 79.3148 109.081 79.2833 109.081C79.2517 109.086 79.1569 109.065 79.1569 109.023C79.1569 108.95 79.2833 108.85 79.3464 108.844H79.3517ZM79.6728 104.891C79.5728 104.902 79.5359 104.728 79.5359 104.712C79.5359 104.686 79.5622 104.623 79.5622 104.591C79.557 104.549 79.5464 104.507 79.5517 104.481C79.5517 104.465 79.5675 104.449 79.5991 104.444C79.6991 104.438 79.7201 104.591 79.7201 104.623C79.7254 104.649 79.6991 104.712 79.7044 104.744C79.7044 104.77 79.7254 104.796 79.7307 104.828C79.7307 104.87 79.6833 104.891 79.6728 104.891ZM75.3143 95.4478V94.6741C75.3143 94.4846 75.4459 94.3266 75.6091 94.3319C75.767 94.3319 75.8986 94.4793 75.8986 94.6741V95.4478H75.3143ZM76.146 100.738V92.458C76.5829 92.6791 77.0356 92.8738 77.5041 93.0317C78.441 93.3739 79.4359 93.595 80.4623 93.695V98.0534C79.6833 98.185 78.9201 98.4377 78.2358 98.8377C77.9778 98.9851 77.7357 99.1483 77.5041 99.3273C76.983 99.7273 76.5303 100.206 76.146 100.738ZM82.8469 98.0797V93.695C83.8049 93.6002 84.7366 93.3949 85.6156 93.0949C86.142 92.9159 86.6579 92.7001 87.1474 92.4527V101.043C86.7368 100.401 86.221 99.8273 85.6156 99.3536C84.9629 98.843 84.2155 98.4535 83.4101 98.2166C83.2259 98.164 83.0364 98.1219 82.8469 98.0797ZM87.6475 98.2377V97.7165C87.6475 97.4323 87.8791 97.2007 88.1633 97.2007C88.4476 97.2007 88.6792 97.4323 88.6792 97.7165V98.2377H87.6475ZM87.6053 110.313C87.6053 110.344 87.6106 110.387 87.5527 110.392C87.4948 110.397 87.3211 110.265 87.3211 110.192C87.3211 110.165 87.3369 110.181 87.3369 110.165C87.3474 110.15 87.3527 110.15 87.379 110.144C87.4106 110.144 87.4527 110.171 87.4685 110.181C87.4948 110.192 87.5001 110.223 87.5317 110.25C87.5422 110.244 87.558 110.244 87.5843 110.26C87.6001 110.271 87.6053 110.287 87.6053 110.313ZM86.2999 109.297C86.2999 109.255 86.3315 109.239 86.3631 109.234C86.3736 109.234 86.3894 109.229 86.3999 109.229C86.4157 109.229 86.4263 109.239 86.4315 109.244C86.4947 109.281 86.5368 109.365 86.5842 109.418C86.6 109.429 86.6157 109.471 86.621 109.502C86.621 109.529 86.5947 109.565 86.5947 109.592C86.5947 109.623 86.6263 109.692 86.6263 109.734C86.6263 109.781 86.5736 109.918 86.5315 109.918C86.442 109.929 86.3789 109.771 86.3789 109.744C86.3789 109.713 86.4157 109.523 86.4105 109.492C86.4105 109.407 86.3052 109.429 86.2999 109.297ZM85.5525 110.734C85.5525 110.734 85.4367 110.876 85.3998 110.95C85.384 110.955 85.384 110.966 85.3524 110.971C85.3261 110.976 85.2787 110.934 85.2787 110.918C85.2787 110.844 85.2577 110.744 85.2577 110.713C85.2524 110.687 85.2682 110.597 85.3261 110.592C85.3577 110.587 85.4156 110.66 85.4472 110.671C85.463 110.681 85.5051 110.676 85.5209 110.676C85.5367 110.692 85.5472 110.702 85.5525 110.734ZM84.8576 110.708C84.8629 110.781 84.7471 110.881 84.705 110.887C84.6629 110.892 84.6313 110.823 84.6313 110.808C84.6313 110.781 84.6629 110.644 84.726 110.623C84.7313 110.623 84.7366 110.618 84.7366 110.618H84.7471C84.8155 110.618 84.8576 110.666 84.8576 110.708ZM83.9417 110.113C83.9417 110.171 83.9154 110.229 83.8575 110.234C83.768 110.244 83.7364 110.144 83.7312 110.087C83.7312 110.044 83.7417 109.881 83.8417 109.871C83.8996 109.865 83.9207 109.965 83.9207 109.981C83.9259 110.008 83.8891 109.997 83.8944 110.029C83.8944 110.055 83.9417 110.081 83.9417 110.113ZM83.8207 111.118C83.847 111.087 83.8733 111.039 83.8996 111.008C83.8996 110.992 83.9312 110.992 83.9628 110.987C84.0365 110.981 84.0365 111.097 84.0417 111.113C84.047 111.313 83.868 111.229 83.847 111.455C83.8312 111.466 83.8049 111.487 83.7733 111.487C83.6733 111.497 83.6522 111.381 83.6522 111.366C83.6522 111.339 83.6627 111.281 83.6785 111.25C83.7207 111.202 83.7786 111.166 83.8207 111.118ZM83.2627 110.802C83.2627 110.744 83.2943 110.466 83.4575 110.45C83.4838 110.45 83.4996 110.46 83.4996 110.492C83.4996 110.518 83.4469 110.613 83.4469 110.639C83.4522 110.671 83.5575 110.85 83.5575 110.876C83.5575 110.908 83.5312 110.971 83.5206 110.997C83.489 111.034 83.3522 111.234 83.3101 111.239C83.2364 111.245 83.2153 111.102 83.2153 111.102C83.2153 111.06 83.2995 110.934 83.2995 110.902C83.2943 110.876 83.268 110.834 83.2627 110.802ZM82.8995 111.676C82.91 111.645 82.9416 111.629 82.9732 111.624H82.9837C83.0785 111.624 83.1943 111.771 83.1995 111.85C83.2048 111.939 83.089 111.992 83.0732 111.997C83.0469 111.997 82.9995 111.971 82.9679 111.976C82.9469 111.976 82.8784 112.024 82.8363 112.039V111.845C82.8363 111.845 82.8469 111.834 82.8626 111.824C82.9153 111.776 82.8732 111.724 82.8995 111.676ZM82.331 111.176C82.252 111.187 82.1678 111.197 82.0941 111.197C82.0941 111.118 82.1205 110.992 82.2152 110.981C82.231 110.976 82.252 110.976 82.2678 110.976C82.3152 110.981 82.3468 110.997 82.3468 111.039C82.3468 111.071 82.3205 111.134 82.3257 111.16C82.3257 111.16 82.331 111.171 82.331 111.176ZM82.8311 122.125V112.95C82.8942 112.934 83.0521 112.866 83.0469 112.771C83.0469 112.745 83.0311 112.761 83.0153 112.745C82.9679 112.813 82.91 112.861 82.8363 112.876V112.366C82.8679 112.392 82.8995 112.418 82.9258 112.455C83.1364 112.345 83.2838 112.192 83.4206 112.045C83.4259 112.06 83.4311 112.076 83.4311 112.092H83.489C83.5733 112.018 83.7049 111.95 83.7786 111.939C83.8049 111.939 83.8365 111.95 83.868 111.95C83.7943 111.924 83.668 111.866 83.6417 111.866C83.6312 111.866 83.6048 111.876 83.5733 111.887C83.768 111.692 83.9838 111.555 84.3786 111.645C84.7945 111.839 83.6417 112.15 84.4629 112.024C84.6734 111.818 84.8892 110.697 84.905 111.376C84.9419 111.313 85.0419 111.287 85.0998 111.213C85.0998 111.181 85.0998 111.139 85.0945 111.113C85.0945 111.081 85.1524 111.05 85.184 111.045C85.2261 111.039 85.3472 111.118 85.3472 111.176C85.3524 111.26 85.1524 111.397 85.1524 111.413C85.1524 111.445 85.2156 111.539 85.2156 111.571C85.2156 111.597 85.205 111.587 85.205 111.597C85.205 111.597 85.191 111.604 85.1629 111.618C85.1103 111.618 84.9471 111.571 84.8997 111.481C84.7155 111.834 85.2893 111.834 85.1208 112.045C85.2945 111.866 85.3735 111.681 85.6156 111.739C85.6472 111.75 85.6788 111.76 85.7209 111.781C86.2841 111.634 85.9315 110.966 86.3473 110.592C86.0894 110.555 85.9104 109.881 86.1789 109.892C86.321 109.623 86.7316 110.913 86.7105 110.102C87.2632 109.892 86.7737 110.844 87.3211 110.792C87.3843 110.813 87.4316 110.85 87.4632 110.892C87.4738 110.866 87.479 110.85 87.479 110.839C87.479 110.808 87.4632 110.808 87.4632 110.797C87.4159 110.755 87.3264 110.75 87.3264 110.676C87.3579 110.618 87.3895 110.613 87.4264 110.608H87.4685C87.6738 110.587 87.7054 110.666 87.7106 110.813C87.7106 110.96 87.6632 111.081 87.6159 111.234H87.5527C87.5527 111.234 87.5422 111.229 87.5369 111.223C87.5317 111.476 87.4895 111.724 87.9106 111.65C87.9106 111.629 87.9212 111.608 87.9317 111.587C87.858 111.534 87.758 111.571 87.7527 111.471C87.7527 111.397 87.8527 111.376 87.8949 111.371C87.9685 111.36 88.0317 111.413 88.0738 111.408C88.1054 111.408 88.1896 111.381 88.2317 111.366C88.2633 111.35 88.3054 111.313 88.316 111.281C88.316 111.271 88.316 111.223 88.3265 111.192C88.3265 111.192 88.3581 111.166 88.3897 111.16C88.4633 111.155 88.537 111.234 88.537 111.276L88.5476 111.497C88.5055 111.545 88.4633 111.576 88.4318 111.581C88.4054 111.581 88.316 111.56 88.2844 111.566C88.2581 111.566 88.2581 111.597 88.2265 111.613C88.2896 111.681 88.4212 111.713 88.4265 111.829C88.4265 111.86 88.3897 111.924 88.3897 111.95C88.3897 111.981 88.4528 112.076 88.4528 112.103C88.4528 112.134 88.416 112.239 88.4002 112.313C88.3739 112.334 88.3475 112.35 88.316 112.355C88.2581 112.36 88.237 112.255 88.237 112.245C88.237 112.213 88.2528 112.197 88.2528 112.171C88.2054 112.171 88.137 112.197 88.1054 112.155C88.0949 112.145 88.0791 112.134 88.0686 112.124C88.0317 112.182 87.9475 112.15 87.837 111.897C87.1632 112.245 87.3895 111.255 87.079 111.066C86.8789 110.887 86.7421 110.587 86.5105 110.987C86.6 111.187 86.8526 111.887 86.8263 111.218C87.558 111.292 86.8631 112.508 87.7948 112.329C87.9791 112.739 88.5949 112.229 88.8266 112.708C89.3108 112.471 89.295 112.676 89.2792 113.029C89.5635 112.129 89.5319 113.54 89.6898 113.798C89.8109 114.503 89.6477 115.266 89.4951 115.966C89.4793 116.35 88.5318 116.872 89.3793 116.898C90.0846 116.929 90.3899 116.25 90.3636 115.714C90.2846 114.829 90.5952 113.934 90.9268 113.103C90.8584 112.487 90.3952 111.981 90.6952 111.345C90.6847 110.66 91.2637 110.192 90.89 109.565C91.1637 108.723 91.0532 109.876 91.3795 110.06C91.0742 110.476 91.0321 110.981 90.911 111.46C90.6847 111.85 91.111 112.661 90.9531 111.813C90.9163 111.45 91.2374 111.102 91.3321 110.723C91.6427 111.092 90.911 112.092 91.4269 112.371C91.8217 112.139 91.49 111.781 91.8111 111.397C91.7217 110.834 92.1796 110.208 91.748 109.66C92.0533 109.081 91.3795 108.692 91.4216 108.139C91.2058 107.534 90.4689 107.16 90.1267 106.612C89.4951 106.333 88.8423 106.075 88.1212 106.297C88.0686 106.265 88.0159 106.254 87.958 106.239C88.0791 105.775 88.1528 105.307 88.1686 104.828H93.2587V101.343C93.2587 100.359 93.9272 99.4431 94.8957 99.2694C96.1696 99.0378 97.2802 100.012 97.2802 101.243V104.828H100.596V101.243C100.596 100.627 100.875 100.075 101.312 99.7063C101.66 99.4115 102.112 99.2325 102.602 99.2325C103.713 99.2325 104.613 100.133 104.613 101.243V104.828H110.624V90.6104H105.292V95.9847H102.539V92.9528H95.2695V95.9847H92.4796V90.6104H89.8583C89.9372 90.5367 90.0162 90.463 90.0951 90.3893H92.4796V90.1682H90.3267C90.4004 90.0998 90.4689 90.0261 90.5373 89.9524H92.4796L91.8638 88.3206C93.2008 86.352 93.9798 83.9727 93.9798 81.4198C93.9798 76.2086 90.7321 71.7449 86.1578 69.9394H115.14V103.659C115.14 108.049 113.14 110.365 109.424 112.003C107.276 112.95 104.555 113.676 101.312 114.455C100.97 114.534 100.623 114.613 100.27 114.698C95.3221 115.856 89.953 117.119 85.6156 119.94C84.626 120.583 83.6943 121.304 82.8311 122.125ZM88.9266 112.292C88.9266 112.292 88.9634 112.35 88.9634 112.376C88.9687 112.45 88.8634 112.492 88.8318 112.492C88.8055 112.497 88.7423 112.487 88.7318 112.455C88.6686 112.376 88.5739 112.224 88.5739 112.192C88.5739 112.166 88.6002 112.092 88.6739 112.082C88.7002 112.082 88.7581 112.081 88.7897 112.118C88.8055 112.145 88.8213 112.187 88.8371 112.213C88.8423 112.245 88.9002 112.255 88.9266 112.292ZM88.8739 111.934C88.8687 111.892 88.9424 111.839 88.9739 111.834C89.0055 111.834 89.074 111.913 89.1213 111.955C89.1213 111.955 89.1371 111.981 89.1371 112.008C89.1424 112.039 89.1108 112.087 89.0845 112.087C89.0108 112.097 88.8739 111.95 88.8739 111.934ZM90.7215 108.392C90.7478 108.428 90.8373 108.465 90.8689 108.507C90.9426 108.571 90.9479 108.602 90.9479 108.676C90.9531 108.765 90.9058 108.792 90.8373 108.934C90.7952 108.981 90.8005 109.055 90.7584 109.118H90.7163C90.7163 109.118 90.6584 109.071 90.6531 109.039V108.881C90.6426 108.75 90.5057 108.602 90.5004 108.571C90.5004 108.544 90.5584 108.507 90.5899 108.492C90.5741 108.476 90.5583 108.465 90.5583 108.449C90.5478 108.213 90.4636 108.255 90.4531 108.092C90.4531 108.065 90.4741 107.844 90.5952 107.834C90.7268 107.818 90.7426 107.976 90.7478 108.034C90.7478 108.065 90.6689 108.249 90.6689 108.276C90.6689 108.307 90.7005 108.36 90.7215 108.392ZM89.1792 98.2377V97.7165C89.1792 97.4323 89.4108 97.2007 89.6951 97.2007C89.9793 97.2007 90.2109 97.4323 90.2109 97.7165V98.2377H89.1792ZM90.711 98.2377V97.7165C90.711 97.4323 90.9426 97.2007 91.2269 97.2007C91.5111 97.2007 91.748 97.4323 91.748 97.7165V98.2377H90.711ZM92.2428 98.2377V97.7165C92.2428 97.4323 92.4744 97.2007 92.7586 97.2007C93.0429 97.2007 93.2797 97.4323 93.2797 97.7165V98.2377H92.2428ZM93.7745 98.2377V97.7165C93.7745 97.4323 94.0062 97.2007 94.2904 97.2007C94.5746 97.2007 94.8062 97.4323 94.8062 97.7165V98.2377H93.7745ZM95.8222 97.2007C96.1117 97.2007 96.3433 97.4323 96.3433 97.7165V98.2377H95.3063V97.7165C95.3063 97.4323 95.5379 97.2007 95.8222 97.2007ZM95.7432 95.9847V94.1266C95.7432 93.7634 95.959 93.4686 96.2275 93.4686H96.3012C96.5696 93.4686 96.7854 93.7634 96.7854 94.1266V95.9847H95.7432ZM100.554 95.9847H99.1436V94.1266C99.1436 93.7634 99.4384 93.4686 99.8016 93.4686H99.9016C100.26 93.4686 100.554 93.7634 100.554 94.1266V95.9847ZM100.939 97.7165V98.2377H99.9016V97.7165C99.9016 97.4323 100.133 97.2007 100.417 97.2007C100.702 97.2007 100.939 97.4323 100.939 97.7165ZM99.4016 97.7165V98.2377H98.3699V97.7165C98.3699 97.4323 98.6015 97.2007 98.8857 97.2007C99.17 97.2007 99.4016 97.4323 99.4016 97.7165ZM98.6699 95.9847H97.2592V94.1266C97.2592 93.7634 97.554 93.4686 97.9172 93.4686H98.0119C98.3751 93.4686 98.6699 93.7634 98.6699 94.1266V95.9847ZM97.3539 97.2007C97.6434 97.2007 97.8751 97.4323 97.8751 97.7165V98.2377H96.8381V97.7165C96.8381 97.4323 97.0697 97.2007 97.3539 97.2007ZM102.06 95.9847H101.028V94.1266C101.028 93.8582 101.144 93.6318 101.312 93.5265C101.37 93.4897 101.439 93.4686 101.507 93.4686H101.581C101.844 93.4686 102.06 93.7634 102.06 94.1266V95.9847ZM102.47 97.7165V98.2377H101.433V97.7165C101.433 97.4323 101.665 97.2007 101.949 97.2007C102.233 97.2007 102.47 97.4323 102.47 97.7165ZM102.965 98.2377V97.7165C102.965 97.4323 103.197 97.2007 103.481 97.2007C103.765 97.2007 103.997 97.4323 103.997 97.7165V98.2377H102.965ZM104.497 98.2377V97.7165C104.497 97.4323 104.729 97.2007 105.013 97.2007C105.297 97.2007 105.534 97.4323 105.534 97.7165V98.2377H104.497ZM106.029 98.2377V97.7165C106.029 97.4323 106.26 97.2007 106.545 97.2007C106.829 97.2007 107.066 97.4323 107.066 97.7165V98.2377H106.029ZM107.56 98.2377V97.7165C107.56 97.4323 107.792 97.2007 108.076 97.2007C108.361 97.2007 108.597 97.4323 108.597 97.7165V98.2377H107.56ZM109.092 98.2377V97.7165C109.092 97.4955 109.229 97.3112 109.424 97.2375C109.482 97.2112 109.545 97.2007 109.608 97.2007C109.898 97.2007 110.129 97.4323 110.129 97.7165V98.2377H109.092ZM90.9637 75.1295C92.1796 76.9245 92.885 79.0879 92.885 81.4145C92.885 83.3568 92.3954 85.1834 91.5322 86.7783C91.4848 86.8678 91.4374 86.952 91.3848 87.0415C90.7426 88.1522 89.9267 89.126 88.9634 89.9524C88.8792 90.0261 88.7897 90.0998 88.7002 90.1682C88.6107 90.2472 88.516 90.3156 88.4265 90.3893C88.3265 90.463 88.2212 90.542 88.1159 90.6104C87.8054 90.8315 87.479 91.0368 87.1474 91.2315C86.6579 91.5052 86.1473 91.7421 85.6156 91.9474C84.7418 92.2738 83.8154 92.4948 82.8469 92.5948C82.4521 92.6422 82.0468 92.6633 81.6414 92.6633C81.2361 92.6633 80.8519 92.6422 80.4676 92.6001C79.4306 92.4948 78.4358 92.2474 77.5041 91.879C77.0356 91.6947 76.5829 91.4789 76.146 91.2368C75.1775 90.6893 74.3037 90.0103 73.5404 89.2207C72.8403 88.4943 72.235 87.6732 71.7507 86.7783C71.3981 86.1361 71.1138 85.4571 70.898 84.7465C70.5664 83.6937 70.3927 82.5778 70.3927 81.4198C70.3927 80.2512 70.5716 79.13 70.898 78.072C71.2296 77.0192 71.7086 76.0296 72.314 75.1295C73.572 73.2608 75.3775 71.7975 77.5041 70.9606C78.441 70.5868 79.4359 70.3394 80.4781 70.2342C80.8624 70.192 81.2467 70.171 81.6414 70.171C82.0362 70.171 82.4573 70.192 82.8574 70.2394C83.8154 70.3394 84.7418 70.5658 85.6156 70.8974C87.8106 71.7185 89.674 73.2135 90.9637 75.1295ZM75.0722 94.6741V95.4478H74.4879V94.6741C74.4879 94.4846 74.6195 94.3266 74.7827 94.3319C74.9406 94.3319 75.0722 94.4793 75.0722 94.6741ZM74.2458 94.6741V95.4478H73.6615V94.6741C73.6615 94.4846 73.7931 94.3266 73.9563 94.3319C74.1142 94.3319 74.2458 94.4793 74.2458 94.6741ZM73.4194 94.6741V95.4478H72.8351V94.6741C72.8351 94.4846 72.9667 94.3266 73.1298 94.3319C73.2878 94.3319 73.4194 94.4793 73.4194 94.6741ZM72.5929 94.6741V95.4478H72.0087V94.6741C72.0087 94.4846 72.1403 94.3266 72.2982 94.3319C72.4613 94.3319 72.5929 94.4793 72.5929 94.6741ZM70.3558 89.2207V87.81C70.3558 87.5626 70.4927 87.2837 70.7032 87.1205C71.0243 87.7363 71.3981 88.3206 71.8139 88.8681V89.2207H70.3558ZM71.7665 94.6741V95.4478H71.1822V94.6741C71.1822 94.4846 71.3138 94.3266 71.4717 94.3319C71.6349 94.3319 71.7665 94.4793 71.7665 94.6741ZM70.9401 94.6741V95.4478H70.3558V94.6741C70.3558 94.4846 70.4874 94.3266 70.6453 94.3319C70.8085 94.3319 70.9401 94.4793 70.9401 94.6741ZM70.1137 94.6741V95.4478H69.5294V94.6741C69.5294 94.4846 69.661 94.3266 69.8189 94.3319C69.9821 94.3319 70.1137 94.4793 70.1137 94.6741ZM69.282 94.6741V95.4478H68.703V94.6741C68.703 94.4846 68.8346 94.3266 68.9925 94.3319C69.1557 94.3319 69.282 94.4793 69.282 94.6741ZM68.4556 94.6741V95.4478H67.8766V94.6741C67.8766 94.4846 68.0029 94.3266 68.1661 94.3319C68.3292 94.3319 68.4556 94.4793 68.4556 94.6741ZM67.6292 94.6741V95.4478H67.0501V94.6741C67.0501 94.4846 67.1765 94.3266 67.3397 94.3319C67.5028 94.3319 67.6292 94.4793 67.6292 94.6741ZM65.3973 94.6741C65.3973 94.4846 65.5236 94.3266 65.6868 94.3319C65.85 94.3319 65.9763 94.4793 65.9763 94.6741V95.4478H65.3973V94.6741ZM65.2868 83.3937V81.983C65.2868 81.604 65.6131 81.146 66.0237 81.146C66.4343 81.146 66.7396 81.6198 66.7396 82.0041L66.7554 83.3937H65.2868ZM65.5868 90.184V86.8362H66.608V90.184H65.5868ZM66.2237 94.6741C66.2237 94.4846 66.3501 94.3266 66.5132 94.3319C66.6764 94.3319 66.8027 94.4793 66.8027 94.6741V95.4478H66.2237V94.6741ZM65.1499 94.6741V95.4478H64.5709V94.6741C64.5709 94.4846 64.6972 94.3266 64.8604 94.3319C65.0183 94.3319 65.1499 94.4793 65.1499 94.6741ZM64.3235 94.6741V95.4478H63.7392V94.6741C63.7392 94.4846 63.8708 94.3266 64.034 94.3319C64.1919 94.3319 64.3235 94.4793 64.3235 94.6741ZM62.1127 90.2209V86.8731H63.1339V90.2209H62.1127ZM62.6706 94.6741V95.4478H62.0864V94.6741C62.0864 94.4846 62.218 94.3266 62.3811 94.3319C62.5391 94.3319 62.6706 94.4793 62.6706 94.6741ZM62.9128 94.6741C62.9128 94.4846 63.0444 94.3266 63.2076 94.3319C63.3655 94.3319 63.4971 94.4793 63.4971 94.6741V95.4478H62.9128V94.6741ZM62.0916 83.3937V81.983C62.0916 81.604 62.418 81.146 62.8286 81.146C63.2391 81.146 63.5444 81.6198 63.5444 82.0041L63.5602 83.3937H62.0916ZM61.8442 94.6741V95.4478H61.2599V94.6741C61.2599 94.4846 61.3915 94.3266 61.5547 94.3319C61.66 94.3319 61.7547 94.4003 61.8074 94.5003C61.8284 94.553 61.8442 94.6109 61.8442 94.6741ZM61.0178 94.6741V95.4478H60.4335V94.6741C60.4335 94.4846 60.5651 94.3266 60.723 94.3319C60.8862 94.3319 61.0178 94.4793 61.0178 94.6741ZM60.1914 94.6741V95.4478H59.6071V94.6741C59.6071 94.4846 59.7387 94.3266 59.8966 94.3319C60.0598 94.3319 60.1914 94.4793 60.1914 94.6741ZM59.365 94.6741V95.4478H58.7807V94.6741C58.7807 94.4846 58.9123 94.3266 59.0702 94.3319C59.2334 94.3319 59.365 94.4793 59.365 94.6741ZM57.2015 89.2207V87.81C57.2015 87.431 57.5279 86.9731 57.9332 86.9731C58.3385 86.9731 58.6491 87.4468 58.6491 87.8258L58.6649 89.2207H57.2015ZM58.5386 94.6741V95.4478H57.9543V94.6741C57.9543 94.4846 58.0859 94.3266 58.2438 94.3319C58.407 94.3319 58.5386 94.4793 58.5386 94.6741ZM57.7121 94.6741V95.4478H57.1278V94.6741C57.1278 94.4846 57.2542 94.3266 57.4174 94.3319C57.5805 94.3319 57.7121 94.4793 57.7121 94.6741ZM56.8804 94.6741V95.4478H56.3014V94.6741C56.3014 94.4846 56.4278 94.3266 56.5909 94.3319C56.7541 94.3319 56.8804 94.4793 56.8804 94.6741ZM54.0169 89.2207V87.81C54.0169 87.431 54.3433 86.9731 54.7486 86.9731C55.1539 86.9731 55.4645 87.4468 55.4645 87.8258L55.4803 89.2207H54.0169ZM55.2276 94.6741V95.4478H54.6486V94.6741C54.6486 94.4846 54.7749 94.3266 54.9381 94.3319C55.096 94.3319 55.2276 94.4793 55.2276 94.6741ZM54.4012 94.6741V95.4478H53.8222V94.6741C53.8222 94.4846 53.9485 94.3266 54.1117 94.3319C54.2696 94.3319 54.4012 94.4793 54.4012 94.6741ZM55.475 94.6741C55.475 94.4846 55.6013 94.3266 55.7645 94.3319C55.9277 94.3319 56.054 94.4793 56.054 94.6741V95.4478H55.475V94.6741ZM53.5748 94.6741V95.4478H52.9905V94.6741C52.9905 94.4846 53.1221 94.3266 53.2853 94.3319C53.4432 94.3319 53.5748 94.4793 53.5748 94.6741ZM117.52 48.9947C125.278 57.5694 130 68.9393 130 81.4145C130 108.128 108.35 129.778 81.6414 129.778C54.9328 129.778 33.2775 108.128 33.2775 81.4145C33.2775 68.9393 37.9991 57.5694 45.758 48.9947V103.659C45.7369 109.718 49.0321 112.661 53.6958 114.529V118.098C56.2067 120.014 58.9228 121.683 61.8074 123.057V116.861C67.3397 118.161 73.2193 119.446 77.5041 122.73V127.341C78.8674 127.462 80.2465 127.531 81.6414 127.531C83.0364 127.531 84.3049 127.468 85.6156 127.357V122.851C89.874 119.503 95.759 118.198 101.312 116.898V123.13C104.192 121.767 106.908 120.119 109.424 118.219V114.582C114.156 112.718 117.52 109.771 117.52 103.659V48.9947ZM115.14 41.9096V49.5947C113.924 49.3789 112.293 50.1316 111.514 51.7739C110.95 52.853 110.629 53.9742 110.598 55.2007C111.619 55.2007 111.619 55.1954 111.619 55.1954C111.845 54.569 112.877 53.0057 113.64 52.9794C114.114 53.232 113.524 54.5375 113.419 54.9059C114.056 54.848 114.64 54.6533 115.14 54.348V67.5601H97.8382C98.1067 65.5757 97.1171 64.0386 95.8169 62.5016L95.7327 62.3963L95.6485 62.4963C94.3009 63.9492 93.3745 65.6231 93.6219 67.5601H70.1979C70.4611 65.5757 69.4768 64.0386 68.1713 62.5016L68.0871 62.3963L68.0082 62.4963C66.6554 63.9492 65.7289 65.6231 65.9763 67.5601H48.1372V54.2427C48.6689 54.6111 49.3163 54.8375 50.027 54.9059C49.9164 54.5375 49.3321 53.232 49.8059 52.9794C50.5639 53.0057 51.5956 54.569 51.8219 55.1954C51.8219 55.1954 51.8219 55.2007 52.8431 55.2007C52.8168 53.9742 52.4957 52.853 51.9325 51.7739C51.1113 50.0527 49.3637 49.3105 48.1372 49.6316V41.9253C50.5007 41.6885 54.6328 41.299 59.565 40.92C60.2967 40.8673 61.0441 40.8147 61.8074 40.7568C63.3655 40.6462 64.9867 40.541 66.6396 40.4409C66.6975 40.8305 66.8291 41.2726 67.0449 41.6832C67.266 42.0938 67.5765 42.4675 67.9924 42.7202L68.0871 42.7781L68.1871 42.7202C69.082 42.1148 69.4768 41.0989 69.561 40.2778C69.9189 40.262 70.2769 40.2462 70.6401 40.2304H70.6506C70.898 40.3041 71.1507 40.3673 71.3875 40.3988C71.9981 40.4725 73.3562 40.6199 73.1193 40.5252C72.9088 40.4462 72.6508 40.3094 72.3719 40.1462C74.0931 40.0777 75.8144 40.0198 77.5041 39.983C78.9095 39.9514 80.2939 39.9356 81.6414 39.9356C82.989 39.9356 84.2891 39.9462 85.6156 39.9777C87.5685 40.0093 89.5214 40.0672 91.4479 40.1462C91.1742 40.3094 90.9163 40.4462 90.7005 40.5252C90.4689 40.6199 91.8269 40.4725 92.4323 40.3988C92.6744 40.3673 92.9376 40.2988 93.185 40.2251H93.2008C93.5535 40.2409 93.9114 40.2567 94.2588 40.2725C94.3009 40.6726 94.422 41.1516 94.6431 41.5937C94.8642 42.0359 95.1852 42.4465 95.6327 42.7202L95.7327 42.7781L95.8274 42.7202C96.6696 42.1517 97.0697 41.2253 97.1802 40.4304H97.1855C98.6015 40.5146 99.9806 40.6041 101.312 40.6989C102.091 40.7515 102.855 40.8042 103.592 40.8621C108.655 41.2463 112.798 41.6569 115.14 41.9096ZM81.6414 33.0558C89.6898 33.0558 97.2802 35.0192 103.955 38.5039C98.5699 38.088 92.1112 37.709 85.6156 37.5932V35.4772C84.3049 35.3614 82.9785 35.3035 81.6414 35.3035C80.3044 35.3035 78.8674 35.3666 77.5041 35.4877V37.6038C71.298 37.7353 64.7499 38.1354 59.2228 38.5565C65.9237 35.0403 73.551 33.0558 81.6414 33.0558Z" fill="white"/>
<path d="M110.623 90.168H105.291V90.389H110.623V90.168Z" fill="white"/>
<path d="M107.955 82.8779C108.144 82.8779 108.302 82.72 108.302 82.5305C108.302 82.341 108.149 82.1831 107.955 82.1831C107.76 82.1831 107.607 82.341 107.607 82.5305C107.607 82.72 107.76 82.8779 107.955 82.8779L105.291 89.9525H110.623L107.96 82.8779H107.955Z" fill="white"/>
<path d="M102.538 79.1303L98.885 74.1507C99.0745 74.1507 99.2324 73.9928 99.2324 73.8033C99.2324 73.6665 99.1535 73.5507 99.0377 73.4928V72.3663H99.6377V72.0084H99.0377V71.2925H98.7429V72.0084H98.1428V72.3663H98.7429V73.4928C98.6218 73.5507 98.5429 73.6665 98.5429 73.8033C98.5429 73.9928 98.6955 74.1507 98.8903 74.1507L95.2793 79.1145L102.543 79.1303H102.538Z" fill="white"/>
<path d="M95.2588 92.732H102.528V88.6525L95.2588 88.6367V92.732ZM101.017 89.7579C101.017 89.3947 101.233 89.0999 101.496 89.0999H101.565C101.828 89.0999 102.044 89.3947 102.044 89.7579V92.2688H101.017V89.7579ZM99.133 89.7579C99.133 89.3947 99.4277 89.0999 99.7909 89.0999H99.8857C100.249 89.0999 100.544 89.3947 100.544 89.7579V92.2688H99.133V89.7579ZM97.2485 89.7579C97.2485 89.3947 97.5433 89.0999 97.9065 89.0999H98.0012C98.3644 89.0999 98.6592 89.3947 98.6592 89.7579V92.2688H97.2485V89.7579ZM95.7325 89.7579C95.7325 89.3947 95.9483 89.0999 96.2168 89.0999H96.2905C96.5589 89.0999 96.7748 89.3947 96.7748 89.7579V92.2688H95.7325V89.7579Z" fill="white"/>
<path d="M107.839 82.1832H108.07V81.0778H108.534V80.7988H108.07L108.076 80.2461H107.844V80.7988H107.381V81.0778H107.844L107.839 82.1832Z" fill="white"/>
<path d="M95.2695 88.4205L102.539 88.4363V84.2463L95.2695 84.2305V88.4205ZM101.028 86.3307L101.544 84.7463L102.06 86.3307V87.9151H101.033V86.3307H101.028ZM99.1437 86.3307L99.8491 84.7463L100.554 86.3307V87.9151H99.1437V86.3307ZM97.2593 86.3307L97.9646 84.7463L98.67 86.3307V87.9151H97.2593V86.3307ZM95.7433 86.3307L96.2644 84.7463L96.7855 86.3307V87.9151H95.7433V86.3307Z" fill="white"/>
<path d="M95.2695 83.9937L102.539 84.0095V79.8195L95.2695 79.8037V83.9937ZM101.028 81.9092L101.544 80.3248L102.06 81.9092V83.4936H101.033V81.9092H101.028ZM99.1437 81.9092L99.8491 80.3248L100.554 81.9092V83.4936H99.1437V81.9092ZM97.2593 81.9092L97.9646 80.3248L98.67 81.9092V83.4936H97.2593V81.9092ZM95.7433 81.9092L96.2644 80.3248L96.7855 81.9092V83.4936H95.7433V81.9092Z" fill="white"/>
<path d="M102.534 79.3511H95.2695V79.5879H102.534V79.3511Z" fill="white"/>
<path d="M77.3515 52.9792C78.1095 53.0055 79.1412 54.5742 79.3675 55.2006C79.3675 55.2006 79.3675 55.2006 80.3887 55.2006C80.3624 53.9741 80.0413 52.8529 79.4781 51.7738C77.9989 48.6629 73.4878 48.7366 74.4827 52.5423C74.8512 53.9425 76.0934 54.7689 77.5726 54.911C77.4673 54.5426 76.8777 53.2371 77.3515 52.9792Z" fill="white"/>
<path d="M83.7358 51.7738C83.1726 52.8529 82.8515 53.9741 82.8252 55.2005C83.8464 55.2005 83.8464 55.2005 83.8464 55.2005C84.0727 54.5741 85.1044 53.0108 85.8624 52.9792C86.3362 53.2371 85.7466 54.5373 85.6413 54.911C87.1205 54.7689 88.368 53.9477 88.7312 52.5423C89.7261 48.7418 85.215 48.6681 83.7358 51.7738Z" fill="white"/>
<path d="M80.7195 53.0424C80.9616 53.7373 81.0248 54.4689 80.9985 55.2006H82.2091C82.1512 54.4637 82.2776 53.7478 82.4881 53.0424C82.8618 51.9265 83.4251 50.8632 83.6619 49.7104C84.0988 47.5523 83.0724 45.9257 81.6933 44.3045L81.6091 44.1992L81.5248 44.2992C80.0931 45.8415 79.1351 47.6207 79.5509 49.7104C79.7772 50.8632 80.3299 51.9318 80.7195 53.0424Z" fill="white"/>
<path d="M78.736 55.8271H84.4577C84.7999 55.8271 85.0789 56.1061 85.0789 56.4483V56.9168C85.0789 57.2589 84.7999 57.5326 84.463 57.5326H78.7412C78.3991 57.5326 78.1201 57.2536 78.1201 56.9115V56.443C78.1201 56.1009 78.3991 55.8271 78.736 55.8271Z" fill="white"/>
<path d="M83.599 58.1641H79.5984C79.1826 58.8431 77.4719 60.0959 76.5665 60.4486C76.3296 60.5433 77.6877 60.3959 78.2983 60.317C79.0984 60.217 80.1354 59.7222 80.109 59.8959C80.109 60.696 80.4933 62.0277 81.4987 62.6383L81.5934 62.6962L81.6934 62.6383C82.6988 61.954 83.0778 60.7539 83.0831 59.8959C83.0568 59.7222 84.0937 60.217 84.8938 60.317C85.4992 60.3959 86.8625 60.538 86.6256 60.4486C85.7203 60.0906 84.0148 58.8431 83.5937 58.1641H83.599Z" fill="white"/>
<path d="M56.1909 51.7738C55.6277 52.8529 55.3066 53.9741 55.2803 55.2005C56.3015 55.2005 56.3015 55.2005 56.3015 55.2005C56.5278 54.5741 57.5595 53.0108 58.3175 52.9792C58.7912 53.2371 58.2017 54.5373 58.0964 54.911C59.5756 54.7689 60.8231 53.9477 61.1863 52.5423C62.1811 48.7418 57.67 48.6681 56.1909 51.7738Z" fill="white"/>
<path d="M53.4535 55.2006H54.6642C54.6063 54.4637 54.7326 53.7478 54.9432 53.0424C55.3169 51.9265 55.8802 50.8632 56.117 49.7104C56.5539 47.5523 55.5275 45.9257 54.1484 44.3045L54.0641 44.1992L53.9799 44.2992C52.5482 45.8415 51.5901 47.6207 52.006 49.7104C52.2323 50.8632 52.785 51.9318 53.1798 53.0424C53.4219 53.7373 53.4851 54.4689 53.4588 55.2006H53.4535Z" fill="white"/>
<path d="M51.1895 55.8271H56.9113C57.2534 55.8271 57.5271 56.1061 57.5271 56.443V56.9115C57.5271 57.2536 57.2481 57.5326 56.906 57.5326H51.1842C50.8421 57.5326 50.5684 57.2536 50.5684 56.9168V56.4483C50.5684 56.1061 50.8473 55.8271 51.1895 55.8271Z" fill="white"/>
<path d="M56.0482 58.1641H52.0477C51.6318 58.8431 49.9211 60.0959 49.0157 60.4486C48.7788 60.5433 50.1369 60.3959 50.7475 60.317C51.5476 60.217 52.5846 59.7222 52.5583 59.8959C52.5583 60.696 52.9425 62.0277 53.9479 62.6383L54.0427 62.6962L54.1427 62.6383C55.1481 61.954 55.5271 60.7539 55.5323 59.8959C55.506 59.7222 56.543 60.217 57.3431 60.317C57.9484 60.3959 59.3117 60.538 59.0749 60.4486C58.1695 60.0906 56.464 58.8431 56.0429 58.1641H56.0482Z" fill="white"/>
<path d="M102.254 52.5423C102.623 53.9425 103.865 54.7689 105.344 54.911C105.239 54.5426 104.649 53.2371 105.123 52.9792C105.881 53.0055 106.913 54.5742 107.139 55.2006C107.139 55.2006 107.139 55.2006 108.16 55.2006C108.134 53.9741 107.813 52.8529 107.25 51.7738C105.77 48.6629 101.259 48.7366 102.254 52.5423Z" fill="white"/>
<path d="M108.497 53.0424C108.739 53.7373 108.802 54.4689 108.776 55.2006H109.986C109.929 54.4637 110.055 53.7478 110.265 53.0424C110.639 51.9265 111.202 50.8632 111.439 49.7104C111.876 47.5523 110.85 45.9257 109.471 44.3045L109.386 44.1992L109.302 44.2992C107.87 45.8415 106.912 47.6207 107.328 49.7104C107.555 50.8632 108.107 51.9318 108.502 53.0424H108.497Z" fill="white"/>
<path d="M106.512 55.8271H112.234C112.576 55.8271 112.855 56.1061 112.855 56.4483V56.9168C112.855 57.2589 112.576 57.5326 112.239 57.5326H106.518C106.175 57.5326 105.896 57.2536 105.896 56.9115V56.443C105.896 56.1009 106.175 55.8271 106.512 55.8271Z" fill="white"/>
<path d="M111.371 58.1641H107.371C106.95 58.8431 105.244 60.0959 104.339 60.4486C104.102 60.5433 105.46 60.3959 106.071 60.317C106.871 60.217 107.908 59.7222 107.882 59.8959C107.882 60.696 108.266 62.0277 109.271 62.6383L109.366 62.6962L109.466 62.6383C110.471 61.954 110.85 60.7539 110.856 59.8959C110.829 59.7222 111.866 60.217 112.666 60.317C113.272 60.3959 114.635 60.538 114.398 60.4486C113.493 60.0906 111.787 58.8431 111.366 58.1641H111.371Z" fill="white"/>
</svg>
