<svg width="163" height="165" viewBox="0 0 163 165" fill="none" xmlns="http://www.w3.org/2000/svg">
<path d="M74.6274 83.7136C75.3825 88.2971 76.9749 92.7025 79.3223 96.7023C79.8551 97.6454 80.461 98.5455 81.1339 99.3903C81.8799 98.5517 82.5588 97.6515 83.1647 96.7023C85.5122 92.7025 87.1045 88.3002 87.8596 83.7136C88.4838 80.3589 88.84 76.9551 88.9283 73.542H73.5557C73.644 76.9551 74.0032 80.3558 74.6244 83.7136H74.6274ZM77.5473 76.9458H84.9245V78.9765H80.5371V82.2513H84.9611V84.2819H80.5371V88.1404H85.4878V90.1711H77.5473V76.9458Z" fill="white"/>
<path d="M80.1387 43.2149C78.6012 42.8001 76.9662 42.9537 75.5352 43.6542C75.7026 44.5788 75.9401 45.4912 76.2415 46.3791L80.1387 43.2149Z" fill="white"/>
<path d="M57.1695 69.2811C61.6666 68.4209 62.4277 66.1353 62.4277 66.1353C62.4277 66.1353 59.9798 65.4779 56.5728 68.2028C56.3749 62.369 52.9466 61.4351 52.9466 61.4351C52.9466 61.4351 51.5156 64.6546 55.8664 68.5131C51.5886 69.4286 50.5352 71.7511 50.5352 71.7511C50.5352 71.7511 52.8004 72.5928 56.2835 69.6651C61.4504 79.1762 67.0709 81.2253 69.7898 81.2253C69.7472 80.617 69.7472 80.0057 69.7898 79.3974H69.8629C66.4193 78.7769 61.9406 77.6586 57.1726 69.2811H57.1695Z" fill="white"/>
<path d="M106.61 68.5131C110.96 64.6546 109.529 61.4351 109.529 61.4351C109.529 61.4351 106.086 62.369 105.903 68.2028C102.496 65.4779 100.048 66.1353 100.048 66.1353C100.048 66.1353 100.809 68.4209 105.306 69.2811C100.557 77.6586 96.0598 78.7738 92.6162 79.3974H92.671C92.735 80.0057 92.735 80.617 92.671 81.2253C95.3169 81.2253 101.029 79.1762 106.196 69.6651C109.676 72.5928 111.944 71.7511 111.944 71.7511C111.944 71.7511 110.893 69.4286 106.613 68.5131H106.61Z" fill="white"/>
<path d="M81.2993 17.5508C45.7951 17.5508 17.0137 46.591 17.0137 82.4143C17.0137 118.238 45.7951 147.278 81.2993 147.278C116.803 147.278 145.585 118.238 145.585 82.4143V82.3959C145.545 46.591 116.785 17.5815 81.2993 17.5508ZM76.099 30.4289C77.1494 29.5134 80.1971 26.77 80.5412 26.4598C80.8852 26.77 83.9299 29.5134 84.9834 30.4289C85.5284 30.008 91.636 27.4121 91.636 27.4121H91.6726C91.6726 27.4121 89.9858 29.9005 88.9354 31.7284C88.2747 33.0371 87.9854 34.5055 88.1011 35.9709H73.0177C73.1456 34.5055 72.8564 33.034 72.1835 31.7284C71.1331 29.9711 69.3732 27.4121 69.4463 27.4121C69.5194 27.4121 75.557 30.0111 76.099 30.4289ZM133.641 90.5184C126.562 90.3095 119.589 88.7336 113.101 85.8735L113.083 85.8919C110.364 84.8505 111.996 86.7705 112.574 87.173C116.599 90.0638 128.437 98.1494 134.039 101.805C134.837 102.337 134.947 102.92 134.039 103.891C129.652 108.591 121.349 103.197 118.049 101.366C114.225 99.2062 105.087 92.2572 104.378 93.0068C104.107 93.2987 104.631 95.8976 110.251 101.99C109.679 102.567 109.073 103.111 108.44 103.618C108.44 103.618 111.177 106.893 112.991 108.942C113.734 109.746 115.583 111.504 115.948 111.412C116.31 111.319 118.74 108.613 119.574 108.613C120.083 108.594 121.206 109.399 122.04 108.923C123.173 108.677 124.354 108.846 125.377 109.399C126.665 110.001 126.409 113.021 126.065 111.685C125.721 110.349 123.164 110.385 121.879 111.885C121.209 112.591 120.384 113.132 119.468 113.458C118.615 113.642 118.289 113.897 118.615 114.115C120.073 114.628 121.474 115.301 122.786 116.127C123.112 116.766 122.969 116.987 123.112 117.316C125.052 118.01 125.523 118.616 124.924 120.591C124.753 121.092 124.543 121.574 124.29 122.035C124.001 121.503 124.108 119.768 122.296 119.365C122.113 119.328 121.788 119.602 121.444 119.602C119.955 119.169 118.588 118.397 117.437 117.353C117.02 116.732 117.129 117.718 117.437 118.324C118.977 121.178 118.652 122.88 118.289 123.006C117.927 123.135 117.726 122.876 117.492 123.426C116.94 125.131 115.765 126.563 114.209 127.432C114.809 126.062 115.098 124.575 115.062 123.079C114.773 122.932 114.535 123.135 114.191 122.932C113.74 122.237 113.485 121.436 113.448 120.609C113.485 119.42 114.118 119.036 114.118 118.324C114.06 117.792 113.887 117.279 113.61 116.825C113.171 117.66 112.641 118.447 112.032 119.165C110.601 120.683 110.854 121.03 109.368 120.428C109.079 120.299 107.085 123.592 107.085 123.592C106.689 122.64 106.552 121.599 106.686 120.576C106.832 120.007 107.374 119.697 107.755 119.276C108.135 118.855 107.085 118.235 107.59 117.448C110.474 114.649 110.745 115.62 111.487 113.789C111.978 112.564 111.015 111.74 110.002 110.515C107.481 107.498 107.392 107.498 105.903 105.667C105.307 106.088 104.96 106.49 104.092 107.129C101.282 102.957 98.8702 99.2093 96.2426 98.2201C93.6151 97.2309 92.4885 98.7884 92.4885 100.398C92.6164 103.234 98.2704 109.362 98.2704 109.362C100.249 111.307 102.07 113.411 103.708 115.654C104.18 116.456 104.491 117.347 104.616 118.268C104.74 119.54 104.661 120.827 104.381 122.075C104.165 123.264 103.909 124.197 103.909 124.197C103.909 124.197 103.057 121.144 102.877 120.778C102.332 119.737 102.225 120.778 101.409 122.827C100.712 124.437 99.881 125.985 98.925 127.454V122.222C98.8519 120.867 98.7423 119.039 98.1456 120.394C97.3753 121.869 96.5228 123.297 95.588 124.674C95.588 124.674 95.5698 123.595 95.4784 122.314C95.2623 120.136 94.8147 117.992 94.1357 115.912C93.7186 115.236 91.9435 111.906 89.6752 111.577C87.4069 111.249 87.2456 115.236 87.41 116.096C87.6657 117.543 88.0707 118.96 88.6248 120.321C88.841 120.741 90.5826 124.072 90.817 124.692C92.382 128.36 91.3194 132.63 88.226 135.119C88.0281 133.048 87.5592 131.011 86.8315 129.064C86.3778 128.406 85.7628 127.985 85.3092 128.624C84.1613 130.815 82.8003 132.888 81.2475 134.808C79.6947 132.888 78.3338 130.818 77.1859 128.624C76.7323 127.985 76.1172 128.406 75.6636 129.064C74.945 131.011 74.4914 133.048 74.3209 135.119C71.2457 132.584 70.2562 128.277 71.9095 124.637C72.1439 123.924 73.8855 120.686 74.1016 120.265C74.6527 118.904 75.0607 117.488 75.3165 116.041C75.4626 115.181 75.2617 111.175 73.0512 111.522C70.8408 111.869 69.0079 115.089 68.5907 115.857C67.8722 117.93 67.379 120.078 67.1232 122.259C67.0136 123.54 67.0136 124.618 67.0136 124.618C66.0819 123.242 65.2264 121.814 64.4561 120.339C63.841 118.984 63.6766 120.815 63.6766 122.167V127.417C62.7206 125.945 61.8833 124.397 61.1739 122.79C60.3762 120.741 60.2666 119.7 59.7246 120.741C59.5237 121.107 58.6925 124.161 58.6925 124.161C58.6925 124.161 58.4397 123.227 58.2205 122.038C57.9435 120.791 57.8582 119.506 57.9678 118.235C58.1109 117.313 58.4154 116.428 58.8751 115.62C60.5223 113.381 62.34 111.279 64.313 109.329C64.313 109.329 69.97 103.2 70.0948 100.364C70.0948 98.7178 68.88 97.1633 66.2342 98.1341C63.5883 99.1049 61.1952 102.871 58.3667 107.043C57.5324 106.404 57.1701 106.002 56.5551 105.581C55.0693 107.39 54.9779 107.356 52.4569 110.428C51.443 111.654 50.4627 112.478 50.9711 113.703C51.714 115.531 51.985 114.582 54.8683 117.362C55.3768 118.075 54.3233 118.698 54.7039 119.19C55.0845 119.682 55.6295 119.921 55.7726 120.489C55.9309 121.534 55.8061 122.603 55.4103 123.58C55.4103 123.58 53.416 120.287 53.1268 120.416C51.6227 120.984 51.8754 120.671 50.4627 119.153C49.872 118.425 49.3605 117.632 48.9403 116.794C48.6511 117.245 48.4714 117.758 48.4136 118.293C48.3953 119.006 49.1017 119.39 49.1017 120.579C49.0651 121.405 48.8094 122.21 48.3588 122.901C48.0147 123.049 47.7772 122.901 47.488 123.049C47.4515 124.545 47.7407 126.032 48.3405 127.402C46.7116 126.545 45.4755 125.082 44.897 123.322C44.6808 122.772 44.2454 122.956 44.1175 122.901C43.9896 122.846 43.4111 121.092 44.9518 118.219C45.3323 117.617 45.442 116.628 44.9518 117.248C43.8009 118.293 42.4308 119.061 40.9449 119.497C40.6009 119.497 40.2751 119.261 40.0742 119.261C38.2443 119.663 38.3874 121.402 38.0982 121.93C37.8363 121.473 37.6232 120.987 37.4649 120.486C36.9199 118.659 37.4649 117.98 39.2247 117.267C39.3708 116.938 39.1699 116.717 39.5505 116.078C40.8597 115.249 42.2603 114.576 43.7187 114.066C44.0444 113.848 43.6456 113.59 42.8662 113.408C41.9497 113.083 41.1246 112.542 40.4548 111.835C39.1669 110.336 36.6306 110.263 36.2683 111.636C35.906 113.009 35.6715 109.952 36.9564 109.35C37.9764 108.794 39.1608 108.625 40.2934 108.874C41.1094 109.35 42.2329 108.564 42.7596 108.564C43.5938 108.619 46.0052 111.27 46.4772 111.362C46.9491 111.455 48.6876 109.697 49.4335 108.892C51.2817 106.843 53.9671 103.569 53.9671 103.569C53.3368 103.059 52.731 102.515 52.1555 101.94C57.7943 95.8485 58.318 93.2526 58.047 92.9577C57.3223 92.1712 48.2035 99.1602 44.358 101.317C41.0759 103.145 32.773 108.542 28.3856 103.842C27.4783 102.871 27.5879 102.288 28.3856 101.756C33.9878 98.0972 45.8439 89.9931 49.8689 87.1238C50.4505 86.7214 52.0611 84.8013 49.3605 85.8428C42.8662 88.7059 35.8877 90.2819 28.8027 90.4877C21.3158 90.7243 18.3412 86.0424 20.8074 85.2376C21.803 84.9089 43.2163 78.7985 43.2163 78.7985C43.2163 78.7985 45.8804 77.7387 43.8861 77.5359C41.8918 77.3362 32.9892 77.4069 29.2016 75.8524C24.5615 73.9324 23.7455 69.7605 24.8324 69.7605C34.1522 70.2551 42.8875 70.0155 43.4325 70.0155H43.5969C43.5969 70.0155 44.7204 69.7421 43.7065 68.845C42.6926 67.948 35.9821 62.2954 34.5511 60.8515C30.8518 57.1005 33.3728 51.6138 33.9878 52.2006C38.3935 56.354 43.3015 59.9238 48.5993 62.8269C49.0895 62.9375 48.9616 61.8039 48.5993 60.999C47.281 59.2172 46.2123 57.2603 45.4267 55.1836C43.6334 48.3052 44.084 44.0074 47.8929 42.3792C48.5628 42.0874 48.8003 42.3792 49.7045 44.5757C50.6118 46.7723 50.9559 50.4649 54.3629 51.8934C56.1045 52.6245 59.3136 55.6997 59.3653 56.8333C59.4201 57.9669 58.8934 59.9791 59.618 60.4921C60.3427 61.0051 61.5758 60.0896 62.6627 61.0051C63.7497 61.9206 66.9771 65.1217 67.994 65.945C69.0079 66.7683 71.2762 68.1047 72.6341 67.352C76.1507 65.7054 75.6788 59.9975 75.5357 59.2663C75.4596 58.9468 75.4596 58.6151 75.5357 58.2956C75.5357 58.2956 73.8124 60.1234 73.4683 59.7763C72.698 59.1496 71.9795 58.4645 71.3097 57.7272C71.2366 57.3801 71.8181 57.3432 73.5201 57.3801C75.2251 57.417 75.3317 57.0329 75.3317 56.4646C75.1642 55.6075 74.8324 54.7934 74.3513 54.0684C73.9707 53.7397 73.4075 54.2527 72.7011 54.2527C70.3749 54.4217 68.0488 53.9209 65.9936 52.8089C65.6678 52.4801 66.1215 50.981 66.1215 50.981C67.7078 51.5401 69.422 51.623 71.0539 51.2175C71.9064 51.0885 72.4331 50.7967 71.9064 48.9688C69.9974 49.7552 67.9666 50.2068 65.9053 50.3051C59.07 50.3973 59.271 47.8721 59.9408 46.3729C60.3214 45.4943 61.2835 45.184 61.2835 45.4943C61.247 46.3729 61.4296 47.8536 64.7636 48.0379C67.0593 48.2131 69.3671 48.0533 71.6172 47.5618C71.4984 46.8675 71.3279 46.1824 71.1087 45.5127C70.8377 44.5788 70.582 43.5927 68.4446 44.1764C66.904 44.6648 65.4425 45.3775 64.112 46.2992L63.5305 44.6894C63.5305 44.6894 63.296 44.1948 63.9476 43.6664C65.4456 42.7694 67.0319 42.0259 68.679 41.4545C71.1513 40.6803 73.6876 40.1335 76.2573 39.8263C77.3808 39.771 81.2232 39.3501 81.6951 39.9185C82.8947 41.175 84.5754 41.8416 86.2987 41.7464C89.2368 41.9307 90.613 42.2041 91.6299 41.2518C92.1049 40.7756 92.4916 40.2195 92.7717 39.6051C92.7717 39.6051 93.335 42.8247 92.2815 43.6664C91.228 44.5081 89.3799 45.4052 88.8562 47.2331C88.4695 48.3789 88.4695 49.6201 88.8562 50.7629C89.1272 51.8596 89.453 52.3542 90.6678 52.2436C91.636 52.2436 92.5555 51.8319 93.2071 51.11C93.2314 51.1991 93.2528 51.2882 93.268 51.3773C93.6486 53.3618 92.3607 55.2788 90.3968 55.6628C89.6874 55.7765 88.9658 55.7765 88.2564 55.6628C88.2564 55.6628 86.8071 64.4243 89.797 67.4073C91.1763 68.1569 93.3685 66.8205 94.4554 66.0003C95.5424 65.177 98.6236 61.9943 99.7684 61.0604C100.91 60.1265 101.961 61.0789 102.868 60.4921C103.775 59.9053 103.051 58.1143 103.102 56.8333C103.154 55.5522 106.311 52.6276 108.123 51.8934C111.53 50.3942 111.892 46.6801 112.763 44.5757C113.634 42.4714 113.887 42.0874 114.575 42.3792C118.381 44.0811 118.853 48.3789 117.041 55.1836C116.216 57.2756 115.111 59.2448 113.759 61.0358C113.415 61.8223 113.287 62.8637 113.759 62.8637C119.063 59.9698 123.974 56.397 128.37 52.2375C129.004 51.7429 131.433 57.2326 127.807 60.8884C126.464 62.3323 119.668 68.0586 118.743 68.8819C117.817 69.7052 118.853 70.0524 118.853 70.0524H119.017C119.489 70.1261 128.3 70.2889 137.617 69.7974C138.686 69.7421 137.888 74.0583 133.248 75.8893C129.442 77.4437 120.539 77.3516 118.563 77.5728C116.587 77.7909 119.233 78.8354 119.233 78.8354C119.233 78.8354 140.643 84.9457 141.624 85.2744C144.108 86.0793 141.134 90.798 133.628 90.5246L133.641 90.5184Z" fill="white"/>
<path d="M81.299 0.703613C36.5755 0.703613 0.319336 37.2858 0.319336 82.4144C0.319336 127.543 36.5755 164.125 81.299 164.125C126.022 164.125 162.282 127.543 162.282 82.4144V82.3959C162.233 37.2919 126.001 0.74355 81.299 0.703613ZM81.299 160.393C38.6063 160.393 3.99732 125.472 3.99732 82.3959C3.99732 39.3195 38.6063 4.39931 81.299 4.39931C123.992 4.39931 158.601 39.3195 158.601 82.3959C158.561 125.457 123.973 160.353 81.299 160.393Z" fill="white"/>
</svg>
