<svg width="163" height="180" viewBox="0 0 163 180" fill="none" xmlns="http://www.w3.org/2000/svg">
<path d="M82.5 180L81.9507 179.605C81.6455 179.386 81.3327 179.16 81.0099 178.928C75.2534 174.775 66.5554 168.499 51.9133 161.179C44.9808 157.713 34.7664 152.209 26.1298 144.449C17.9674 137.116 14 130.192 14 123.283L14 26.5852L14.5005 26.3218C18.3865 24.2755 22.2976 21.9696 26.4388 19.5275C41.963 10.3749 59.5591 0 82.4875 0L82.5 0C105.697 0.00374545 123.067 10.31 138.391 19.4039C142.584 21.8921 146.543 24.2418 150.498 26.3218L150.999 26.5852V123.283C150.999 130.176 147.048 137.097 138.921 144.447C130.365 152.094 120.634 157.405 113.112 161.178C97.7564 169.02 88.9421 175.363 83.1093 179.561L82.4987 180H82.5ZM15.8767 27.7126V123.283C15.8767 129.631 19.6414 136.098 27.386 143.056C35.8537 150.663 45.9191 156.087 52.7554 159.502C67.5326 166.89 76.3056 173.219 82.1109 177.407C82.2423 177.502 82.3724 177.595 82.5012 177.689C88.3816 173.459 97.1984 167.201 112.265 159.506C119.689 155.782 129.28 150.55 137.668 143.055C145.376 136.085 149.125 129.616 149.125 123.283V27.7138C145.295 25.6788 141.471 23.4103 137.434 21.0145C129.696 16.4225 121.695 11.6746 112.694 8.024C102.498 3.88777 92.623 1.87522 82.5012 1.87397H82.4887C60.0708 1.87397 42.7124 12.109 27.3947 21.1418C23.4111 23.4914 19.6376 25.715 15.878 27.7151L15.8767 27.7126Z" fill="white"/>
<path d="M139.863 37.2942C139.863 37.2942 138.287 41.8587 135.172 39.8998C133.639 38.9322 132.683 37.3392 130.341 35.7648C129.531 35.2542 127.703 34.5987 126.474 34.6811C127.495 32.7622 129.564 31.6011 132.208 31.4738C128.88 29.3177 125.414 30.2528 123.672 32.4401C123.093 27.1778 120.288 26.2114 118.988 25.6758C120 26.9767 120.815 30.0418 120.582 31.4925C118.843 27.4362 113 27.6896 112.068 33.1979C116.48 28.5673 119.604 34.6649 116.792 38.2917C116.252 39.1894 114.524 40.725 112.752 43.4255C110.146 47.4044 108.644 51.6193 108.403 55.1325C107.895 62.5485 109.514 68.9982 109.514 68.9982L111.389 75.2631C111.336 75.1994 111.311 75.1857 111.238 75.142C109.952 74.2555 109.566 73.7861 108.97 73.1069C107.673 71.6262 106.903 67.6536 106.903 67.6536C106.903 67.6536 105.6 70.0781 106.759 74.3816C107.917 78.6839 112.294 80.8375 112.294 80.8375C112.294 80.8375 110.856 80.9799 108.546 80.6715C105.987 80.3294 103.395 77.1208 103.395 77.1208C103.395 77.1208 104.117 81.1746 106.43 83.6841C107.759 85.1123 111.45 86.6942 113.857 87.5057C107.813 86.7004 104.382 90.5083 104.756 95.873C106.987 89.1125 114.78 90.4259 118.421 95.2126C113.803 94.3299 110.868 98.4536 111.94 103.544C113.347 97.4336 118.235 96.9192 120.889 99.3475C121.006 99.4624 121.116 99.5835 121.219 99.7108C122.725 101.574 123.239 104.418 122.678 106.88C122.196 108.332 121.45 109.536 120.339 110.271C116.97 112.485 110.635 111.367 106.165 106.396C106.14 106.367 106.114 106.344 106.088 106.312C106.375 103.292 105.199 99.5785 103.127 96.1814C101.981 94.3037 100.567 92.5171 98.9635 90.9989C98.8785 90.919 98.7896 90.8341 98.7095 90.753C95.1976 87.3796 92.9355 84.1385 91.7394 81.2308C91.7357 81.2233 91.7332 81.2171 91.7332 81.2096C91.8558 81.2533 91.9721 81.2945 92.086 81.3282C94.9073 82.2171 97.1056 81.6778 97.1056 81.6778C97.1056 81.6778 93.3209 78.9398 93.2871 75.6401C93.2796 75.0708 93.3159 74.3829 93.3609 73.6363C94.6396 74.6875 96.6814 76.2007 98.1778 76.514C100.41 76.9772 101.854 76.4778 101.854 76.4778C101.854 76.4778 98.8484 75.1907 97.9901 72.655C97.0668 69.9258 98.2729 66.495 99.8819 63.3176C99.982 63.4012 100.037 63.5261 100.098 63.6746C100.434 64.6222 100.283 66.4388 100.283 66.4388C100.283 66.4388 101.941 65.0904 102.711 62.1465C103.012 61.0104 103.311 59.3874 103.351 57.5933L104.617 59.5309C104.617 59.5309 105.944 55.0489 105.582 51.472C105.239 48.0686 104.061 44.3431 104.024 44.2258L106.306 45.7589C106.306 45.7589 105.916 41.5728 104.818 37.9621C103.732 34.3578 101.691 32.1717 101.691 32.1717L103.901 32.2453C103.901 32.2453 103.558 30.8932 101.735 29.3351C101.098 28.7845 100.246 28.3725 99.5578 28.3026C99.5716 27.7396 99.5015 27.0866 99.2988 26.34C98.4581 23.2276 93.8301 25.4149 93.8301 25.4149L93.3246 25.4449C93.5048 25.129 93.7325 24.8056 93.9665 24.5847C94.6033 24.0029 96.6627 23.3437 96.6627 23.3437C96.6627 23.3437 95.3114 22.9466 93.9777 22.9179C92.6515 22.893 90.2256 23.9317 90.2256 23.9317L90.9837 21.9541C90.9837 21.9541 88.4765 23.0927 87.0764 23.6233C85.6764 24.1514 84.12 25.4361 84.12 25.4361L84.2301 23.7607C84.2301 23.7607 83.2242 24.4548 82.0243 25.2538C80.8245 26.0516 80.3991 26.4524 80.3991 26.4524L80.1126 26.6534C80.0288 26.6859 79.9424 26.7083 79.8611 26.7308C79.1805 26.943 78.4623 27.154 77.7392 27.3788C77.3939 27.4749 77.1474 27.5398 77.1474 27.5398C77.1023 27.5573 77.0448 27.5835 76.996 27.6135C75.4896 28.1054 74.0058 28.6972 72.8059 29.5436C70.5038 31.1654 67.1908 35.2654 67.1858 35.5838C67.1745 35.8934 68.019 37.1232 67.7313 37.8073C67.436 38.5102 67.6475 40.6776 68.3719 41.4941C68.8848 42.0721 69.8457 42.3131 70.8166 42.1408L71.7412 42.9835L71.9401 41.7376C71.9576 41.7238 71.9739 41.7188 71.9914 41.7113C72.1691 41.604 72.3643 41.4679 72.5832 41.3193L73.6041 41.9448L73.5603 40.6077C74.6826 39.7849 75.9688 38.9097 76.9559 38.8685C78.4698 38.8086 79.6159 39.5078 80.4654 40.4416C79.457 40.5927 77.9769 40.8823 76.9597 41.3555C75.2832 42.1283 73.1437 43.604 70.4388 44.1197C67.0682 44.7664 62.6504 44.5853 62.1424 42.8986C61.6307 41.2157 63.0232 38.5589 63.0232 38.5589C63.0232 38.5589 59.44 39.2868 58.7856 42.2782C58.2013 44.9412 59.3336 47.2796 62.0524 47.8052C64.3469 48.2509 68.2793 46.6291 70.4225 45.7389C72.5694 44.8488 75.2031 43.3831 77.4051 42.7189C78.8777 42.2782 80.6281 42.1521 81.6177 42.1208C81.7766 42.4217 81.913 42.7126 82.0268 42.9873C81.4738 44.2982 80.2327 45.5954 77.6141 46.1809C76.6169 46.4056 75.7774 46.5192 75.0655 46.5629L74.4462 45.2096L74.1159 46.5829C73.7918 46.5767 73.5128 46.5505 73.2576 46.5205L72.8447 45.116L72.3392 46.3694C71.2095 46.1222 71.0656 45.9512 70.8741 47.5443C70.5313 50.4395 72.2742 52.0825 75.073 51.9901C77.8655 51.8977 78.5749 50.8427 78.5749 50.8427L77.1837 50.3246C77.1837 50.3246 81.2374 48.593 82.3509 47.5917C82.2395 47.96 82.1006 48.397 81.9242 48.8701C81.4088 50.2472 80.558 51.8727 78.9815 52.663C74.2422 55.0401 67.5036 52.5994 67.5036 52.5994C67.5036 52.5994 67.5661 54.0838 68.567 54.9652C69.1663 55.4908 70.1572 56.0751 70.1572 56.0751C70.1572 56.0751 68.0703 56.5246 66.0623 56.2774C64.0517 56.0227 62.3464 55.3485 62.3464 55.3485C62.3464 55.3485 62.4277 57.3698 64.402 59.1626C64.3257 59.1452 64.2469 59.1227 64.1693 59.1077C61.3254 58.461 57.7284 56.6569 53.9087 52.2947C52.7013 50.7029 52.2159 49.2959 51.9018 47.9101C51.2538 45.096 53.198 39.2418 52.2472 35.7311C51.2888 32.2141 49.322 28.2265 46.7259 28.5149L46.2792 28.5748C46.2792 28.5748 46.059 26.8856 44.1648 26.4112C42.3744 25.963 40.5552 26.963 40.5552 26.963C40.5552 26.963 42.5658 26.988 43.2364 28.3676C43.4429 28.787 43.4767 29.5461 43.4654 29.7758C43.1113 30.078 42.8861 30.4251 42.791 30.8233C42.5395 31.8808 42.8461 33.4364 42.8874 33.6461C42.8273 33.4376 42.3281 31.8371 40.7479 30.7135C39.463 29.7983 36.7555 29.3064 35.7333 30.6398C35.6495 30.5948 35.6157 30.5774 35.6157 30.5774C35.6157 30.5774 34.2745 29.7609 32.9608 30.1516C31.6421 30.5437 30.8651 31.1979 30.7213 32.4476C30.6174 33.3577 30.6812 33.8084 30.6812 33.8084C30.6812 33.8084 31.6171 32.7647 32.7694 32.8271C33.4075 32.8646 34.4484 33.4289 34.4484 33.4289V33.4189C34.3608 34.4701 34.6098 35.374 35.0815 35.7111C35.7433 36.1743 36.0874 36.5464 36.1575 36.6263C35.9335 36.4203 33.6239 34.369 31.547 35.5376C31.2092 35.7249 30.8989 35.9384 30.6112 36.1631C30.2984 35.9421 29.0635 35.3541 28.1039 35.8909C26.8915 36.5601 26.2372 37.7387 26.3147 39.1357C26.3911 40.5403 26.7639 40.8749 26.7639 40.8749C26.7639 40.8749 27.1142 38.9859 28.1039 38.6451C28.3579 38.5577 28.6369 38.5826 28.8946 38.7175C28.8108 39.2943 28.9384 39.8536 29.3375 40.353C30.5499 41.8624 31.9036 40.9373 32.7869 41.1133L33.674 41.2943C33.674 41.2943 30.7563 41.5952 30.7213 43.9374C30.6287 43.9149 30.5036 43.8937 30.5036 43.8937C30.5036 43.8937 28.553 43.4667 27.4796 45.3919C26.3635 47.3882 27.8436 48.8052 28.5393 49.1411C29.2287 49.4744 29.7216 49.4345 29.7216 49.4345C29.7216 49.4345 29.0147 48.0861 29.3901 47.523C30.1295 46.4019 31.1166 47.1747 31.477 47.1298L31.5207 47.1772C31.527 47.2209 31.572 47.2359 31.5658 47.2509C32.4941 48.7578 33.7728 47.9375 34.272 48.6142C34.8763 49.4407 36.9444 49.9676 38.2156 49.8714C39.4868 49.7765 40.325 49.7603 40.325 49.7603C40.325 49.7603 40.5602 51.2123 41.5724 53.2074C42.5108 55.0551 43.5129 56.7581 44.5339 58.3124C44.0922 58.481 43.0675 58.6333 42.178 58.5709C40.8668 58.476 38.347 57.2949 38.347 57.2949C38.347 57.2949 40.4639 61.3375 45.4685 63.8831C46.7096 64.5149 47.9545 65.2015 49.0267 65.7758C50.0989 66.3501 50.9998 66.8133 51.5503 66.9969C50.7996 67.3652 49.9663 67.5562 49.0067 67.6798C47.9044 67.8296 44.8129 67.5212 44.8129 67.5212C44.8129 67.5212 48.6989 70.9096 54.3328 71.5014C54.1201 71.5526 53.9124 71.5963 53.7147 71.6375C50.8509 72.2667 49.641 72.3279 47.4203 72.1044C44.7728 71.8335 40.574 69.8596 37.2097 69.6486C33.8504 69.4389 30.5361 69.3315 29.7892 71.5813C29.6828 71.9184 29.6228 72.0432 29.594 72.0844C29.5489 72.0744 29.4651 72.0919 29.4651 72.0919C29.4651 72.0919 27.6309 72.2143 26.8027 73.1906C25.5628 74.6413 25.9081 76.4092 25.9081 76.4092C25.9081 76.4092 26.9804 74.8149 28.1251 74.5752C28.6819 74.4565 29.2274 74.7137 29.4213 74.7911C29.5364 75.1707 29.7516 75.4528 30.0544 75.6463C30.9189 76.2007 31.5821 76.4104 31.5821 76.4104C31.5821 76.4104 28.9847 75.9884 27.5233 77.3106C26.1609 78.5316 25.5428 80.2345 26.2897 81.4668C26.2384 81.5654 26.1721 81.6016 26.1721 81.6016C26.1721 81.6016 25.1187 82.3445 24.9485 83.5555C24.7796 84.764 25.1549 85.6392 25.8256 86.0899C26.5037 86.5344 27.2981 86.6492 27.2981 86.6492C27.2981 86.6492 26.4811 85.8664 26.8515 84.6754C27.1167 83.8014 28.1652 83.3957 28.1652 83.3957L28.1552 83.3882C29.016 83.7665 29.8755 83.8139 30.3509 83.5168C30.4323 83.4619 30.665 83.362 30.6937 83.3507C30.5899 83.4032 28.4955 84.5156 28.7132 86.3646C28.762 86.7691 28.8946 87.005 29.0034 87.3596C28.9884 87.3858 28.9471 87.4445 28.9471 87.4445C28.9471 87.4445 27.6322 88.4358 27.7436 89.6431C27.8587 90.8479 28.7445 91.5221 29.9668 91.8554C31.1904 92.2 31.3706 92.0876 31.3706 92.0876C31.3706 92.0876 30.0331 91.3385 30.0406 90.2661C30.0444 89.7929 30.3622 89.6556 30.4685 89.5008C30.9465 89.7792 31.5107 89.8528 32.1288 89.6506C33.8716 89.0763 33.5951 87.678 34.0868 86.9876L34.5773 86.2959C34.5773 86.2959 33.704 88.7504 35.6883 89.4521C35.6633 89.507 35.6583 89.537 35.6583 89.537C35.6583 89.537 34.1569 91.7343 35.7571 92.9353C37.0545 93.9154 38.7624 93.3249 39.3179 92.8405C39.8671 92.3585 40.0223 91.9403 40.0223 91.9403C40.0223 91.9403 38.347 92.3673 38.133 91.4359C37.9041 90.4683 38.7373 89.8491 38.7373 89.8491C38.7373 89.8491 38.8074 89.8815 38.9225 89.8641C40.8705 89.6131 40.2437 88.1374 41.0544 87.9064C41.9903 87.6393 43.2277 86.0612 43.6293 84.97C44.0347 83.8776 44.3399 83.1759 44.3399 83.1759C44.3399 83.1759 45.6924 83.5542 47.7568 83.1273C48.0446 83.0648 48.3286 83.0024 48.6063 82.935L47.3389 85.2172C47.3389 85.2172 49.7211 84.0711 50.5106 83.7777C51.2975 83.4831 53.482 82.2571 53.482 82.2571C53.482 82.2571 53.3832 83.5143 52.8114 84.5393C52.2509 85.5456 50.5318 87.5332 50.4368 87.6443C50.5656 87.5931 54.7482 85.9239 57.2492 84.0973C59.784 82.2383 61.4768 80.2358 61.4768 80.2358C61.4768 80.2358 61.1415 82.1946 60.7724 83.0024C60.4071 83.8139 59.8441 84.975 59.8441 84.975C59.8441 84.975 62.4289 83.6079 64.6873 81.8226C64.7248 81.8713 64.7611 81.9225 64.8011 81.9699C66.2862 84.0324 68.4319 86.4669 71.2282 88.2173C75.6035 90.9665 78.4786 91.396 81.0972 94.5709C81.1197 94.6033 81.146 94.6308 81.1698 94.6595C81.1873 94.682 81.2136 94.7044 81.2286 94.7294C81.5164 95.0865 81.7653 95.506 81.9918 95.9666C82.0031 96.0004 82.0168 96.0353 82.0281 96.0703C81.983 96.0528 81.9292 96.0403 81.8667 96.0191C80.2752 95.5259 73.0461 93.2749 69.4716 92.2499C66.0573 91.2724 62.3601 90.3547 62.3601 90.3547C62.3601 90.3547 59.5876 89.4995 56.4723 89.6818C56.4723 89.6818 55.8142 89.7142 54.8896 89.9465C52.4949 90.2723 49.4509 91.2998 47.3377 93.3461C44.6465 95.9342 44.1861 99.9231 44.1861 99.9231C44.1861 99.9231 46.7747 96.682 48.3911 97.149C48.55 97.1939 47.2413 99.0192 46.6458 100.886C45.8426 103.421 46.8773 107.681 46.8773 107.681C46.8773 107.681 48.5813 104.061 49.7799 103.706C50.4242 104.753 51.2713 105.455 52.097 105.979C56.6549 108.878 57.1391 112.579 52.9228 113.02C51.8768 113.133 49.8062 111.997 48.6539 111.892C47.5078 111.79 45.9189 112.036 45.9189 112.036C45.9189 112.036 45.3671 109.661 43.7094 108.759C41.5624 107.586 39.1977 107.65 37.6476 109.747C37.6176 109.737 37.5838 109.711 37.5838 109.711C37.5838 109.711 35.8747 108.669 34.586 109.013C33.2961 109.354 32.3503 110.008 31.9536 111.664C31.5608 113.322 33.43 114.967 33.43 114.967C33.43 114.967 33.3299 113.013 34.277 112.659C35.2241 112.302 36.2688 112.86 36.2688 112.86C36.2688 112.86 36.3539 112.907 36.464 112.962C36.3727 114.078 36.7668 114.56 36.7668 114.56C36.7668 114.56 34.7112 114.725 34.4772 117.393C34.4221 117.977 34.5435 118.524 34.7499 119.04C34.0831 119.363 32.7131 120.094 32.4041 121.238C31.7847 123.534 33.4087 125.196 33.4087 125.196C33.4087 125.182 33.4112 122.662 34.7825 122.479C35.7771 122.351 36.2438 122.19 36.6304 121.472C37.0933 121.871 37.4524 122.1 37.4524 122.1C37.4524 122.1 36.4878 125.436 37.9091 126.742C37.3461 127.196 36.7718 127.613 36.469 128.314C36.0899 129.204 35.9761 130.567 37.0646 131.521C38.1556 132.474 39.503 132.484 39.503 132.484C39.503 132.484 38.0917 130.39 39.1965 130.076C40.3888 129.736 40.9831 128.908 41.0782 128.205C42.3857 128.477 43.7106 128.418 44.4913 127.742C46.0002 126.437 46.2667 125.945 46.2667 125.945C46.2667 125.945 46.5532 126.332 47.0249 126.743C46.7634 127.129 45.8463 128.044 45.7975 129.014C45.6674 131.329 47.9044 131.712 47.9044 131.712C47.9044 131.712 47.6317 129.683 48.2648 129.299C49.1593 128.758 49.367 128.733 49.6448 128.141C49.7111 128.138 49.7799 128.1 49.84 128.12C52.0895 128.862 53.2431 127.227 54.1401 126.166C55.2749 124.817 58.5917 119.538 58.5917 119.538L58.8056 119.283C59.2736 118.814 59.3136 118.769 59.5063 118.607C60.5147 117.759 61.7346 117.111 62.9632 116.515C66.5827 114.961 70.5939 117.158 70.5939 117.158C70.5939 117.158 70.4725 115.384 68.8623 113.608C68.1804 112.859 67.1858 111.991 66.2649 111.244C66.6853 111.301 67.1195 111.354 67.5937 111.428C70.4062 111.869 73.7981 108.639 73.7981 108.639C73.7981 108.639 67.1908 108.566 66.7529 105.974C66.0135 101.63 71.1757 101.348 75.0229 104.197C75.8637 104.822 77.559 106.118 79.507 107.54C80.1664 108.022 80.8482 108.514 81.5439 109.002C81.7128 109.121 81.8905 109.241 82.0569 109.358C82.1119 109.402 82.1682 109.442 82.227 109.48C82.2233 109.483 82.2233 109.484 82.2208 109.488C81.7641 109.95 81.3262 110.367 80.9171 110.693C78.2246 112.861 73.8068 116.542 72.9848 119.182C72.1628 121.818 71.2945 124.473 70.4738 125.388C69.1726 126.847 67.8376 126.633 67.8376 126.633C67.8376 126.633 68.3243 128.034 70.5526 127.845C72.2467 127.703 73.0749 126.692 73.145 126.607C73.13 126.742 72.8459 128.897 71.5936 130.731C69.5767 133.688 66.3413 134.963 66.3413 134.963C66.3413 134.963 69.5967 135.506 71.4922 134.878C74.2385 133.97 76.9172 131.568 76.9172 131.568C76.9172 131.568 76.6819 133.208 76.2215 134.137C75.636 135.291 74.0821 136.605 74.0821 136.605C74.0821 136.605 76.0163 137.155 78.3272 135.481C78.6538 135.246 78.9503 135.023 79.2255 134.801C79.2893 134.732 79.3481 134.668 79.4144 134.602C80.3178 133.635 80.3603 133.369 80.7769 132.461C81.1811 131.583 80.9496 130.531 80.9346 130.458C80.9684 130.506 81.3137 130.983 81.9505 131.442C82.7525 132.008 83.2479 131.814 83.891 131.779C83.9573 131.777 84.2363 131.672 84.2851 131.676C84.6943 131.553 85.1459 131.437 85.6439 131.33V131.326C86.4133 131.226 86.9501 131.226 87.4142 131.374C88.0986 131.591 88.6078 131.841 89.0345 132.593C90.676 135.897 87.5181 137.793 87.5181 137.793C87.5181 137.793 85.7865 138.671 84.0562 139.743C82.3296 140.813 81.6765 141.989 81.6765 141.989C81.6765 141.989 78.107 138.884 74.1872 140.125C70.4062 141.319 68.6108 143.913 68.8173 145.976C68.7172 146.001 67.1683 146.501 66.5665 147.77C65.2765 150.495 67.6262 153.066 67.6262 153.066C67.6262 153.066 67.3609 151.895 67.6087 150.689C67.9002 149.248 69.5705 149.04 69.5705 149.04C69.5705 149.04 69.6193 149.036 69.7031 149.043C70.0346 149.77 70.3649 150.165 70.6202 150.393C71.1369 150.859 71.2758 151.095 71.2758 151.095C71.2758 151.095 70.8892 152.645 71.6736 154.026C70.664 155.271 69.9796 156.378 70.664 158.496C71.3959 160.792 73.8243 160.453 73.8243 160.453C73.8243 160.453 72.5344 158.672 74.0558 157.069C74.3611 156.748 74.6451 156.397 74.9128 156.062C76.6369 156.423 77.4752 155.749 77.4752 155.749C77.4752 155.749 78.0194 157.152 78.9953 157.861C78.1733 159.251 78.4536 160.963 79.183 162.069C80.1001 163.47 82.8889 163.958 83.0102 163.977C82.9502 163.933 81.953 163.222 81.9455 161.684C81.9392 160.115 82.5448 160.835 82.6274 159.179C82.6299 159.13 82.6299 159.076 82.6349 159.025C85.4862 159.025 85.8178 156.86 85.8178 156.86C85.8178 156.86 86.2019 157.069 86.8112 157.227C86.7624 157.498 86.7599 157.841 86.7511 158.286C86.7061 160.498 88.3451 161.78 89.9215 161.968C91.5017 162.165 93.0544 160.431 93.0544 160.431C93.0544 160.431 92.4914 160.601 92.116 160.626C91.7444 160.659 90.8011 160.448 90.4633 159.67C90.168 158.986 90.412 157.84 90.1993 156.925C92.121 156.011 94.4707 153.952 94.2755 151.715C94.0953 149.533 94.1954 149.965 94.2167 150.072C94.1979 149.87 94.0578 148.096 95.1363 147.578C99.4715 145.511 100.671 141.092 101.183 138.398C101.183 138.398 102.278 129.086 104.001 126.744C105.72 124.4 109.16 124.121 109.16 124.121C109.16 124.121 106.792 121.868 103.249 123.301C102.95 123.423 102.677 123.489 102.255 123.715L102.183 123.749C102.105 123.782 102.001 123.838 101.919 123.866C104.516 120.308 100.796 117.764 100.796 117.764C100.796 117.764 101.168 121.127 99.2463 121.755C97.6961 122.256 96.3186 121.792 95.648 120.931C92.9443 116.996 98.4756 113.663 98.4756 113.663L98.8297 113.428C99.7805 112.889 100.855 112.35 102.064 111.832C102.075 111.825 102.089 111.821 102.094 111.817C102.101 111.821 102.104 111.821 102.104 111.821C117.787 118.512 114.366 125.971 108.848 132.025C114.692 129.979 118.702 123.838 118.55 118.609C120.597 120.281 122.476 122.471 121.542 126.378C124.597 123.26 125.099 118.022 122.658 114.708C123.067 114.414 123.478 114.105 123.91 113.802C130.012 109.499 129.972 104.989 128.932 99.9793C128.748 99.1228 128.616 98.7046 128.427 97.8394C128.324 97.4985 128.305 96.7732 128.292 96.6221C128.226 96.0853 128.394 95.2188 128.551 94.7119C131.19 86.0762 136.844 89.6069 136.972 89.6855C136.907 89.5744 134.183 85.0562 129.018 87.6093C127.376 88.4208 126.5 90.2374 126.024 91.8055C125.873 90.2211 125.722 88.0463 125.859 86.6268C126.441 80.5242 130.267 81.3794 130.267 81.3794C130.267 81.3794 128.368 79.3955 125.627 80.5204C124.063 81.1609 122.923 83.2833 122.361 85.2172C121.492 83.3832 119.672 79.1833 119.088 73.7749C118.742 70.5675 120.054 67.2441 120.054 67.2441C120.054 67.2441 116.776 68.0169 116.15 73.5601C116.099 73.5264 115.874 73.1644 115.719 72.5464C115.202 70.2017 114.54 66.0006 115.42 62.35C117.033 55.5882 121.315 54.5195 121.315 54.5195C121.315 54.5195 117.046 53.115 114.22 56.4235C115.572 50.8565 118.76 47.3108 121.231 46.5355C123.563 45.8039 125.201 46.0586 125.201 46.0586C125.201 46.0586 121.315 43.644 116.782 45.9999C117.566 44.9674 117.917 44.3681 118.708 43.629C120.778 41.6851 123.098 40.7051 124.706 40.9647C126.009 41.182 127.173 42.0647 127.755 43.0709C131.258 49.0749 123.237 51.6006 123.237 51.6006C123.237 51.6006 124.574 52.9115 127.866 52.0825C130.841 51.3321 131.342 48.6941 131.342 48.6941C131.342 48.6941 131.372 48.8452 131.478 49.1248C131.636 49.5281 131.917 50.3696 131.753 51.7566C131.691 52.281 131.489 52.7991 131.259 53.2973C130.6 54.2998 129.573 55.3473 127.981 56.0202C126.537 56.6332 122.594 57.4759 121.245 60.3275C119.89 63.1865 120.252 63.566 120.252 63.566C120.252 63.566 123.346 60.712 124.888 60.712C124.913 60.712 124.937 60.7095 124.958 60.7095C123.166 63.154 121.899 66.2178 122.619 70.5026C123.64 76.5927 130.183 77.6989 132.701 77.1608C135.439 76.5702 137.516 74.0932 137.516 74.0932C137.516 74.0932 130.956 75.7063 129.506 71.3441C128.265 67.6136 129.68 64.8732 133.182 62.0666C132.703 62.9718 132.383 63.8095 132.295 64.4038C132.047 65.9656 131.92 68.3802 134.417 69.5587C134.417 69.5587 133.493 65.6073 136.877 61.7308C139.892 58.2725 139.083 52.6905 138.844 51.3634C138.417 47.8102 136.439 44.9249 135.758 44.0173C135.912 44.0984 136.274 44.0984 136.804 44.021C137.655 43.8949 138.837 43.443 139.516 42.5516C140.664 41.0422 139.872 37.2867 139.872 37.2867L139.863 37.2942ZM80.4641 32.0231C79.1379 32.2179 77.6428 32.4813 76.6269 33.0419C76.5381 33.0643 76.488 33.0831 76.488 33.0831C76.488 33.0831 76.0952 30.5149 78.1308 30.6685C78.7338 30.7135 79.3506 30.8033 79.9362 30.9182C80.857 31.1866 81.7553 31.4176 82.3196 31.5824C82.441 31.6224 82.5548 31.6561 82.6374 31.6848C82.0781 31.8109 81.3012 31.902 80.4617 32.0231H80.4641Z" fill="white"/>
</svg>
