<svg width="163" height="234" viewBox="0 0 163 234" fill="none" xmlns="http://www.w3.org/2000/svg">
<path d="M65.049 166.946L62.4912 166.048L61.3916 169.175L63.9106 170.063C65.1677 170.499 65.8459 170.029 66.1704 169.092C66.512 168.122 66.1123 167.319 65.0466 166.943L65.049 166.946Z" fill="white"/>
<path d="M130.171 144.402L130.733 143.308C131.806 141.193 130.966 139.672 129.094 138.719C127.229 137.765 125.502 137.974 124.424 140.087L123.869 141.186L130.171 144.404V144.402Z" fill="white"/>
<path d="M66.3202 163.218L63.7915 162.328L62.9365 164.768L65.4676 165.656C66.4001 165.981 66.9766 165.535 67.1946 164.914C67.4417 164.21 67.2648 163.543 66.3178 163.218H66.3202Z" fill="white"/>
<path d="M81.7926 36.1675C37.2087 36.1675 0.932617 72.4957 0.932617 117.146C0.932617 161.796 37.2087 198.125 81.7926 198.125C126.376 198.125 162.657 161.799 162.657 117.146C162.657 72.4932 126.379 36.1675 81.7926 36.1675ZM54.2749 190.106C42.7214 185.735 32.4783 178.698 24.2939 169.74L30.7343 166.024C38.1412 173.779 47.2701 179.862 57.5351 183.622L54.2749 190.106ZM18.6141 117.146C18.6141 82.2611 46.9553 53.8792 81.7926 53.8768C116.635 53.8768 144.973 82.2587 144.973 117.146C144.973 152.033 116.635 180.418 81.7926 180.418C46.9504 180.418 18.6141 152.036 18.6141 117.146ZM81.8119 195.139C74.376 195.139 67.1969 194.071 60.3859 192.126L62.9485 185.334C68.9529 187.003 75.2746 187.906 81.8119 187.906C88.3492 187.906 94.5813 187.011 100.552 185.371L103.131 192.155C96.3543 194.079 89.2091 195.139 81.8119 195.139ZM109.298 190.125L105.946 183.668C116.252 179.916 125.434 173.82 132.873 166.036L139.298 169.765C131.112 178.727 120.856 185.759 109.298 190.125ZM137.201 161.066C146.771 149.001 152.492 133.735 152.492 117.124C152.492 78.0357 120.844 46.3477 81.8119 46.3477C42.7795 46.3477 11.1297 78.0357 11.1297 117.124C11.1297 133.737 16.858 149.009 26.4302 161.081L19.8857 164.45C9.86296 151.325 3.90698 134.921 3.90698 117.122C3.90698 74.0432 38.7806 39.1146 81.8119 39.1146C124.843 39.1146 159.71 74.0432 159.71 117.122C159.71 134.904 153.771 151.294 143.762 164.411L137.198 161.066H137.201Z" fill="white"/>
<path d="M121.821 81.9435C122.581 81.2304 122.528 80.3402 121.835 79.5979L119.844 77.4707L117.502 79.6683L119.495 81.8004C120.181 82.5281 121.031 82.6857 121.823 81.9435H121.821Z" fill="white"/>
<path d="M106.389 160.503C106.042 159.846 105.435 159.518 104.555 159.982L102.177 161.226L103.373 163.518L105.754 162.269C106.626 161.815 106.692 161.08 106.391 160.503H106.389Z" fill="white"/>
<path d="M106.404 163.46L104.001 164.721L105.534 167.659L107.898 166.422C109.075 165.801 109.196 164.981 108.739 164.11C108.259 163.2 107.404 162.938 106.404 163.46Z" fill="white"/>
<path d="M74.9893 165.571C74.8173 165.981 74.3111 167.07 73.9551 167.766L72.8506 169.92L75.9024 170.342L75.4253 167.953C75.28 167.218 75.0426 166.01 74.9869 165.571H74.9893Z" fill="white"/>
<path d="M68.9095 126.458C69.6822 126.754 69.9728 125.43 69.9728 125.43L73.87 112.594C73.3977 112.526 72.9108 112.448 72.4095 112.351C71.615 114.978 68.614 125.052 68.614 125.052C68.614 125.052 68.1441 126.158 68.9119 126.456L68.9095 126.458Z" fill="white"/>
<path d="M80.8512 87.8378C81.4615 87.8718 81.975 87.1974 81.975 87.1974C81.975 87.1974 81.6214 86.6541 80.8221 86.6202C80.0204 86.591 79.6982 87.1974 79.6982 87.1974C79.6982 87.1974 80.2456 87.8087 80.8512 87.8378Z" fill="white"/>
<path d="M53.5892 129.477C54.3401 129.817 54.7083 128.507 54.7083 128.507L61.8656 108.838C61.4321 108.624 60.9912 108.396 60.5504 108.164C59.5549 110.892 53.3664 128.056 53.3664 128.056C53.3664 128.056 52.8384 129.143 53.5917 129.475L53.5892 129.477Z" fill="white"/>
<path d="M48.7667 121C48.7667 121 48.212 122.072 48.9532 122.429C49.7016 122.788 50.0989 121.488 50.0989 121.488L56.331 105.593C55.9241 105.312 55.5099 105.021 55.1005 104.72C54.5241 106.165 48.7667 120.995 48.7667 120.995V121Z" fill="white"/>
<path d="M94.8746 125.466C94.8746 125.466 95.1701 126.783 95.9403 126.495C96.7057 126.194 96.2382 125.083 96.2382 125.083C96.2382 125.083 92.513 112.94 92.2611 112.169C91.8179 112.261 91.3891 112.348 90.9725 112.421C90.8345 112.664 90.9241 112.824 90.9241 112.824L94.8746 125.466Z" fill="white"/>
<path d="M59.063 133.472C59.8163 133.807 60.1675 132.492 60.1675 132.492L67.6615 111.169C67.2038 111.023 66.7363 110.863 66.2712 110.698C65.1232 113.966 58.8208 132.056 58.8208 132.056C58.8208 132.056 58.3073 133.147 59.063 133.472Z" fill="white"/>
<path d="M104.682 133.41C105.452 133.109 104.985 131.998 104.985 131.998C104.985 131.998 99.0775 112.664 98.3533 110.35C97.8906 110.529 97.4304 110.699 96.9727 110.854L103.619 132.381C103.619 132.381 103.912 133.711 104.682 133.41Z" fill="white"/>
<path d="M81.836 158.463C104.551 158.463 123.039 139.946 123.039 117.175C123.039 94.4034 104.551 75.9155 81.836 75.9155C59.1214 75.9155 40.6406 94.4325 40.6406 117.175C40.6406 139.917 59.1214 158.463 81.836 158.463ZM51.4118 128.238L58.9615 107.269C58.5134 107.007 58.0702 106.73 57.6197 106.449L51.5741 122.494C51.5741 122.494 50.7966 124.806 48.4108 124.018C46.5942 123.411 46.9672 121.245 46.9672 121.245C46.9672 121.245 55.2993 98.8374 56.3795 95.2985C57.3024 92.2689 59.6688 92.463 59.6688 92.463C59.6688 92.463 60.4487 92.5066 66.7074 92.4338C72.7506 92.3708 73.3271 93.8795 69.0303 99.5651C67.6739 101.362 68.1995 101.62 71.6946 102.221C75.1897 102.837 76.7253 99.4438 77.2194 98.003L77.6506 96.7417C78.4208 94.8522 76.6599 95.1408 76.0205 95.0123C75.3835 94.8861 74.3274 94.3088 73.7219 93.2828C73.1115 92.2592 75.3835 92.4193 76.3741 92.3562C77.3672 92.2883 77.9097 91.745 77.4011 91.6819C76.89 91.614 75.0008 91.614 74.0416 91.6819C73.0825 91.745 71.0358 92.0991 69.052 91.745C67.0683 91.3908 67.9306 87.8713 67.9306 87.8713C67.9306 87.8713 68.2188 88.2254 68.9867 89.3436C69.7545 90.4643 72.8257 90.4934 74.1046 90.4934C75.3835 90.4934 78.1035 91.4588 78.1035 91.4588C79.1305 89.3752 75.7347 89.4431 74.4243 89.4091C73.1018 89.3752 71.3603 89.8942 71.3603 89.8942C71.3603 89.8942 70.7064 85.0819 74.4509 85.0819C78.1955 85.0819 79.6076 84.0583 81.0149 83.9612C82.4221 83.8691 86.8062 83.3645 87.046 86.3068C87.046 86.3068 90.7155 86.0788 90.7155 88.8609C90.7155 91.6431 90.9213 91.3375 89.456 90.4036C88.6591 89.8894 87.0266 90.3697 87.2518 91.01C87.3439 91.272 88.1165 96.618 88.32 98.1267C88.5234 99.6282 90.1899 103.046 93.685 102.439C97.1777 101.828 97.7081 101.571 96.3445 99.7689C92.0501 94.0881 92.6314 92.5794 98.6697 92.6424C104.931 92.7152 105.711 92.6764 105.711 92.6764C105.711 92.6764 108.077 92.4824 109 95.5119C110.078 99.0509 116.722 121.119 116.722 121.119C116.722 121.119 117.095 123.285 115.281 123.882C112.89 124.677 112.115 122.371 112.115 122.371L107.113 106.129C107.113 106.129 107.077 105.983 106.951 105.852C106.529 106.138 106.106 106.405 105.687 106.672C105.687 106.677 105.689 106.677 105.689 106.677L112.28 128.117C112.28 128.117 113.052 130.428 110.613 131.277C108.436 132.039 107.457 129.315 107.457 129.315L101.208 109.156C101.208 109.156 101.206 109.146 101.201 109.137C100.821 109.316 100.443 109.491 100.065 109.651L106.692 131.874C106.692 131.874 107.394 134.229 105.137 134.996C102.874 135.767 101.959 133.077 101.959 133.077L95.441 111.358C94.9953 111.494 94.5545 111.62 94.121 111.732C94.1258 111.756 94.1282 111.761 94.1282 111.761L98.0763 125.002C98.0763 125.002 98.7157 127.222 96.5431 128.076C94.368 128.934 93.1715 126.031 93.1715 126.031L89.6304 114.626C89.6304 114.626 88.1795 120.564 90.7421 124.704C93.2999 128.849 94.9639 131.112 98.2482 132.648C98.2482 132.648 98.1586 133.118 96.9669 133.206C95.7728 133.288 95.6856 133.589 95.5185 133.802L96.8846 136.75C96.8846 136.75 97.1413 137.691 98.2894 137.176C99.4424 136.667 100.896 135.896 100.896 135.896C100.896 135.896 102.385 135.512 102.727 136.235L103.068 136.963C103.068 136.963 104.776 137.133 104.989 138.118C105.197 139.097 104.902 139.228 104.902 139.228C104.902 139.228 104.129 138.685 103.792 138.889C103.337 139.165 103.708 139.99 103.172 140.177C102.216 140.521 101.528 139.988 101.019 139.527C100.68 139.221 99.8662 139.566 99.8226 139.828C99.7839 140.08 100.164 140.761 101.148 140.89C102.128 141.021 104.258 141.404 104.134 142.52C104.023 143.456 104.008 143.544 104.006 143.548C104.015 143.568 104.805 145.254 103.194 145.894C103.194 145.894 102.937 144.866 102.596 144.866C102.254 144.866 101.957 145.467 101.356 145.467C100.755 145.467 100.205 144.953 99.8662 143.927C99.5247 142.903 98.9264 141.533 98.9264 141.533C98.9264 141.533 98.5001 141.023 98.2458 141.111C97.9867 141.198 97.8607 141.664 97.9455 141.965C98.0278 142.265 98.1998 142.944 98.2458 143.119C98.2846 143.289 99.7378 145.081 98.5873 145.94C97.4344 146.794 97.5628 147.133 97.2673 147.345C96.9645 147.558 95.7704 147.99 95.3441 147.733C95.3441 147.733 95.8552 146.791 95.986 146.617C96.1144 146.447 96.0708 146.107 95.2594 146.107C94.4479 146.107 94.4479 145.079 94.959 144.315C95.4725 143.544 95.6469 142.809 95.814 142.309C96.1483 141.295 95.2424 140.936 94.8331 141.965C94.4383 142.954 94.5981 143.917 93.7213 143.781C93.0673 143.679 92.9123 143.248 92.612 143.286C92.3116 143.33 91.4663 143.917 91.9193 145.016C91.9193 145.016 89.9307 144.691 90.6065 142.864C91.0546 141.652 91.6044 142.253 91.2483 141.067C90.9649 140.136 91.7981 139.449 92.7815 139.488C93.7019 139.527 94.8936 139.275 94.3171 138.164C93.7019 136.978 92.8639 135.556 92.8639 135.556L91.4591 137.181C91.4591 137.181 90.1342 133.851 88.9425 132.354C87.7484 130.867 86.2999 129.024 85.6193 129.407C84.9339 129.79 84.7207 134.622 85.2778 137.055C85.8301 139.488 87.8331 144.829 88.3006 145.552C88.7729 146.28 85.6581 145.081 85.2778 144.955C84.8903 144.829 84.1225 143.888 83.9529 145.339C83.7834 146.794 83.1415 149.654 81.819 151.063L81.7875 151.097C80.4675 149.68 79.9031 146.918 79.7287 145.47C79.5616 144.014 78.7938 144.955 78.4111 145.081C78.026 145.212 74.9136 146.406 75.3835 145.683C75.8509 144.955 77.8564 139.614 78.4111 137.181C78.9634 134.748 78.7526 129.921 78.0696 129.538C77.389 129.15 75.9381 130.991 74.744 132.485C73.5523 133.982 72.225 137.312 72.225 137.312L70.8226 135.69C70.8226 135.69 69.9846 137.111 69.3742 138.292C68.7905 139.408 69.987 139.653 70.905 139.617C71.8884 139.578 72.7191 140.267 72.443 141.2C72.0821 142.389 72.6344 141.783 73.0849 142.993C73.7631 144.819 71.7672 145.145 71.7672 145.145C72.2202 144.048 71.3749 143.459 71.0745 143.415C70.7742 143.376 70.6192 143.808 69.9676 143.91C69.0908 144.051 69.2531 143.085 68.8583 142.093C68.4465 141.065 67.5431 141.428 67.8725 142.438C68.0396 142.937 68.2164 143.679 68.7299 144.444C69.241 145.215 69.241 146.241 68.4271 146.241C67.6133 146.241 67.5746 146.58 67.7029 146.75C67.8337 146.92 68.3448 147.861 68.3448 147.861C67.9161 148.113 66.722 147.691 66.4241 147.473C66.1286 147.264 66.2545 146.92 65.104 146.071C63.9535 145.212 65.4019 143.415 65.4431 143.25C65.4867 143.075 65.6587 142.396 65.7434 142.093C65.8306 141.797 65.6998 141.327 65.4431 141.239C65.1864 141.157 64.7601 141.666 64.7601 141.666C64.7601 141.666 64.1618 143.034 63.8251 144.06C63.4812 145.084 62.9265 145.598 62.3307 145.598C61.7348 145.598 61.4345 145.001 61.093 145.001C60.7515 145.001 60.4947 146.025 60.4947 146.025C58.8864 145.389 59.6712 143.699 59.6833 143.679C59.6785 143.675 59.6639 143.592 59.5525 142.653C59.429 141.538 61.5604 141.162 62.5414 141.031C63.5224 140.9 63.9051 140.221 63.8639 139.963C63.8251 139.706 63.0064 139.357 62.6722 139.668C62.1636 140.128 61.466 140.662 60.5141 140.318C59.9836 140.124 60.3518 139.299 59.8965 139.027C59.5622 138.819 58.7895 139.362 58.7895 139.362C58.7895 139.362 58.4892 139.236 58.6999 138.251C58.9179 137.271 60.6207 137.104 60.6207 137.104L60.9622 136.376C61.3037 135.653 62.8006 136.032 62.8006 136.032C62.8006 136.032 64.2466 136.803 65.3995 137.317C66.5524 137.826 66.8116 136.885 66.8116 136.885L68.5119 134.278C68.34 134.069 68.2552 133.768 67.0635 133.676C65.8694 133.599 65.7822 133.123 65.7822 133.123C69.0666 131.588 71.5735 128.82 74.1312 124.675C76.6914 120.53 75.2406 114.592 75.2406 114.592L71.7018 125.997C71.7018 125.997 70.5102 128.9 68.3327 128.046C66.16 127.193 66.7995 124.973 66.7995 124.973L70.6628 112.05C70.6628 112.05 70.6628 112.03 70.67 112.006C70.2316 111.904 69.7835 111.793 69.3306 111.671L61.7324 133.213C61.7324 133.213 60.8169 135.903 58.5594 135.132C56.2972 134.365 57.002 132.015 57.002 132.015L64.6583 110.099C64.2805 109.944 63.8929 109.779 63.5054 109.614L56.2366 129.453C56.2366 129.453 55.2557 132.172 53.0782 131.416C50.6415 130.562 51.4118 128.25 51.4118 128.25V128.238Z" fill="white"/>
<path d="M114.658 122.305C115.428 122.004 114.959 120.896 114.959 120.896C114.959 120.896 109.916 104.213 109.778 103.815C109.778 103.81 109.773 103.805 109.77 103.795C109.356 104.12 108.942 104.436 108.53 104.737L113.592 121.279C113.592 121.279 113.895 122.606 114.656 122.308L114.658 122.305Z" fill="white"/>
<path d="M110.185 129.565C110.951 129.264 110.481 128.153 110.481 128.153C110.481 128.153 104.605 108.937 104.171 107.577C103.73 107.824 103.294 108.067 102.858 108.295L109.117 128.536C109.117 128.536 109.417 129.865 110.185 129.565Z" fill="white"/>
<path d="M81.793 177.504C115.029 177.504 142.067 150.43 142.067 117.146C142.067 83.8616 115.027 56.7871 81.793 56.7871C48.5591 56.7871 21.5234 83.8641 21.5234 117.146C21.5234 150.427 48.5615 177.504 81.793 177.504ZM50.1262 153.845C49.2421 153.076 48.4889 153.185 48.0505 153.692C47.5951 154.226 47.7186 154.784 48.6875 156.3C49.792 158.044 50.3054 159.322 49.1428 160.675C47.9681 162.041 46.3017 162.223 44.3713 160.552C43.2668 159.596 42.7266 158.303 42.7315 157.006L44.2235 156.911C44.255 157.901 44.7031 158.893 45.4176 159.514C46.4761 160.423 47.2972 160.498 47.9366 159.761C48.4332 159.174 48.2467 158.5 47.3069 157.032C46.1176 155.172 45.6962 154.112 46.8636 152.756C47.9899 151.441 49.7799 151.596 51.1774 152.802C52.202 153.687 52.6525 154.738 52.7687 155.965L51.2646 156.089C51.2113 155.189 50.8746 154.485 50.1286 153.843L50.1262 153.845ZM57.2157 158.97C56.2057 158.374 55.4912 158.616 55.1473 159.193C54.7961 159.797 55.0189 160.329 56.2493 161.641C57.6445 163.162 58.3832 164.324 57.4822 165.866C56.569 167.419 54.9656 167.901 52.7663 166.608C51.5068 165.869 50.7414 164.695 50.5162 163.414L51.9646 163.055C52.1729 164.028 52.793 164.918 53.6044 165.398C54.8106 166.104 55.6317 166.024 56.1258 165.187C56.5133 164.522 56.2033 163.892 55.0189 162.613C53.5123 161 52.9068 160.033 53.8078 158.49C54.6846 156.996 56.4722 156.821 58.0586 157.755C59.2285 158.441 59.8607 159.395 60.1925 160.581L58.7344 160.974C58.5213 160.098 58.0635 159.468 57.2133 158.97H57.2157ZM68.636 165.325C68.3066 166.283 67.5824 166.698 66.7783 166.793C67.4492 167.259 68.0596 168.243 67.5994 169.548C66.9333 171.467 65.417 172.039 63.3558 171.317L59.6112 170.002L62.9077 160.559L66.7904 161.92C68.4326 162.495 69.198 163.732 68.636 165.32V165.325ZM76.6847 174.203L76.1737 171.736L72.2159 171.19L71.0727 173.429L69.5322 173.216L74.4564 163.792L76.0235 164.013L78.2664 174.421L76.6799 174.203H76.6847ZM81.8898 174.429L81.3521 164.435L82.8466 164.36L83.3092 172.876L88.2794 172.605L88.3593 174.072L81.8874 174.426L81.8898 174.429ZM91.9198 173.514L89.6309 163.773L91.089 163.431L93.0389 171.739L97.8879 170.596L98.227 172.027L91.9198 173.512V173.514ZM96.7931 167.673L96.3257 166.296L99.7069 165.151L100.174 166.531L96.7931 167.673ZM108.434 167.685L104.914 169.529L100.286 160.666L103.929 158.757C105.474 157.949 106.896 158.235 107.678 159.732C108.146 160.627 107.954 161.44 107.475 162.092C108.274 161.92 109.405 162.143 110.047 163.378C110.987 165.173 110.369 166.674 108.436 167.685H108.434ZM117.761 161.658C115.848 163.222 113.84 162.795 112.096 160.661L108.427 156.169L109.589 155.215L113.23 159.674C114.426 161.136 115.671 161.42 116.834 160.472C118.047 159.475 118.006 158.255 116.851 156.838L113.145 152.302L114.305 151.351L117.992 155.865C119.767 158.034 119.682 160.076 117.764 161.653L117.761 161.658ZM127.542 151.213L120.162 150.388C119.718 150.342 119.038 150.236 118.742 150.194C119.028 150.43 120.116 151.286 120.552 151.633L124.587 154.886L123.679 156.021L115.894 149.753L116.851 148.56L123.977 149.426C124.461 149.479 125.309 149.615 125.599 149.663C125.309 149.43 124.19 148.545 123.756 148.196L119.743 144.962L120.656 143.827L128.436 150.095L127.547 151.211L127.542 151.213ZM129.792 137.356C132.929 138.959 133.217 141.642 132.028 143.97L130.792 146.403L121.889 141.86L123.126 139.427C124.347 137.036 126.646 135.755 129.792 137.358V137.356ZM122.867 78.6296C124.056 79.9006 124.383 81.6107 122.884 83.0151C121.719 84.1115 120.423 84.1721 119.249 83.4177L117.669 87.7038L116.485 86.4425L118.013 82.2826L116.473 80.6332L113.586 83.3425L112.583 82.2704L119.869 75.423L122.867 78.6248V78.6296ZM116.39 72.4492L115.555 73.6474L111.51 70.8095L110.095 72.8324L112.442 74.4818L111.607 75.6777L109.257 74.0283L107.446 76.6139L111.67 79.5756L110.829 80.769L105.384 76.9487L111.118 68.755L116.388 72.4516L116.39 72.4492ZM99.9177 63.3726L101.301 63.9548L99.7239 67.6829L103.955 69.4754L105.53 65.7497L106.91 66.3343L103.016 75.5491L101.64 74.9621L103.372 70.8532L99.1377 69.0606L97.4035 73.1672L96.0229 72.5802L99.9152 63.3702L99.9177 63.3726ZM87.1894 65.6066C87.7393 62.6279 89.7327 60.833 92.2735 61.3011C93.8745 61.5971 94.8215 62.4412 95.2769 63.7558L93.8236 64.3307C93.4627 63.4357 93.0146 62.9627 92.0022 62.7759C90.2922 62.4606 89.1102 63.6807 88.7008 65.8855C88.2939 68.0952 88.9649 69.6598 90.6749 69.9727C91.7043 70.1619 92.4091 69.8538 93.0631 69.148L94.1337 70.1885C93.2084 71.2704 91.8956 71.7239 90.406 71.4498C87.8652 70.9793 86.6348 68.5876 87.187 65.6066H87.1894ZM80.531 66.048C78.4068 65.4586 77.3799 64.9492 77.3508 63.1592C77.3193 61.4346 78.7556 60.3503 80.594 60.3139C81.9528 60.2897 82.9871 60.7724 83.8905 61.6116L82.8563 62.708C82.2096 62.0749 81.4902 61.7717 80.5092 61.7887C79.3418 61.8105 78.8501 62.3927 78.8646 63.0646C78.8767 63.7656 79.3442 64.0979 81.0736 64.583C83.0525 65.1481 84.2926 65.7545 84.3289 67.5374C84.3604 69.3396 83.2414 70.5888 80.6861 70.6397C79.2328 70.664 77.9636 70.0576 77.1062 69.0873L78.1549 68.0225C78.8404 68.7429 79.8311 69.1795 80.7757 69.1625C82.1708 69.1383 82.8345 68.6386 82.8175 67.6659C82.803 66.8946 82.2096 66.5138 80.531 66.0505V66.048ZM73.8072 60.8985L74.1076 62.3369L71.2568 62.936L73.0055 71.2873L71.5426 71.5954L69.7914 63.2465L66.943 63.8456L66.6402 62.4024L73.8097 60.8985H73.8072ZM57.131 66.1232L59.4514 71.3892C60.2119 73.1162 61.3382 73.7251 62.7115 73.1235C64.1478 72.488 64.4312 71.297 63.6973 69.621L61.3382 64.2628L62.7043 63.6564L65.0586 68.9879C66.1873 71.5517 65.5672 73.4995 63.2928 74.5037C61.033 75.503 59.214 74.557 58.1047 72.032L55.7649 66.7272L57.1358 66.1208L57.131 66.1232ZM51.8556 69.0218L52.713 70.2031L48.7069 73.0944L50.1504 75.1028L52.4757 73.4219L53.3234 74.6055L51.0006 76.2841L52.8463 78.8479L57.022 75.8305L57.8794 77.0142L52.4854 80.9097L46.6384 72.7985L51.8556 69.0242V69.0218ZM40.0696 79.1778C41.8813 77.1985 44.4439 76.5776 47.0453 78.9619C49.6418 81.3463 49.1985 84.0072 47.4401 85.9379L45.5944 87.9488L38.2312 81.1862L40.072 79.1778H40.0696ZM81.8366 73.4097C105.934 73.4097 125.544 93.0449 125.544 117.175C125.544 141.305 105.934 160.974 81.8366 160.974C57.7389 160.974 38.1392 141.329 38.1392 117.175C38.1392 93.0207 57.7413 73.4097 81.8366 73.4097ZM34.4018 140.07L30.4489 142.095L29.7659 140.759L38.6623 136.204L41.5907 141.94L40.2827 142.612L38.035 138.21L35.7098 139.398L37.0177 141.96L35.7098 142.629L34.4018 140.068V140.07ZM36.7513 152.513C35.2254 150.568 35.6928 148.564 37.863 146.867L42.4287 143.291L43.354 144.475L38.8222 148.026C37.3399 149.185 37.025 150.43 37.9478 151.611C38.9118 152.85 40.135 152.838 41.5761 151.708L46.183 148.099L47.1058 149.287L42.5208 152.875C40.3191 154.602 38.2772 154.476 36.7537 152.516L36.7513 152.513Z" fill="white"/>
<path d="M46.0108 80.0923C44.4606 78.6734 42.7458 78.4163 41.1472 80.1627L40.3164 81.0699L45.5312 85.8556L46.3644 84.9508C47.963 83.2044 47.561 81.5089 46.0108 80.0923Z" fill="white"/>
<path d="M128.015 12.5615L137.599 19.4963L133.864 30.7244C133.823 30.8432 133.864 30.9766 133.968 31.0518C134.07 31.127 134.208 31.127 134.31 31.0518L143.899 24.1316L153.481 31.1658C153.532 31.2046 153.592 31.2216 153.653 31.2216C153.713 31.2216 153.774 31.2022 153.825 31.1658C153.926 31.0906 153.97 30.9597 153.931 30.8384L150.242 19.5618L159.882 12.5955C159.984 12.5203 160.028 12.3893 159.989 12.2704C159.95 12.1492 159.839 12.0691 159.713 12.0691L147.866 12.0958L144.228 0.773102C144.19 0.651822 144.078 0.571777 143.952 0.571777C143.826 0.571777 143.715 0.654248 143.676 0.773102L140.033 12.1031L128.192 12.0327C128.066 12.0327 127.954 12.1128 127.915 12.2341C127.877 12.3553 127.92 12.4863 128.022 12.5615H128.015Z" fill="white"/>
<path d="M97.023 19.5474L93.3874 30.79C93.3487 30.9113 93.3923 31.0423 93.494 31.1151C93.5957 31.1903 93.7338 31.1878 93.8355 31.1151L103.381 24.1488L112.922 31.1199C112.973 31.1563 113.033 31.1757 113.094 31.1757C113.154 31.1757 113.215 31.1563 113.266 31.1199C113.367 31.0447 113.411 30.9137 113.372 30.7925L109.703 19.545L119.323 12.6417C119.425 12.569 119.469 12.4355 119.43 12.3167C119.391 12.1954 119.28 12.1154 119.154 12.1129L107.295 12.0523L103.694 0.799957C103.655 0.678678 103.543 0.598633 103.417 0.598633C103.291 0.598633 103.18 0.681103 103.141 0.799957L99.5081 12.0426L87.6567 12.0499C87.5308 12.0499 87.4193 12.1299 87.3806 12.2512C87.3418 12.3701 87.383 12.5035 87.4847 12.5762L97.0255 19.5474H97.023Z" fill="white"/>
<path d="M44.6929 12.6175L54.3014 19.5377L50.6125 30.7779C50.5737 30.8992 50.6149 31.0302 50.7167 31.1054C50.8184 31.1806 50.9564 31.1806 51.0582 31.1054L60.611 24.1512L70.2147 31.1418C70.2656 31.1781 70.3261 31.1975 70.3867 31.1975C70.4472 31.1975 70.5078 31.1781 70.5586 31.1418C70.6604 31.0666 70.704 30.9356 70.6628 30.8143L66.9787 19.5595L76.5316 12.6053C76.6333 12.5301 76.6769 12.3992 76.6381 12.2803C76.5994 12.1615 76.488 12.079 76.362 12.079L64.5106 12.0523L60.8944 0.799957C60.8556 0.678678 60.7442 0.598633 60.6183 0.598633C60.4923 0.598633 60.3809 0.681103 60.3421 0.799957L56.7211 12.0475L44.8624 12.0887C44.7364 12.0887 44.625 12.1712 44.5863 12.29C44.5475 12.4113 44.5911 12.5423 44.6929 12.615V12.6175Z" fill="white"/>
<path d="M13.8137 19.4911L10.0933 30.6998C10.0545 30.8186 10.0933 30.952 10.1974 31.0272C10.2992 31.1024 10.4372 31.1024 10.539 31.0272L20.1305 24.1143L29.6059 31.1315C29.6567 31.1703 29.7173 31.1897 29.7778 31.1897C29.8384 31.1897 29.8965 31.1728 29.9474 31.1364C30.0491 31.0636 30.0927 30.9302 30.0564 30.8113L26.4668 19.542L36.0608 12.6291C36.1625 12.5563 36.2061 12.4229 36.1674 12.304C36.1286 12.1852 36.0172 12.1027 35.8913 12.1027L24.0737 12.0906L20.5447 0.787298C20.506 0.666019 20.397 0.583548 20.2686 0.583548C20.1451 0.581123 20.0288 0.663593 19.9901 0.782447L16.2697 11.9911L4.41585 11.9184C4.2899 11.9184 4.17848 11.9984 4.13973 12.1173C4.10097 12.2361 4.13973 12.3695 4.24388 12.4447L13.8137 19.4911Z" fill="white"/>
</svg>
