<svg width="163" height="189" viewBox="0 0 163 189" fill="none" xmlns="http://www.w3.org/2000/svg">
<path d="M51.657 148.305C51.2823 148.251 50.9 148.296 50.5485 148.437C50.197 148.577 49.8888 148.808 49.655 149.106C49.0034 149.86 48.5109 150.737 48.2072 151.686C47.9036 152.635 47.795 153.635 47.888 154.627V154.625C47.8987 155.099 47.991 155.567 48.161 156.009C48.2764 156.359 48.4749 156.677 48.7396 156.934C49.0043 157.191 49.3273 157.38 49.681 157.485C50.0675 157.501 50.4514 157.415 50.7948 157.237C51.1382 157.059 51.4291 156.794 51.639 156.469C52.3618 155.524 52.8581 154.425 53.0896 153.258C53.321 152.09 53.2815 150.886 52.974 149.736C52.8992 149.403 52.7382 149.095 52.507 148.844C52.2759 148.593 51.9827 148.407 51.657 148.305ZM98.449 168.735C98.7792 167.416 98.6097 166.021 97.973 164.819C97.7046 164.336 97.3395 163.914 96.9006 163.579C96.4617 163.243 95.9583 163.002 95.422 162.87L94.27 162.627C93.222 162.415 91.638 162.094 89.266 161.502C86.091 160.708 83.366 162.163 81.862 165.406C83.409 165.855 84.932 166.272 86.417 166.648C86.5565 165.998 86.6537 165.34 86.708 164.677C86.7228 164.437 86.8322 164.212 87.0123 164.052C87.1924 163.893 87.4285 163.811 87.6688 163.825C87.9091 163.839 88.1341 163.948 88.2944 164.127C88.4547 164.307 88.5372 164.543 88.524 164.783C88.4629 165.555 88.35 166.322 88.186 167.079C88.48 167.148 88.773 167.217 89.063 167.283C89.361 167.35 89.654 167.415 89.942 167.476C90.202 166.198 90.367 165.111 90.371 165.09C90.4076 164.852 90.5373 164.638 90.7314 164.495C90.9256 164.353 91.1684 164.293 91.4067 164.329C91.6449 164.365 91.8591 164.494 92.0022 164.688C92.1453 164.882 92.2056 165.125 92.17 165.363C92.156 165.45 91.989 166.538 91.721 167.842C92.332 167.96 92.908 168.065 93.456 168.157C93.5789 167.498 93.663 166.832 93.708 166.163C93.7195 165.922 93.8262 165.696 94.0047 165.534C94.1831 165.372 94.4187 165.287 94.6595 165.298C94.9003 165.31 95.1267 165.417 95.2888 165.595C95.4509 165.774 95.5355 166.009 95.524 166.25C95.479 166.982 95.3898 167.71 95.257 168.431C96.516 168.602 97.574 168.695 98.449 168.735ZM81.606 170.958C82.1649 172.211 83.1943 173.195 84.472 173.696C86.7616 174.35 89.1027 174.808 91.47 175.066C94.354 175.385 96.609 173.779 97.897 170.533C96.932 170.478 95.897 170.366 94.829 170.216C94.6358 170.87 94.3719 171.501 94.042 172.098C93.9222 172.307 93.7246 172.459 93.4924 172.523C93.2603 172.586 93.0125 172.555 92.8034 172.435C92.5943 172.316 92.441 172.119 92.377 171.887C92.313 171.655 92.3435 171.407 92.462 171.198C92.6858 170.794 92.8693 170.37 93.01 169.93C92.447 169.834 91.881 169.728 91.317 169.618C91.1529 170.302 90.9369 170.973 90.671 171.625C90.6234 171.735 90.5547 171.834 90.4686 171.917C90.3826 172.001 90.281 172.066 90.1697 172.11C90.0583 172.154 89.9394 172.175 89.8197 172.173C89.7001 172.171 89.582 172.145 89.4723 172.097C89.3626 172.049 89.2635 171.98 89.1805 171.894C89.0976 171.808 89.0325 171.706 88.989 171.594C88.9455 171.483 88.9244 171.364 88.927 171.244C88.9296 171.124 88.9557 171.007 89.004 170.897C89.2214 170.362 89.3993 169.812 89.536 169.251C89.243 169.185 88.949 169.121 88.661 169.056C88.354 168.986 88.043 168.913 87.731 168.84C87.561 169.392 87.363 169.936 87.138 170.468C87.0918 170.578 87.0243 170.678 86.9394 170.762C86.8545 170.846 86.7538 170.913 86.6432 170.958C86.5326 171.003 86.4141 171.026 86.2947 171.025C86.1752 171.024 86.0571 171 85.947 170.953C85.837 170.907 85.7372 170.839 85.6534 170.754C85.5696 170.669 85.5034 170.568 85.4586 170.457C85.4139 170.346 85.3914 170.228 85.3925 170.108C85.3935 169.989 85.4182 169.871 85.465 169.761C85.658 169.303 85.821 168.846 85.96 168.407C84.428 168.019 82.854 167.587 81.258 167.122C80.937 168.403 81.0597 169.755 81.606 170.958ZM101.837 147.799C100.462 144.191 95.861 141.635 89.798 140.263C78.595 137.729 63.874 141.914 54.508 149.793C54.8505 151.358 54.7708 152.985 54.277 154.509C62.5518 158.745 71.196 162.218 80.102 164.883C82.28 159.879 86.454 158.925 89.707 159.738C92.038 160.32 93.537 160.624 94.632 160.845L95.836 161.1C96.6162 161.289 97.3489 161.638 97.9886 162.123C98.6283 162.608 99.1612 163.22 99.554 163.92C100.356 165.39 100.618 167.094 100.297 168.737C100.93 168.778 101.561 168.635 102.115 168.327C104.436 161.664 104.337 154.397 101.837 147.799ZM91.27 176.873C88.7682 176.602 86.2949 176.113 83.878 175.413C83.0138 175.086 82.2225 174.592 81.5496 173.959C80.8766 173.326 80.335 172.567 79.956 171.724C79.5427 170.833 79.3103 169.869 79.272 168.888C79.2441 168.118 79.3248 167.348 79.512 166.601C70.5719 163.916 61.8913 160.432 53.575 156.192C53.341 156.623 53.065 157.03 52.751 157.407C52.2967 157.967 51.7185 158.413 51.062 158.71C51.7177 164.457 53.6916 169.975 56.83 174.834C61.003 181.279 66.687 185.696 72.828 187.085C75.005 187.577 77.851 188.189 80.395 187.625C84.9851 186.6 89.2692 184.508 92.8998 181.518C96.5305 178.528 99.4056 174.725 101.292 170.417C100.807 170.497 100.317 170.545 99.825 170.559C97.671 176.86 93.142 177.08 91.27 176.873ZM47.432 150.276C47.7238 149.593 48.1125 148.955 48.586 148.383C48.9227 147.976 49.3216 147.625 49.768 147.343C50.7528 142.361 53.1196 137.756 56.598 134.056C51.4874 137.688 47.6428 142.83 45.604 148.759C46.1466 149.34 46.7608 149.85 47.432 150.276ZM46.854 152.041C46.218 151.601 45.6123 151.12 45.041 150.599C44.2408 153.55 43.8985 156.606 44.026 159.66C44.052 160.291 44.097 160.92 44.161 161.541C44.7071 159.488 45.5912 157.539 46.777 155.776C46.5394 154.539 46.5657 153.267 46.854 152.041ZM49.249 158.878C48.568 158.697 47.9755 158.276 47.581 157.692C45.352 161.127 44.414 164.199 45.232 166.958C46.9342 172.673 50.3052 177.75 54.9125 181.536C59.5198 185.322 65.1532 187.645 71.09 188.207C59.406 184.659 50.761 172.486 49.249 158.878ZM63.636 17.282C63.646 15.7581 63.4768 14.2384 63.132 12.754C63.132 12.754 65.82 12.613 65.82 9.34C65.82 6.644 64.021 4.804 63.538 4.804C63.148 4.804 63.053 5.216 62.21 5.216C60.155 5.216 60.004 2.592 60.004 2.592C60.308 2.58101 60.6207 2.57568 60.942 2.576C66.823 2.576 72.265 4.358 72.265 17.282C72.2152 21.5557 71.9308 25.8235 71.413 30.066C70.9561 33.5527 70.7376 37.0665 70.759 40.583C70.759 40.583 60.518 39.377 60.518 31.673C60.518 26.671 63.636 25.454 63.636 17.282ZM79.923 102.652C79.923 112.766 75.609 120.99 73.116 123.483C65.394 131.206 59.021 125.582 58.952 133.332C55.448 136.506 52.927 141.332 51.69 146.844C51.7665 146.851 51.8426 146.861 51.918 146.876C52.6602 147.021 53.3156 147.452 53.743 148.076C63.552 140.081 78.656 135.879 90.2 138.489C93.5548 139.123 96.6974 140.587 99.341 142.747C95.7733 136.977 90.3557 132.586 83.972 130.291C82.45 129.746 79.748 129.121 79.748 124.188C79.748 114.98 89.822 122.139 96.458 112.109C96.784 111.616 96.315 111.182 95.926 111.571C93.918 113.578 88.988 114.958 86.379 114.958C85.1509 115.054 83.9179 114.85 82.786 114.364C84.4038 111.205 86.2535 108.17 88.32 105.285C82.16 99.123 92.529 65.247 119.97 65.247C120.031 59.0166 119.414 52.7981 118.131 46.701C117.478 46.859 112.308 48.079 112.072 46.991C111.864 46.029 115.88 43.941 117.262 43.255C116.646 40.8552 115.742 38.5385 114.571 36.355C91.051 43.766 95.778 63.239 90.048 63.239C86.319 63.239 83.39 60.335 82.344 59.289C68.296 45.243 74.842 35.948 74.842 17.282C74.842 4.708 69.959 0 60.942 0C51.923 0 48.703 3.903 48.703 3.903C48.703 3.903 61.059 4.303 61.059 17.282C61.059 30.868 45.758 34.618 45.758 51.854C45.758 80.546 79.923 80.008 79.923 102.652Z" fill="white"/>
</svg>
