<svg width="163" height="189" viewBox="0 0 163 189" fill="none" xmlns="http://www.w3.org/2000/svg">
<path d="M81.5766 0C49.7801 0 24 42.1359 24 94.1035C24 146.071 49.7465 188.207 81.5766 188.207C113.407 188.207 139.187 146.071 139.187 94.1035C139.187 42.1359 113.407 0 81.5766 0ZM29.5795 94.1035C29.5459 45.8479 52.9395 6.48759 81.5766 6.48759C98.3488 6.48759 113.306 19.9978 122.852 40.8651L112.439 53.9005C104.567 47.8075 94.833 43.9785 84.1647 43.4401C56.3007 42.0356 32.5037 63.5717 31.092 91.562C30.2585 108.122 37.4211 123.217 49.1885 133.079L39.4277 145.302C33.2432 130.889 29.5795 113.198 29.5795 94.1035ZM82.6858 101.996C82.6858 101.996 82.2152 101.628 82.316 101.527C82.3833 101.427 82.9883 101.695 82.9883 101.695C90.9206 104.437 99.7268 106.978 107.457 107.681C115.39 108.45 121.843 106.711 126.986 103.601C126.986 103.601 127.221 103.434 127.288 103.534C127.322 103.601 127.221 103.835 127.12 104.169C119.289 116.442 94.0465 112.162 82.6858 101.996ZM124.236 112.312L124.23 112.329C119.558 120.388 104.13 121.726 94.1809 114.904C94.0801 114.854 93.9994 114.784 93.9053 114.71C93.8986 114.707 93.8919 114.7 93.8851 114.693C93.8482 114.67 93.8078 114.64 93.7709 114.613C93.7541 114.603 93.7406 114.593 93.7238 114.58C93.7238 114.58 93.7216 114.578 93.7171 114.576C93.7171 114.576 93.6936 114.57 93.6767 114.57C93.6095 114.503 93.5087 114.469 93.4415 114.402C93.3742 114.369 93.3742 114.335 93.307 114.302C93.2398 114.235 93.139 114.202 93.1054 114.135C93.0381 114.101 93.0045 114.068 92.9373 114.034C92.8701 113.968 92.8028 113.934 92.7356 113.867C92.6684 113.8 92.6348 113.8 92.5676 113.733C92.5138 113.68 92.46 113.647 92.423 113.603C91.6937 113.021 91.0181 112.403 90.4568 111.73C90.4366 111.707 90.4231 111.69 90.4097 111.674C90.3963 111.657 90.3795 111.64 90.3492 111.627C90.282 111.56 90.2484 111.526 90.2148 111.459C90.1475 111.393 90.1475 111.359 90.0803 111.292C90.0131 111.225 90.0131 111.192 89.9459 111.125C89.9123 111.058 89.8786 111.025 89.845 110.958C89.7778 110.891 89.7778 110.858 89.7106 110.791C89.677 110.724 89.6434 110.69 89.6097 110.623C89.5761 110.557 89.5425 110.49 89.5089 110.456C89.4753 110.423 89.4417 110.356 89.4081 110.289C89.4081 110.256 89.3745 110.222 89.3745 110.222C89.3409 110.189 89.3409 110.155 89.3409 110.155C89.3072 110.088 89.2736 110.055 89.2736 109.988C89.3184 110.01 89.3633 110.033 89.4081 110.055C89.4753 110.055 89.5089 110.088 89.5761 110.122C89.677 110.155 89.8114 110.189 89.9123 110.256C90.0467 110.322 90.1811 110.322 90.282 110.389C90.45 110.456 90.5845 110.523 90.7525 110.557C90.887 110.623 91.0214 110.657 91.1223 110.724C91.2903 110.791 91.4248 110.858 91.5928 110.891C91.7273 110.958 91.8617 110.991 91.9626 111.058C92.1306 111.125 92.2651 111.192 92.4331 111.259C92.5676 111.326 92.702 111.359 92.8028 111.426C92.9709 111.493 93.139 111.56 93.2734 111.627C93.4079 111.694 93.5087 111.727 93.6431 111.794C93.8112 111.861 93.9793 111.961 94.1473 112.028C94.2481 112.095 94.3826 112.128 94.4834 112.195C94.7523 112.296 94.954 112.396 95.2229 112.53C95.3573 112.596 95.4918 112.63 95.5926 112.697C95.7607 112.764 95.9287 112.831 96.0632 112.897C96.1976 112.964 96.3321 113.031 96.4665 113.065C96.601 113.098 96.7354 113.198 96.9035 113.232C97.0379 113.299 97.1724 113.366 97.3068 113.399C97.4412 113.433 97.5757 113.499 97.7101 113.566C97.8782 113.633 97.979 113.7 98.1471 113.733C98.2815 113.8 98.416 113.834 98.5504 113.901C98.7185 113.968 98.8529 114.001 98.9874 114.068C99.1218 114.135 99.2563 114.168 99.3907 114.235C99.5588 114.302 99.6932 114.335 99.8613 114.402C99.9957 114.469 100.13 114.503 100.231 114.536C100.399 114.603 100.567 114.636 100.735 114.703C100.87 114.77 100.97 114.77 101.105 114.837C101.273 114.904 101.475 114.937 101.676 115.004C101.777 115.038 101.878 115.071 101.979 115.105C102.281 115.171 102.55 115.272 102.853 115.339C111.188 117.412 118.314 115.171 123.658 111.961C123.658 111.961 123.961 111.794 124.129 111.894C124.142 111.908 124.156 111.921 124.166 111.934C124.189 111.941 124.209 111.948 124.23 111.961C124.314 112.071 124.257 112.255 124.236 112.312ZM105.609 104.036C97.6093 102.681 90.7357 97.9024 82.3295 95.0399C81.6102 94.7924 80.8775 94.5583 80.1313 94.3476C79.0524 94.0366 77.9432 93.7624 76.8038 93.535C76.6559 93.4715 76.5954 93.4079 76.592 93.341C76.5584 93.2574 76.6189 93.1805 76.7365 93.1003C76.9382 92.9331 77.4088 92.7993 77.5096 92.7659C78.3835 92.4916 80.0002 92.5886 81.3917 92.7659C81.8757 92.826 82.3295 92.8996 82.7194 92.9665C83.0857 93.0334 83.4488 93.107 83.8118 93.1839C92.0063 94.9228 99.7134 99.1966 107.794 100.19C115.827 101.16 121.574 98.6181 127.524 96.0765C127.661 96.013 127.776 95.9796 127.86 95.9695C127.86 95.9695 127.862 95.9684 127.866 95.9662C128.018 95.9327 128.108 95.9896 128.129 96.0765C128.162 96.2103 127.826 96.7454 127.591 97.0463C122.717 103.233 114.449 105.507 105.609 104.036ZM127.019 87.7162C120.835 99.4541 102.685 95.2405 89.072 89.3214C88.5342 89.0907 88.0098 88.8365 87.4855 88.5857C86.8234 88.2613 86.1612 87.9403 85.4755 87.656C85.1461 87.5223 84.81 87.3952 84.4672 87.2815C84.3865 87.2581 84.3058 87.2313 84.2285 87.2046C84.1378 87.1745 84.0437 87.1444 83.9529 87.1176C83.9462 87.1143 83.9428 87.1143 83.9395 87.1143C83.8891 87.1009 83.842 87.0875 83.7949 87.0808C83.7681 87.0675 83.7345 87.0541 83.6975 87.0407C83.6807 87.034 83.6605 87.0307 83.6403 87.0273C83.6303 87.024 83.6235 87.0207 83.6168 87.0207C83.5966 87.0173 83.5765 87.014 83.5597 87.014C83.395 86.9471 83.2605 86.9471 83.1294 86.8835C83.1261 86.8835 83.1261 86.8835 83.1227 86.8835C83.0353 86.8601 82.9446 86.8367 82.8538 86.8167C82.7396 86.7899 82.6286 86.7598 82.5143 86.7331C82.39 86.703 82.269 86.6729 82.148 86.6495C82.074 86.6294 82.0001 86.6127 81.9295 86.5993C81.8757 86.5893 81.822 86.5826 81.7783 86.5826C81.7346 86.5692 81.6909 86.5525 81.6472 86.5425C81.6136 86.5358 81.5833 86.5291 81.5531 86.5224C81.5497 86.5224 81.5463 86.519 81.543 86.5224C81.5194 86.5157 81.4993 86.5157 81.4758 86.5157C81.4253 86.5023 81.3783 86.4889 81.3346 86.4789C81.3043 86.4722 81.2707 86.4689 81.2405 86.4622C81.227 86.4588 81.2136 86.4555 81.2001 86.4555C81.1699 86.4522 81.1396 86.4488 81.106 86.4488C81.0758 86.4388 81.0455 86.4287 81.0153 86.4221C80.9447 86.4053 80.8741 86.3953 80.8035 86.3819C78.612 85.9974 76.5046 85.8235 74.5518 85.4121C74.3837 85.3787 74.014 85.3453 74.014 85.2449C74.014 85.2148 74.0745 85.168 74.1753 85.1112C74.1148 85.1011 74.0577 85.0878 74.014 85.0777H73.9468L73.8795 85.0108C73.8795 84.9105 74.5182 84.643 75.1904 84.342C75.2576 84.3086 75.3248 84.2751 75.3585 84.2751C75.3921 84.2417 75.4257 84.2417 75.4593 84.2083C78.4843 82.8706 82.3833 83.2385 86.4839 84.2751C86.5175 84.2751 86.5511 84.2751 86.5511 84.3086C86.7192 84.342 86.8536 84.3755 86.988 84.4089C87.0553 84.4089 87.0553 84.4423 87.1225 84.4423C87.2569 84.4758 87.3914 84.5092 87.5258 84.5427C87.5931 84.5761 87.6267 84.5761 87.6939 84.6095C87.7544 84.6263 87.8183 84.6396 87.8754 84.6564C87.9426 84.6731 88.0098 84.6931 88.0636 84.7099C88.1308 84.7433 88.1645 84.7433 88.2317 84.7768C88.3661 84.8102 88.5006 84.8436 88.6014 84.8771C88.6686 84.9105 88.7022 84.9105 88.7695 84.944C88.9375 85.0108 89.1392 85.0443 89.2736 85.1112C89.5358 85.1914 89.8013 85.275 90.0635 85.362C95.2061 87.0441 100.285 89.5555 105.306 90.8296C114.247 93.1036 120.835 90.4618 126.885 87.2514C126.989 87.3049 127.073 87.3149 127.107 87.335C127.107 87.335 127.109 87.3361 127.114 87.3384C127.114 87.3384 127.12 87.345 127.12 87.3517C127.187 87.4186 127.087 87.5524 127.019 87.7196V87.7162ZM125.372 79.891C124.283 81.553 122.808 82.9107 121.06 83.9608C119.023 85.1881 116.62 85.994 114.039 86.3652C111.528 86.7297 108.849 86.6829 106.18 86.2114C103.29 85.7098 100.298 84.439 97.2732 83.302C95.8884 82.7803 94.4633 82.2285 93.0045 81.6768C92.3054 81.4092 91.5962 81.145 90.8836 80.8842C84.4269 78.5199 77.4928 76.4767 71.1234 77.4498C70.7537 77.1823 71.5603 76.6472 71.7284 76.5134C74.4173 74.3063 79.291 73.3031 83.7949 74.0388C87.1427 74.5939 90.45 75.8781 93.7406 77.3093C94.4196 77.6036 95.0985 77.9079 95.7775 78.2089C100.127 80.1518 104.459 82.1516 108.836 82.8673C115.457 83.9708 119.924 81.3958 124.899 79.5934C124.899 79.6134 125.275 79.493 125.372 79.5566C125.507 79.6903 125.372 79.891 125.372 79.891ZM122.549 73.4368C118.213 77.7508 111.861 79.4563 104.601 77.7173C102.335 77.1823 100.187 76.3195 98.0799 75.3263C97.4143 75.0186 96.7522 74.6909 96.0934 74.3632C92.2987 72.4637 88.5409 70.3703 84.3327 69.3236C78.9885 67.9859 74.1484 68.2535 69.0731 68.6548C69.5773 67.1833 71.3587 65.9126 72.8376 65.2438C80.0641 61.9331 88.9375 65.8457 96.4665 69.5911C97.2799 69.9924 98.1 70.4071 98.9235 70.8217C99.5789 71.1528 100.238 71.4805 100.897 71.7982C102.933 72.7814 104.97 73.6542 106.953 74.1391C113.071 75.644 117.541 73.8381 122.515 72.8683C122.549 72.9018 122.751 72.9352 122.751 73.0356C122.784 73.1693 122.549 73.4368 122.549 73.4368ZM110.852 70.1596C108.57 69.9222 106.147 69.2266 103.69 68.307C102.994 68.0495 102.295 67.7719 101.596 67.4776C99.9319 66.7854 98.2681 66.0162 96.6346 65.2438C86.2486 60.261 74.8207 55.9805 67.2245 63.1035C66.5522 63.7389 65.5439 64.9762 65.0397 66.0129C64.67 66.8824 64.67 67.9859 64.0986 69.0226C63.0902 70.9288 60.8047 72.2998 59.393 74.206C58.6199 75.2092 57.9141 76.1456 57.3427 77.316C56.536 78.9881 55.8638 81.4627 54.8554 83.001C53.9143 84.4724 52.1329 86.1779 50.654 87.5825C49.4776 88.686 46.7886 90.3915 46.4525 92.1639C46.0156 94.2373 48.6373 94.9395 48.6037 96.645C48.57 97.9158 47.0575 98.9525 46.8559 100.023C46.6206 101.293 47.1584 101.494 47.8306 102.798C47.6625 103.534 46.755 103.166 46.755 104.169C46.9567 105.373 47.8306 105.875 47.7634 107.48C47.6625 109.286 46.4525 110.824 46.587 112.262C46.9231 116.074 56.0318 116.543 60.603 118.047C60.761 118.101 60.9156 118.154 61.0702 118.211C61.7895 118.469 62.4651 118.763 63.1104 119.091C67.7824 121.438 70.636 125.341 73.3418 128.949C74.182 130.053 75.3921 131.558 76.3332 132.929C76.8037 133.631 78.4171 136.407 79.728 138.313C93.2398 138.045 104.769 133.765 115.356 122.963H117.743C106.92 134.367 95.0212 139.283 81.2741 139.851H81.0052C80.5682 139.851 80.1313 139.818 79.6943 139.784C73.5098 139.483 67.5606 137.978 62.0483 135.303C59.2115 133.935 56.5461 132.307 54.0689 130.407C53.5009 129.976 52.9429 129.528 52.3984 129.063C50.8355 127.749 49.3566 126.314 47.965 124.769C43.9653 120.388 40.9066 115.339 38.8899 109.787C36.806 104.036 35.8985 98.0161 36.201 91.8629C36.5035 85.7098 38.016 79.7907 40.7049 74.3063C43.293 68.9892 46.8222 64.274 51.2926 60.2945C55.6957 56.315 60.771 53.2718 66.3506 51.2653C72.1317 49.192 78.1818 48.2891 84.3663 48.59C90.5509 48.891 96.5001 50.3959 102.012 53.0712C104.661 54.3486 107.162 55.8535 109.494 57.5891C110.069 58.0171 110.637 58.4585 111.192 58.9167C112.929 60.3413 114.566 61.9063 116.096 63.6051C117.373 65.0431 118.583 66.5145 119.692 68.0863C116.801 69.2567 114.079 70.4606 110.852 70.1596ZM81.5766 181.719C64.838 181.719 49.9145 168.276 40.4024 147.509L50.8624 134.42C58.7073 140.446 68.3975 144.232 79.0221 144.767C106.92 146.171 130.683 124.635 132.095 96.645C132.928 80.1686 125.809 65.12 114.116 55.2549L123.826 43.1057C129.944 57.4854 133.607 75.1089 133.607 94.1035C133.607 142.359 110.247 181.719 81.5766 181.719Z" fill="white"/>
<path d="M48.6043 50.2288L47.8313 46.8847L51.4277 44.4435L54.0158 46.5503L55.3603 45.6808L46.2179 38.5913L44.8398 39.5277L47.3271 51.0649L48.6043 50.2288ZM46.3524 40.3971L50.2849 43.574L47.4615 45.4802L46.3188 40.4306L46.3524 40.3971Z" fill="white"/>
<path d="M53.3419 35.5482L57.3753 44.3767L58.6861 43.7413L54.6864 34.9128L57.9803 33.3745L57.4761 32.1372L49.4766 35.9161L50.048 37.1199L53.3419 35.5482Z" fill="white"/>
<path d="M63.1571 38.3903L67.2914 37.2199L69.1736 40.0289L70.7197 39.5608L64.031 29.9966L62.4513 30.4648L61.4766 42.2361L62.9219 41.8013L63.1571 38.3903ZM63.5605 31.8358H63.5941L66.4175 36.0829L63.1908 37.0192L63.5605 31.8358Z" fill="white"/>
<path d="M79.0547 38.19L78.8867 36.8858L73.4416 37.5546L72.2652 27.8901L70.8535 28.0908L72.1644 39.0595L79.0547 38.19Z" fill="white"/>
<path d="M83.1894 35.1802L87.4917 35.5481L88.2648 38.8588L89.8445 39.026L86.9539 27.656L85.3069 27.4888L80.2988 38.1231L81.7777 38.2903L83.1894 35.1802ZM85.912 29.1943H85.9456L87.122 34.177L83.7608 33.876L85.912 29.1943Z" fill="white"/>
<path d="M95.1895 30.8328H95.2232L97.9793 40.9989L99.559 41.5005L102.651 30.8997L101.307 30.4984L98.786 39.0593V39.0259L96.0971 28.8932L94.4165 28.3916L91.3242 38.9925L92.7023 39.3938L95.1895 30.8328Z" fill="white"/>
<path d="M104.534 43.7409L108.567 34.9125L111.894 36.4842L112.432 35.2803L104.466 31.5015L103.929 32.7053L107.256 34.2771L103.223 43.1056L104.534 43.7409Z" fill="white"/>
<path d="M107.625 45.3128L110.314 43.2729L113.843 45.7475L112.969 49.0248L114.314 49.9277L117.103 38.4908L115.725 37.521L106.348 44.4433L107.625 45.3128ZM115.456 39.3603L115.49 39.3937L114.179 44.343L111.356 42.4369L115.456 39.3603Z" fill="white"/>
<path d="M59.8291 148.211L59.4258 149.516L62.4172 150.485L59.5266 159.849L61.2408 160.417L65.3414 147.242L64.0642 146.84C62.8878 148.813 61.9803 148.746 59.8291 148.211Z" fill="white"/>
<path d="M73.3421 149.449C70.5188 149.081 68.771 151.121 68.4685 153.629C68.0987 156.338 69.6449 158.277 72.1321 158.578C73.3758 158.745 74.7874 158.311 75.3924 157.307L75.4261 157.374C74.5858 160.852 73.443 162.324 71.5943 162.09C70.2163 161.922 69.5104 160.953 69.6113 159.548L67.9307 159.347C67.7626 160.685 68.334 163.126 71.4935 163.528C76.0983 164.096 77.1066 157.876 77.2747 156.405C77.5436 154.164 77.6444 150.017 73.3421 149.449ZM75.5269 154.264C75.1908 156.973 73.443 157.174 72.5691 157.073C71.4263 156.906 69.8802 156.405 70.1827 153.763C70.4179 151.923 71.5607 150.786 73.1405 150.987C75.0563 151.255 75.695 152.693 75.5269 154.264Z" fill="white"/>
<path d="M85.8794 149.917C82.0141 150.184 81.5099 154.431 81.678 157.307C81.846 160.183 82.8544 164.33 86.7197 164.096C90.585 163.828 91.0892 159.548 90.9212 156.705C90.7531 153.829 89.7448 149.683 85.8794 149.917ZM86.6189 162.524C84.6694 162.658 83.6611 160.618 83.4594 157.173C83.2577 153.696 84.0308 151.589 85.9467 151.455C87.8961 151.355 88.9045 153.361 89.1061 156.806C89.3078 160.283 88.5347 162.39 86.6189 162.524Z" fill="white"/>
<path d="M102.08 146.439L93.1055 149.047L93.6096 150.686L100.735 148.613C99.0883 152.325 98.0464 157.776 98.6178 161.554L100.399 161.019C99.6597 154.799 101.576 149.683 102.483 147.91L102.08 146.439Z" fill="white"/>
</svg>
