<svg width="162" height="163" viewBox="0 0 162 163" fill="none" xmlns="http://www.w3.org/2000/svg">
<path fill-rule="evenodd" clip-rule="evenodd" d="M161.933 81.4149C161.933 126.149 125.892 162.415 81.4326 162.415C36.9735 162.415 0.932617 126.149 0.932617 81.4149C0.932617 36.6791 36.9735 0.414551 81.4326 0.414551C125.892 0.414551 161.933 36.6791 161.933 81.4149ZM3.91406 81.4145C3.91406 124.493 38.6205 159.415 81.4326 159.415C124.245 159.415 158.951 124.493 158.951 81.4145C158.951 38.3366 124.245 3.41455 81.4326 3.41455C38.6205 3.41455 3.91406 38.3366 3.91406 81.4145Z" fill="white"/>
<path fill-rule="evenodd" clip-rule="evenodd" d="M81.4326 12.4145C111.003 12.4145 136.201 31.2475 145.828 57.6425L111.576 57.641L111.575 40.4913C111.575 35.2933 111.575 17.4761 81.4326 17.4761C70.4191 17.4761 60.0602 20.2948 51.0294 25.2545V137.583C60.0602 142.543 70.4191 145.362 81.4326 145.362C111.575 145.362 111.575 127.545 111.575 122.346V107.182H103.981L103.979 81.4608H150.007C149.981 119.547 119.289 150.415 81.4326 150.415C43.5599 150.415 12.8585 119.522 12.8585 81.4146C12.8585 43.307 43.5599 12.4145 81.4326 12.4145Z" fill="white"/>
<path fill-rule="evenodd" clip-rule="evenodd" d="M83.1546 31.5341C84.9812 31.0268 86.4634 31.1362 88.2067 31.8072C92.6753 33.4332 93.5147 39.4757 93.8423 43.302H98.7555L98.7467 22.3958H95.7311C95.7311 22.3958 94.2321 24.6334 93.8065 25.272C91.3006 23.6452 88.3573 22.5918 85.417 21.8276C78.4425 20.5847 71.9038 22.2108 66.7822 25.8454C60.2245 30.5195 56.493 41.2105 61.0793 48.3116C65.6656 55.4127 78.7664 74.5475 78.7664 74.5475C78.7664 74.5475 79.6834 75.83 79.6563 77.3019C79.6161 79.6496 78.6611 81.1648 76.8074 82.4847C74.953 83.8047 73.0496 84.0917 70.4874 83.5353C64.4262 82.2373 64.8101 74.5321 64.8101 70.6302H57.5811V92.667H62.2134L63.6905 89.8267C65.5018 90.6467 68.8523 92.3373 71.6851 92.8175C79.3134 94.3459 87.4871 93.0061 93.0431 88.0317C99.0378 83.0559 102.082 73.3611 96.0119 65.0972C89.6055 55.3738 79.9679 42.3616 78.7825 39.4156C78.4176 38.5097 77.3244 33.6021 83.1546 31.5341Z" fill="white"/>
<path fill-rule="evenodd" clip-rule="evenodd" d="M95.6985 121.796L95.6958 115.145H90.0354V121.802H86.2168C86.2168 121.802 92.1151 96.5284 92.1644 96.4145H85.8685C85.8685 96.4145 78.4511 128.191 78.4511 128.008L89.7503 128.006L89.7489 138.415H95.6985L95.6958 128.006L99.3215 128.008V121.796H95.6985Z" fill="white"/>
<path fill-rule="evenodd" clip-rule="evenodd" d="M57.5811 132.34V105.488C57.5811 100.477 61.5856 96.4146 66.5248 96.4146C71.4647 96.4146 75.4699 100.477 75.4699 105.488V132.34C75.4699 137.352 71.4647 141.415 66.5248 141.415C61.5856 141.415 57.5811 137.352 57.5811 132.34ZM69.5069 132.419V105.411C69.5069 103.755 68.1721 102.415 66.5262 102.415C64.8787 102.415 63.5439 103.755 63.5439 105.411V132.419C63.5439 134.074 64.8787 135.415 66.5262 135.415C68.1721 135.415 69.5069 134.074 69.5069 132.419Z" fill="white"/>
</svg>
