<svg width="164" height="163" viewBox="0 0 164 163" fill="none" xmlns="http://www.w3.org/2000/svg">
<circle cx="81.8149" cy="81.4141" r="80.3052" stroke="white" stroke-width="2"/>
<path d="M87.8488 58.3498L75.873 40.8569V62.0428L87.8488 79.5357V58.3498Z" fill="white"/>
<path d="M75.7814 62.0819L63.8057 44.5918V65.7888L75.7814 83.2817V104.465L87.7571 121.958V100.761L75.7814 83.2706V62.0819Z" fill="white"/>
<path d="M81.8134 36.8076C57.1796 36.8076 37.208 56.7792 37.208 81.413C37.208 106.047 57.1796 126.018 81.8134 126.018H81.8189C106.453 126.018 126.422 106.047 126.419 81.413C126.419 56.7792 106.447 36.8076 81.8134 36.8076ZM63.6186 118.203V108.244L51.6485 90.7624V109.255C47.4932 104.76 44.399 99.3905 42.5971 93.5391C40.7812 87.6988 40.2994 81.5244 41.1878 75.4725L51.6429 90.7457V69.5542L46.0171 61.3355C47.6074 58.5004 49.5263 55.8629 51.7376 53.4789V69.5236L63.7133 87.0165V108.202L72.7731 121.454C69.6037 120.735 66.5318 119.643 63.6186 118.203ZM117.612 101.496C116.022 104.331 114.103 106.966 111.895 109.35V93.3051L99.9245 75.8206V97.012L109.814 111.458C100.643 119.986 88.0853 123.868 75.7002 122.011V104.504L63.7245 87.0137V65.8167L53.8348 51.3706C58.3549 47.1541 63.7718 44.0181 69.6789 42.1967L69.6845 42.205C75.5888 40.3669 81.8329 39.8907 87.9488 40.8125V58.3193L99.919 75.8039V54.6152L90.8564 41.3751C94.0258 42.0936 97.1005 43.1854 100.014 44.628V54.5846L111.989 72.0775V53.568C116.145 58.0631 119.236 63.4355 121.038 69.2841C122.857 75.1299 123.336 81.3071 122.447 87.3646L111.989 72.0858V93.2829L117.612 101.496Z" fill="white"/>
<path d="M87.8486 100.744L99.8243 118.237V97.0398L87.8486 79.5469V100.744Z" fill="white"/>
<path d="M81.8131 6.41455C40.3938 6.41455 6.81445 39.9939 6.81445 81.4132C6.81445 122.832 40.3938 156.415 81.8131 156.415C123.232 156.415 156.814 122.835 156.814 81.4132C156.814 39.9911 123.235 6.41455 81.8131 6.41455ZM81.8131 152.861C42.3573 152.861 10.3682 120.869 10.3682 81.4132C10.3682 41.9574 42.3545 9.96827 81.8131 9.96827C121.272 9.96827 153.261 41.9518 153.261 81.4132C153.261 120.875 121.269 152.861 81.8131 152.861Z" fill="white"/>
<path d="M34.061 96.171L36.0885 100.488L32.791 106.721C32.2952 107.648 31.8663 108.406 31.8663 108.406L31.9109 108.487C31.9109 108.487 32.7826 108.539 33.8298 108.629L40.8537 109.261L43.3602 113.313L28.1817 122.181L25.7559 118.282L32.1114 114.583C33.5931 113.725 34.7099 113.121 34.7099 113.121L34.6653 113.04C34.6653 113.04 33.8994 112.984 32.298 112.748L25.8339 111.787L25.7894 111.706L28.4909 105.76C29.1648 104.289 29.5353 103.615 29.5353 103.615L29.4907 103.535C29.4907 103.535 28.3767 104.142 26.8477 104.927L20.2861 108.216L18.3366 104.061L34.061 96.171ZM45.6802 115.329L49.1782 118.438L42.1543 126.793C41.0013 128.185 41.0598 129.639 42.8032 131.012C44.5467 132.385 45.9782 132.101 47.0588 130.656L53.5368 121.869L57.3774 124.54L50.7267 133.546C47.6771 137.679 43.7279 136.863 40.3134 134.176C36.8989 131.488 35.175 127.84 38.4836 123.896L45.6802 115.329ZM52.679 121.016L48.3622 124.033L48.2898 123.974L50.2142 119.073L52.679 121.016ZM60.0817 126.063L64.6492 127.734L67.2309 136.551C67.7879 138.459 68.0163 139.467 68.0163 139.467L68.15 139.506C68.15 139.506 68.448 138.195 68.8852 136.59L70.7596 129.575L75.2156 130.63L70.676 147.619L65.9414 146.483L63.0088 137.264C62.4518 135.474 62.2011 134.34 62.2011 134.34L62.0674 134.301C62.0674 134.301 61.6747 135.694 61.179 137.173L58.7838 144.322L54.4809 142.734L60.0817 126.063ZM94.2793 141.272C94.3768 145.45 91.7728 148.302 86.7847 148.639C82.1253 148.962 77.764 146.839 77.5077 140.049C77.2487 133.162 81.0615 130.58 85.5342 130.282C90.3774 129.954 93.1792 132.661 93.661 136.337L88.9543 136.655C88.5226 135.061 87.6704 134.123 85.5955 134.265C83.646 134.396 82.2952 136.181 82.4428 139.715C82.6016 143.411 84.1334 144.837 86.3029 144.692C88.4725 144.547 89.4194 143.509 89.5224 141.601L94.2793 141.272ZM95.332 129.127L99.6962 127.456L102.164 133.365L107.611 130.881L104.757 125.119L108.892 122.93L116.691 138.688L112.549 140.885L109.463 134.619L103.762 137.217L106.472 143.67L102.108 145.341L95.332 129.146V129.127ZM111.655 120.877L120.069 112.815L122.776 115.471L117.501 120.526L119.515 122.754L124.622 117.861L127.265 120.451L121.988 125.512L124.177 127.962L130.12 122.267L132.827 124.924L123.414 133.945L111.655 120.877ZM122.169 110.322L124.575 106.103L133.704 105.05C135.679 104.821 136.712 104.771 136.712 104.771L136.774 104.646C136.774 104.646 135.54 104.122 134.044 103.426L127.446 100.393L129.24 96.1738L145.184 103.518L143.266 107.974L133.682 109.316C131.822 109.578 130.663 109.62 130.663 109.62L130.602 109.745C130.602 109.745 131.894 110.364 133.281 111.107L139.921 114.678L137.629 118.649L122.169 110.322ZM21.6508 52.1394L25.1767 53.5319L22.3638 61.3384L25.6557 62.4274L28.2903 55.1222L31.7299 56.4869L29.1732 63.5748L35.3309 65.5745L34.008 70.0612L17.1641 64.5747L21.6508 52.1394ZM43.1848 40.5369C46.2233 43.2913 46.7469 47.0651 43.7112 50.9084C40.9261 54.4259 36.6538 56.1137 31.1199 52.0057C25.6585 47.9563 26.3854 43.166 29.2762 39.5009C32.3398 35.6185 36.2528 35.2927 39.3024 37.4539L36.3781 41.1552C34.9522 40.3531 33.6126 40.4422 32.2785 42.13C30.9445 43.8177 31.2397 45.9065 34.2002 48.1262C37.0326 50.2456 39.2439 50.1676 40.4777 48.608C41.795 46.9369 41.5388 45.5862 40.2493 44.2744L43.1848 40.5369ZM54.7372 20.6405C57.8425 19.2062 60.8838 18.8943 62.2234 22.0692C63.3235 24.6677 62.6244 25.804 61.2681 26.9431L61.3155 27.0489C62.7637 26.7119 64.7049 26.7704 65.9414 29.6724C67.4259 33.1621 65.1505 35.1813 62.0424 36.6183L55.4752 39.654L47.6019 23.938L54.7372 20.6405ZM57.3746 27.0099C58.5917 26.4529 58.9398 25.8792 58.4496 24.7067C57.9762 23.576 57.1741 23.4896 55.9988 24.0327L53.3753 25.2442L54.8569 28.1769L57.3746 27.0099ZM60.3435 33.4322C61.6859 32.8112 62.0535 32.2848 61.4853 30.9424C60.9562 29.6863 60.026 29.6557 58.6808 30.2768L56.4138 31.324L58.0124 34.4961L60.3435 33.4322ZM86.7123 32.1901H81.7243L80.2928 29.0291L74.2576 29.5471L73.3859 32.8892L68.4702 33.7525L73.3413 15.3712L78.7777 14.9033L86.7123 32.1901ZM78.9337 25.6425L77.4325 22.2224C76.9145 21.0611 76.5246 20.0278 76.5246 20.0278H76.4327C76.4327 20.0278 76.2238 21.114 75.9119 22.3477L75.0179 25.9683L78.9337 25.6425ZM91.1545 27.0322L87.0716 14.5552L92.3409 15.5578L93.9395 20.8494C94.2403 21.8604 94.4965 22.9354 94.4965 22.9354L94.5857 22.9549C94.5857 22.9549 95.2708 22.0859 95.9643 21.2839L99.6099 17.1313L104.821 18.4041L95.942 28.071L94.5829 33.9029L89.9736 32.9031L91.1545 27.0322ZM108.33 19.9248L119.392 25.9989L117.465 29.2658L110.65 25.5171L109.285 28.1963L115.588 31.6554L113.705 34.8415L107.606 31.4994L106.107 34.4209L112.753 38.0694L110.825 41.3362L100.37 35.5962L108.33 19.9248ZM125.511 30.7558L130.878 36.4986C133.624 39.4368 134.281 42.272 131.011 45.1322C128.923 46.9592 127.391 47.4633 125.561 46.7476L122.754 53.8327L119.439 49.7805L122.007 43.9959L120.475 42.3583L116.345 46.4718L112.953 43.2495L125.511 30.7558ZM123.096 39.7515L124.912 41.7011C125.923 42.7817 126.772 42.8151 127.9 41.818C129.028 40.821 128.995 39.9103 127.984 38.8269L126.073 36.7827L123.096 39.7515ZM129.942 70.0278L128.338 65.438L133.526 57.8571C134.64 56.2474 135.286 55.4007 135.286 55.4007L135.233 55.2726C135.233 55.2726 134.03 55.8714 132.51 56.5509L125.895 59.5449L123.884 55.423L139.898 48.1819L142.015 52.56L136.746 60.6756C135.735 62.2213 134.997 63.1543 134.997 63.1543L135.05 63.2824C135.05 63.2824 136.364 62.7254 137.835 62.1517L144.884 59.478L146.382 63.8116L129.942 70.0278Z" fill="white"/>
</svg>
