<svg width="24" height="24" viewBox="0 0 24 24" fill="none" xmlns="http://www.w3.org/2000/svg">
<path fill-rule="evenodd" clip-rule="evenodd" d="M23.92 19.58C23.8552 19.4995 23.7617 19.4473 23.6591 19.4342C23.5566 19.4212 23.453 19.4483 23.37 19.51C23.0812 19.714 22.7807 19.901 22.47 20.07C22.1624 20.2412 21.8452 20.3948 21.52 20.53C21.002 20.7272 20.4707 20.8876 19.93 21.01L18.69 21.15C18.3573 21.1789 18.0227 21.1789 17.69 21.15C17.4036 21.113 17.1315 21.0028 16.9 20.83C16.35 20.41 16.26 19.9 15.9 19.55C15.5141 19.2296 15.0397 19.0342 14.54 18.99C13.7618 18.8924 12.9716 18.9745 12.23 19.23C11.4568 19.5085 10.7049 19.8427 9.98003 20.23C9.35996 20.5719 8.6818 20.7957 7.98003 20.89H7.48003C7.25799 20.8973 7.03985 20.8304 6.86003 20.7C6.76498 20.5851 6.69361 20.4526 6.65003 20.31C6.4884 19.9113 6.19561 19.5797 5.82003 19.37C5.26146 19.0747 4.61449 18.993 4.00003 19.14C3.2479 19.2994 2.51648 19.5443 1.82003 19.87L0.210027 20.69C0.130492 20.7378 0.0731749 20.8152 0.0506733 20.9052C0.0281718 20.9952 0.0423267 21.0904 0.0900272 21.17C0.112721 21.209 0.142964 21.2432 0.178992 21.2704C0.215019 21.2976 0.256109 21.3174 0.299862 21.3286C0.343615 21.3397 0.389156 21.3421 0.433824 21.3355C0.478493 21.3288 0.521396 21.3134 0.560027 21.29L2.12003 20.61C2.76346 20.3529 3.43465 20.1717 4.12003 20.07C4.49215 20.0031 4.87594 20.063 5.21003 20.24C5.4256 20.3911 5.57292 20.621 5.62003 20.88C5.69677 21.0904 5.80832 21.2865 5.95003 21.46C6.29447 21.8052 6.7456 22.0238 7.23003 22.08H8.00003C9.72003 22 11 21 12.58 20.44C13.1303 20.2416 13.7182 20.1698 14.3 20.23C14.5595 20.2404 14.8115 20.3198 15.03 20.46C15.46 20.81 15.59 21.32 16.18 21.73C16.5034 21.9473 16.8673 22.0969 17.25 22.17C17.7479 22.2352 18.2521 22.2352 18.75 22.17L20.15 21.93C20.45 21.85 20.74 21.76 21.03 21.66C21.32 21.56 21.6 21.43 21.87 21.31C22.2125 21.1438 22.5463 20.9602 22.87 20.76C23.1945 20.5562 23.5082 20.336 23.81 20.1C23.8889 20.0418 23.9436 19.9568 23.9639 19.8609C23.9842 19.7651 23.9686 19.6651 23.92 19.58Z" fill="black"/>
<path fill-rule="evenodd" clip-rule="evenodd" d="M4.89003 17.59C4.97865 17.6088 5.07111 17.5935 5.14895 17.5472C5.2268 17.5009 5.28432 17.4269 5.31003 17.34C6.10925 14.7574 7.47594 12.3862 9.31003 10.4C11.1119 8.39915 13.2096 6.68597 15.53 5.32C16.2202 4.90079 16.9386 4.5299 17.68 4.21C18.4289 3.88911 19.1971 3.61524 19.98 3.39L20.64 3.34C20.59 3.56 20.51 3.79 20.43 4.04C20.07 5.04 19.54 6.23 19.43 6.76C19.0259 8.44572 18.7914 10.1676 18.73 11.9C18.6733 13.6295 18.8312 15.3593 19.2 17.05C19.2099 17.1006 19.2296 17.1487 19.258 17.1916C19.2865 17.2346 19.3231 17.2715 19.3658 17.3003C19.4085 17.3291 19.4565 17.3491 19.507 17.3594C19.5575 17.3696 19.6095 17.3699 19.66 17.36C19.7106 17.3502 19.7587 17.3304 19.8017 17.302C19.8446 17.2735 19.8815 17.2369 19.9103 17.1942C19.9391 17.1515 19.9592 17.1035 19.9694 17.053C19.9797 17.0026 19.9799 16.9506 19.97 16.9C19.6753 15.2507 19.5813 13.5719 19.69 11.9C19.8116 10.246 20.0963 8.60803 20.54 7.01C20.73 6.32 21.64 4.6 21.93 3.45C22.0893 2.99354 22.0714 2.49394 21.88 2.05C21.779 1.91986 21.6403 1.82408 21.4827 1.77576C21.3252 1.72743 21.1567 1.72892 21 1.78C20.63 1.84 19.73 2.08 19.58 2.12C18.7421 2.36055 17.9204 2.65448 17.12 3C16.3149 3.3421 15.5361 3.74319 14.79 4.2C12.4096 5.70084 10.2774 7.56314 8.47003 9.72C6.64394 11.8763 5.33402 14.4209 4.64003 17.16C4.62797 17.2047 4.62489 17.2513 4.63095 17.2971C4.63701 17.343 4.65211 17.3872 4.67535 17.4271C4.6986 17.4671 4.72954 17.5021 4.76639 17.5301C4.80323 17.558 4.84526 17.5784 4.89003 17.59Z" fill="black"/>
<path fill-rule="evenodd" clip-rule="evenodd" d="M16.15 6.3C15.4537 6.71914 14.7856 7.18347 14.15 7.69C13.8765 7.91857 13.6193 8.16583 13.38 8.43C13.1397 8.69172 12.9127 8.9654 12.7 9.25C12.2234 9.93012 11.8053 10.6494 11.45 11.4C11.4231 11.4445 11.4054 11.4939 11.3979 11.5453C11.3904 11.5968 11.3933 11.6492 11.4063 11.6995C11.4194 11.7498 11.4423 11.797 11.4739 11.8383C11.5054 11.8796 11.5449 11.9142 11.59 11.94C11.6335 11.9687 11.6824 11.9881 11.7337 11.9971C11.785 12.0061 11.8376 12.0045 11.8882 11.9923C11.9389 11.9801 11.9865 11.9576 12.0281 11.9263C12.0696 11.8949 12.1043 11.8553 12.13 11.81C12.4 11.44 12.68 11.11 12.97 10.81C13.26 10.51 13.59 10.17 13.9 9.81C14.21 9.45 14.51 9.17 14.8 8.81C15.4 8.14 15.96 7.45 16.61 6.81C16.65 6.78321 16.684 6.74846 16.7099 6.70794C16.7358 6.66741 16.7531 6.62198 16.7607 6.57447C16.7683 6.52696 16.766 6.4784 16.754 6.43181C16.742 6.38523 16.7205 6.34163 16.6908 6.30372C16.6612 6.26582 16.6241 6.23444 16.5818 6.21153C16.5394 6.18862 16.4929 6.17467 16.4449 6.17057C16.397 6.16647 16.3487 6.17229 16.3032 6.18768C16.2576 6.20307 16.2156 6.22768 16.18 6.26L16.15 6.3Z" fill="black"/>
<path fill-rule="evenodd" clip-rule="evenodd" d="M9.53004 13.63C9.40541 13.7794 9.29493 13.9401 9.20004 14.11C9.10806 14.2844 9.02788 14.4648 8.96004 14.65C8.34004 16.31 8.65004 16.4 8.81004 16.47C9.14004 16.61 9.23004 16.47 10.07 15.22C10.17 15.07 10.27 14.93 10.36 14.77C10.4499 14.6186 10.5301 14.4616 10.6 14.3C11.31 12.72 11.17 12.74 11.03 12.63C10.64 12.32 9.55004 13.6 9.53004 13.63Z" fill="black"/>
</svg>
