<svg width="24" height="24" viewBox="0 0 24 24" fill="none" xmlns="http://www.w3.org/2000/svg">
<g clip-path="url(#clip0_1049_7911)">
<path d="M23.62 3.06C24.13 0.86 19.91 -0.46 17.78 0.15C16.12 0.67 15.62 1.91 16.08 2.95C15.9217 3.50569 15.9385 4.09667 16.1282 4.64245C16.3179 5.18823 16.6712 5.66227 17.14 6C17.9768 6.53054 18.9497 6.80639 19.9404 6.79396C20.9311 6.78153 21.8968 6.48136 22.72 5.93C22.6518 6.17887 22.5343 6.41153 22.3746 6.61421C22.2148 6.81689 22.0161 6.98548 21.79 7.11C21.3881 7.42396 20.9299 7.65816 20.44 7.8C20.3605 7.81061 20.2884 7.85239 20.2396 7.91615C20.1908 7.97992 20.1694 8.06044 20.18 8.14C20.1906 8.21957 20.2324 8.29166 20.2962 8.34042C20.3599 8.38918 20.4405 8.41061 20.52 8.4C21.3585 8.46716 22.193 8.22924 22.87 7.73C23.2209 7.41222 23.4656 6.99432 23.5711 6.53287C23.6767 6.07142 23.6379 5.58868 23.46 5.15C23.6459 4.8375 23.757 4.48628 23.7848 4.12374C23.8125 3.7612 23.7562 3.39715 23.62 3.06ZM18.12 1.19C19.1746 0.9047 20.2889 0.929 21.33 1.26C23.67 1.95 23.33 3.35 21.55 3.75C18.4 4.47 15.44 2.13 18.12 1.19ZM20.12 5.65C19.2923 5.68128 18.4692 5.51323 17.72 5.16C17.4644 5.04 17.2448 4.85486 17.0833 4.62317C16.9218 4.39148 16.8241 4.12138 16.8 3.84C17.7077 4.46238 18.7762 4.80867 19.8764 4.83706C20.9765 4.86545 22.0614 4.57473 23 4C22.83 5.25 21.39 5.62 20.08 5.65H20.12Z" fill="black"/>
<path d="M6.72999 5.83C7.59999 8.09 11.73 8.39 13.55 6.69C13.9118 6.35593 14.1631 5.91942 14.2703 5.43876C14.3776 4.9581 14.3356 4.45617 14.15 4C14.66 1.8 10.44 0.480001 8.29999 1.09C6.64999 1.61 6.14999 2.85 6.60999 3.89C6.47974 4.53604 6.52111 5.20494 6.72999 5.83ZM12.94 6C11.69 7 7.99999 6.87 7.38999 5.25C7.34612 5.10593 7.3127 4.95888 7.28999 4.81C8.20688 5.44027 9.28817 5.78841 10.4005 5.81151C11.5129 5.83462 12.6077 5.53166 13.55 4.94C13.5267 5.14914 13.4605 5.35121 13.3555 5.5336C13.2506 5.71599 13.1091 5.87476 12.94 6ZM11.86 2.23C14.21 2.92 13.86 4.32 12.08 4.73C10.849 5.00312 9.56124 4.83684 8.43999 4.26C6.19999 2.91 8.75999 1.32 11.86 2.23Z" fill="black"/>
<path d="M1.71 12.2C1.79 12.2 4.51 11.33 4.59 11.3C4.55404 11.331 4.52519 11.3693 4.50542 11.4125C4.48564 11.4556 4.4754 11.5025 4.4754 11.55C4.4754 11.5975 4.48564 11.6444 4.50542 11.6875C4.52519 11.7306 4.55404 11.769 4.59 11.8C4.85 12.08 4.26 12.8 4.1 12.99C3.80057 13.479 3.42982 13.9205 3 14.3C2.68 14.51 2.67 14.18 2.56 14.12C2.45 14.06 2.14 13.48 1.97 13.42C1.8 13.36 1.45 13.62 1.67 13.95C1.89 14.28 2.11 14.54 2.37 14.88C4.13 18.23 4.28 18.67 4.77 19.14C4.89689 19.2746 5.05318 19.378 5.22664 19.4422C5.40011 19.5063 5.58607 19.5296 5.77 19.51C7.3 19.42 19.64 15.36 21.52 14.51C21.656 14.4589 21.7793 14.3787 21.8812 14.2751C21.9831 14.1715 22.0612 14.0469 22.11 13.91C22.26 12.98 17.34 7.77 15.81 7.58C14.81 7.46 4.31 10.5 1.69 11.58C1.63434 11.6114 1.58834 11.6575 1.55701 11.7132C1.52568 11.7689 1.51021 11.8322 1.51227 11.8961C1.51433 11.9599 1.53385 12.022 1.5687 12.0756C1.60356 12.1292 1.65243 12.1722 1.71 12.2ZM18.11 14.55C18.5857 13.7582 19.183 13.0462 19.88 12.44C20.2119 12.7752 20.4947 13.1556 20.72 13.57C20 13.87 18.85 14.28 18.11 14.55ZM10 9.84C10.09 9.84 15.23 8.52 15.67 8.58C16.43 8.69 18.67 11.15 19.23 11.73C17.7 12.44 17.07 14.1 17.35 14.81C16.46 15.13 9.53 17.55 7.95 18.08C7.48 15.86 3.83 15.91 4.23 16.81C4.24774 16.8714 4.28672 16.9246 4.34 16.96C4.34 16.96 4.97 17.02 5.21 17.13C5.96336 17.3585 6.64979 17.7669 7.21 18.32C6.66059 18.5261 6.08497 18.654 5.5 18.7C5.1 18.6 4.78 17.91 3.12 14.98C5.19 14.58 6.12 11.98 5 11.27C4.91 11.16 4.06 11.38 10 9.84Z" fill="black"/>
<path d="M9.42998 13.33C9.85998 13.96 10.68 13.83 11.43 13.72C12.64 13.53 12.71 14.06 11.67 14.41C11.3486 14.5216 11.0101 14.5757 10.67 14.57C10.5798 14.5607 10.4896 14.5876 10.4193 14.6448C10.349 14.702 10.3043 14.7848 10.295 14.875C10.2857 14.9652 10.3126 15.0553 10.3698 15.1257C10.427 15.196 10.5098 15.2407 10.6 15.25C11.067 15.3233 11.5443 15.296 12 15.17C12 15.5 12.81 16.08 13.09 15.91C13.37 15.74 13.09 14.85 13.09 14.77V14.7C14.01 13.94 13.36 12.79 12.37 12.57C11.7014 12.5489 11.0322 12.5857 10.37 12.68C10.1 12.37 9.49998 11.87 11.68 12.04C11.7595 12.0519 11.8406 12.0318 11.9053 11.984C11.97 11.9361 12.013 11.8646 12.025 11.785C12.0369 11.7054 12.0168 11.6244 11.9689 11.5597C11.9211 11.495 11.8495 11.4519 11.77 11.44C11.3861 11.3488 10.9942 11.2952 10.6 11.28C10.39 10.73 9.59998 10.36 9.34998 10.5C9.09998 10.64 9.34998 11.4 9.48998 11.62C9.31593 11.7941 9.19164 12.0116 9.12998 12.25C8.99998 12.6 9.23998 13 9.42998 13.33Z" fill="black"/>
<path d="M13.22 10.07C13.7347 10.5843 14.3726 10.9581 15.0728 11.156C15.7731 11.3538 16.5123 11.3689 17.22 11.2C17.3102 11.2 17.3967 11.1642 17.4604 11.1004C17.5242 11.0367 17.56 10.9502 17.56 10.86C17.56 10.7698 17.5242 10.6833 17.4604 10.6196C17.3967 10.5558 17.3102 10.52 17.22 10.52C15.942 10.2864 14.701 9.88284 13.53 9.32C13.2 9.12 12.52 9.65 13.22 10.07Z" fill="black"/>
<path d="M3.18 19.67C3.6174 20.3223 4.14996 20.9054 4.76 21.4C6.76 22.51 19.76 17.3 21.91 16.47C21.984 16.4299 22.0412 16.3645 22.0708 16.2857C22.1005 16.2069 22.1008 16.12 22.0717 16.041C22.0425 15.962 21.9858 15.8962 21.9121 15.8556C21.8383 15.815 21.7523 15.8024 21.67 15.82C20.67 16.19 6.19 20.99 5.22 20.51C4.71973 20.1128 4.26974 19.6561 3.88 19.15C2.82 17.81 1.75 15.25 1.24 15.31C1.19455 15.3114 1.15002 15.3231 1.10975 15.3442C1.06949 15.3653 1.03455 15.3953 1.00758 15.4319C0.98061 15.4685 0.962311 15.5108 0.954068 15.5555C0.945825 15.6002 0.947853 15.6462 0.959998 15.69C1.63178 17.0536 2.37275 18.382 3.18 19.67Z" fill="black"/>
<path d="M22 18.07C20.89 18.47 5.77 23.44 4.65 22.95C4.12606 22.5599 3.65246 22.1065 3.24 21.6C2.18 20.34 1.29 18.5 0.779998 17.93C0.549998 17.67 0.129998 17.81 0.209998 18.18C0.209998 18.36 0.659998 18.8 0.909998 19.29C1.04 19.52 1.14 19.77 1.25 20.01C1.84121 21.1994 2.61002 22.2919 3.53 23.25C3.71394 23.5219 3.97147 23.7359 4.2725 23.867C4.57352 23.998 4.90562 24.0407 5.23 23.99C9.23 23.76 18.54 20.15 22.23 18.72C22.3017 18.6795 22.3569 18.6151 22.3858 18.538C22.4147 18.4609 22.4155 18.376 22.388 18.2984C22.3605 18.2208 22.3066 18.1553 22.2356 18.1135C22.1646 18.0718 22.0812 18.0563 22 18.07Z" fill="black"/>
</g>
<defs>
<clipPath id="clip0_1049_7911">
<rect width="24" height="24" fill="white"/>
</clipPath>
</defs>
</svg>
